<?xml version="1.0" standalone="no"?>
<!DOCTYPE svg PUBLIC "-//W3C//DTD SVG 20010904//EN"
 "http://www.w3.org/TR/2001/REC-SVG-20010904/DTD/svg10.dtd">
<svg version="1.0" xmlns="http://www.w3.org/2000/svg"
 width="260.000000pt" height="260.000000pt" viewBox="0 0 260.000000 260.000000"
 preserveAspectRatio="xMidYMid meet">
<metadata>
Created by potrace 1.11, written by Peter Selinger 2001-2013
</metadata>
<g transform="translate(0.000000,260.000000) scale(0.100000,-0.100000)"
fill="#000000" stroke="none">
<path d="M1135 2594 c-11 -3 -56 -12 -100 -20 -110 -21 -212 -57 -329 -117
-349 -178 -599 -507 -683 -897 -25 -119 -25 -401 0 -520 85 -396 340 -728 696
-905 190 -95 365 -135 586 -135 209 0 376 38 565 129 261 124 477 340 601 601
91 189 129 356 129 565 0 229 -42 402 -145 605 -175 341 -499 589 -885 675
-73 17 -389 30 -435 19z m347 -1101 c383 -383 499 -505 504 -529 8 -40 -13
-57 -59 -49 -28 5 -84 57 -308 281 l-274 274 -65 0 -65 0 -155 161 c-85 89
-160 171 -167 183 -15 26 -17 101 -3 126 11 21 56 49 80 50 8 0 239 -224 512
-497z m-659 171 c96 -48 162 -99 199 -154 27 -41 29 -50 24 -105 l-5 -60 319
-320 c175 -176 324 -333 330 -349 6 -16 8 -38 4 -48 -5 -17 -12 -19 -42 -14
-31 5 -81 50 -367 335 -304 303 -332 329 -358 324 -79 -16 -196 64 -255 176
-39 73 -64 141 -52 141 5 0 50 -34 100 -76 51 -42 94 -74 96 -71 3 2 -20 40
-51 83 -82 114 -85 122 -33 86 23 -16 63 -46 88 -65 24 -20 46 -34 48 -32 4 3
-43 61 -132 163 -17 20 -18 22 -2 22 9 0 49 -16 89 -36z"/>
</g>
</svg>
