<svg preserveAspectRatio="none" width="100%" height="100%" overflow="visible" style="display: block;" viewBox="0 0 132 129" fill="none" xmlns="http://www.w3.org/2000/svg">
<g id="Vector">
<path d="M66.526 75.9656C67.9198 75.941 73.4428 75.3089 72.9574 77.6063C72.4414 78.0216 67.0756 77.8329 66.1097 77.8264C63.9213 77.8159 61.7328 77.8199 59.5445 77.8382C59.9599 77.0609 60.1627 76.7762 60.7095 76.0804C62.6493 75.9677 64.5832 75.9757 66.526 75.9656Z" fill="var(--fill-0, #D70321)"/>
<path d="M35.1817 117.709C37.2925 117.774 39.093 119.34 36.4855 120.739C35.0815 121.119 34.8304 120.623 33.9384 119.649C34.2862 118.667 34.394 118.379 35.1817 117.709Z" fill="var(--fill-0, #D70321)"/>
<path d="M66.7564 67.4984C68.7847 67.9634 69.4586 69.0187 67.6821 70.5881C66.8751 70.7348 66.1353 69.6651 65.6548 69.1018C66.0671 68.3822 66.221 68.1212 66.7564 67.4984Z" fill="var(--fill-0, #D70321)"/>
<path fill-rule="evenodd" clip-rule="evenodd" d="M105.694 25.9694C108.469 25.9659 111.923 25.3683 113.889 27.1654C114.161 28.7706 114.096 31.5895 114.094 33.3109L114.107 41.7974L114.171 55.8143C114.183 57.8309 114.322 64.4279 113.869 66.0766C112.445 66.8702 107.938 65.6573 104.914 67.1172C104.63 70.4885 106.176 83.7569 104.463 85.7379C104.169 86.0783 102.627 86.0668 102.143 86.083C97.7766 86.2288 93.3834 86.1556 89.0143 86.1575L42.5507 86.1596C37.9418 86.1632 33.0849 86.2469 28.4952 86.1452C28.4334 84.2408 29.2328 75.8168 28.6659 74.8664C28.2059 74.6912 27.554 74.5207 27.1503 74.8407C26.7272 76.6052 26.6665 78.977 26.5707 80.827L8.9061 80.849C8.24821 81.5368 7.65449 82.1466 8.32864 83.0079C9.58531 83.6103 23.5182 83.0695 25.7829 82.9821C25.8551 82.9794 26.6213 82.7619 26.7274 82.7308C26.339 85.4411 25.1001 88.0288 29.0614 88.2569C30.6643 88.3492 32.1758 88.3584 33.782 88.3667L41.8391 88.3844L93.6962 88.3769C95.0404 88.377 101.814 88.1709 102.503 88.8168C102.774 90.0227 101.545 93.7342 101.448 95.3143C100.899 104.314 103.249 113.324 105.058 122.111C106.063 125.582 103.258 125.897 100.822 125.193C98.9633 124.655 98.1838 116.423 97.6252 114.631C95.8115 114.537 93.2374 114.609 91.3633 114.606L78.9978 114.592L45.4343 114.617C47.8565 119.383 45.7315 122.521 42.5571 126.1C46.7434 126.03 51.1768 126.123 55.3912 126.13L80.208 126.124C86.904 126.211 93.6006 126.224 100.297 126.166C103.352 126.278 123.309 125.844 124.667 126.968C124.935 127.573 124.719 128.529 124.147 128.9C123.507 129.044 118.505 128.99 117.461 128.99L19.0326 128.988C15.7901 128.986 12.5477 128.997 9.30592 128.997C8.33172 128.997 6.7995 128.714 6.45296 127.64C6.88766 125.755 14.6136 126.212 16.3814 126.213C20.3598 126.199 24.3383 126.228 28.316 126.301L28.2371 126.226C26.0244 124.135 24.8138 121.782 24.7337 118.724C24.6286 114.715 27.1313 112.242 30.2888 110.288C31.0733 109.803 32.3319 108.95 32.9695 108.284L33.0151 108.235C33.1354 107.712 33.2404 107.142 33.3129 106.605C33.908 102.191 35.1118 97.73 34.9707 93.2616C34.9315 92.0208 34.494 90.8781 34.1394 89.7122C33.2565 90.1872 32.8863 90.4321 32.1178 91.0689C32.0888 91.4777 32.0821 92.0185 32.0974 92.423C32.2673 96.9788 31.5145 101.375 30.7766 105.848C30.5546 107.193 30.2294 107.813 29.1129 108.56C27.5104 108.756 25.5732 108.685 23.9469 108.683C17.4636 108.677 10.9785 108.703 4.49572 108.677C3.92315 108.675 3.24106 108.581 2.70323 108.389C1.50534 107.236 1.86005 101.688 1.86279 99.8486L1.88533 87.3347C1.88946 84.964 1.93824 82.3075 1.79893 79.9488C1.65756 77.5565 0.679383 74.8539 0 72.5446C0.26968 71.7001 0.473413 70.6354 1.49517 70.5856C3.66861 70.4801 5.85431 70.5064 8.03132 70.4961L19.8725 70.4217C22.6101 70.4011 25.6265 70.4392 28.3283 70.1838C28.3966 67.2303 27.7704 54.7212 29.4881 52.8769C30.3273 51.9758 36.143 52.5377 37.6638 52.3571C38.8632 52.2147 39.9844 51.4895 41.15 51.167C42.6784 50.7442 44.6502 50.9191 46.2323 50.8836C46.9606 51.3603 47.9259 52.1908 48.7595 52.2853C50.4277 52.4742 52.3091 52.4301 53.9878 52.4369L63.5169 52.453L74.8091 52.4434C78.6954 52.4494 81.6041 52.9441 85.0435 51.1686C85.8911 50.7309 88.7993 51.0344 89.9605 51.1322L91.2367 52.229C92.7512 52.4954 94.6668 52.4592 96.2304 52.4809C98.781 52.4972 101.332 52.5417 103.881 52.6148C103.915 54.0385 103.95 59.2434 105.293 59.7982C106.581 59.6395 106.477 58.5916 106.396 57.5547C106.308 55.8152 105.73 53.9762 105.674 52.2483C105.449 45.3335 105.617 38.3849 105.562 31.465C105.548 29.6816 105.524 27.7295 105.694 25.9694ZM36.2663 124.382C43.9232 122.082 41.4919 113.573 34.7807 114.056C26.9992 115.732 29.2655 124.917 36.2663 124.382ZM49.2484 99.0416C46.3536 99.0391 42.9879 98.9439 40.1502 99.0684C38.6358 102.021 38.2575 105.823 38.7253 109.084C44.2742 109.189 49.9475 109.136 55.5039 109.086C68.4944 108.971 81.5479 109.25 94.5308 109.121C95.0204 109.1 95.4736 109.145 95.8606 108.883C96.0648 107.363 95.1748 100.987 94.3354 99.6605C93.234 98.838 85.0105 99.0382 83.1587 99.0304L49.2484 99.0416ZM12.0746 89.4486C11.3735 88.4686 10.2719 88.1636 9.12345 88.2478C5.98011 90.1362 6.71426 93.7363 10.8301 93.4266C11.5926 92.9258 12.2873 92.2135 12.4744 91.2886C12.6054 90.6465 12.4601 89.9788 12.0746 89.4486ZM33.657 55.4446C32.3913 56.0639 31.9774 56.76 31.997 58.232C32.084 64.7561 32.0444 71.2772 32.0437 77.8017C32.0451 79.7711 32.6334 80.196 34.5586 80.2162C37.1171 80.2429 39.679 80.1871 42.2378 80.1685L51.27 80.1808C67.3229 80.1776 83.3939 80.3616 99.444 80.1878C100.039 80.1813 100.916 80.2311 101.45 79.9761C101.636 79.8871 101.734 79.704 101.779 79.5078C102.008 78.4899 101.585 75.3821 101.525 74.1687C101.432 72.3175 101.47 58.053 101.121 57.642C100.932 57.4208 100.547 57.2854 100.284 57.1657C99.8465 57.1151 99.5498 57.0258 99.1676 57.2171C99.0898 57.4891 99.5539 59.8804 99.5165 60.4648C99.3651 62.8211 100.211 76.5886 98.8596 77.6763C98.0131 77.9609 77.8379 77.9456 75.7 77.7765C75.3263 77.2876 75.4822 76.9201 75.2647 76.4412C74.6788 75.1798 73.5106 74.2655 72.0989 74.1736C68.4447 73.9354 64.6822 73.9915 61.0198 74.1082C59.772 74.148 58.7368 74.5557 57.7536 75.3111C57.4595 75.5354 57.1822 75.781 56.9234 76.0452C57.0555 76.5128 57.3031 77.1453 57.1692 77.5761C56.9685 77.7459 56.84 77.784 56.5777 77.8087C53.8894 78.0615 50.1363 77.8442 47.3201 77.8467C43.5958 77.85 39.7186 78.0998 36.0167 77.8022C35.4753 77.7587 35.0464 77.6739 34.6836 77.2246C33.5418 75.8105 33.9544 62.8412 34.046 60.2189C34.0702 59.5275 34.5062 55.9252 34.2446 55.4992C34.071 55.4818 33.824 55.449 33.657 55.4446ZM69.8019 66.5663C68.8837 65.5858 67.498 65.1915 66.1998 65.5413C64.8561 65.9034 63.8373 67.0001 63.5765 68.3651C63.3547 69.5263 63.7131 70.7222 64.5372 71.571C65.3612 72.4197 66.5476 72.8146 67.7169 72.6293C69.0448 72.4188 70.1482 71.4937 70.5849 70.2239C71.0217 68.9541 70.7204 67.547 69.8019 66.5663Z" fill="var(--fill-0, #D70321)"/>
<path d="M108.803 78.4231C113.681 78.2921 118.631 78.4697 123.514 78.399C125.637 78.3683 128.742 78.4493 130.254 80.1278C131.132 81.1019 133.546 86.6943 130.525 86.0833C128.493 85.9361 126.038 86.0025 123.974 86.0102L114.972 85.9762C112.504 85.9802 109.808 86.0551 107.366 85.899C107.248 84.1169 106.428 80.3816 107.365 78.7842C107.597 78.3884 108.354 78.4296 108.803 78.4231Z" fill="var(--fill-0, #D70321)"/>
<path d="M102.65 0.119963C105.541 -0.247675 108.534 0.185094 110.829 2.04109C112.166 3.12215 114.505 5.60294 114.596 7.30238C114.831 11.7118 109.438 13.4973 106.792 15.2709C105.707 16.0007 104.74 16.8915 103.924 17.9125C101.257 21.2333 101.018 23.9034 101.473 27.9881C101.61 28.3998 101.742 28.6086 101.547 28.9776C101.442 28.997 101.304 29.0276 101.194 28.9947C97.9624 28.0282 95.2079 24.2578 95.9875 20.7766C97.5632 13.7398 106.25 14.0492 108.102 7.0877C107.489 5.07468 105.513 3.13615 104.017 1.69898C103.516 1.21764 102.741 0.77284 102.65 0.119963Z" fill="var(--fill-0, #D70321)"/>
<path d="M116.533 17.2172C119.258 16.8439 125.079 18.6571 125.587 21.8742C125.712 22.6712 125.44 23.9722 125.279 24.801C121.918 23.4516 122.269 22.4672 117.654 22.3871C115.163 22.3427 109.141 22.7516 106.829 23.4055L107.185 22.8764C109.216 19.8797 113.055 17.8888 116.533 17.2172Z" fill="var(--fill-0, #D70321)"/>
<path d="M97.1052 5.97249C99.4326 5.83107 102.221 6.43312 104.316 7.46727C101.829 8.57316 97.0891 9.29524 95.2453 11.1424C94.392 12.2205 94.9513 13.351 94.3468 13.9745C91.5863 14.2495 87.4742 7.48634 97.1052 5.97249Z" fill="var(--fill-0, #D70321)"/>
</g>
</svg>
