<svg preserveAspectRatio="none" width="100%" height="100%" overflow="visible" style="display: block;" viewBox="0 0 22 22" fill="none" xmlns="http://www.w3.org/2000/svg">
<g id="star">
<path id="Vector" d="M12.5858 3.2175L14.1992 6.44417C14.4192 6.89333 15.0058 7.32417 15.5008 7.40667L18.425 7.8925C20.295 8.20417 20.735 9.56083 19.3875 10.8992L17.1142 13.1725C16.7292 13.5575 16.5183 14.3 16.6375 14.8317L17.2883 17.6458C17.8017 19.8733 16.6192 20.735 14.6483 19.5708L11.9075 17.9483C11.4125 17.655 10.5967 17.655 10.0925 17.9483L7.35167 19.5708C5.39 20.735 4.19833 19.8642 4.71167 17.6458L5.3625 14.8317C5.48167 14.3 5.27083 13.5575 4.88583 13.1725L2.6125 10.8992C1.27417 9.56083 1.705 8.20417 3.575 7.8925L6.49917 7.40667C6.985 7.32417 7.57167 6.89333 7.79167 6.44417L9.405 3.2175C10.285 1.46667 11.715 1.46667 12.5858 3.2175Z" fill="var(--fill-0, #D70321)"/>
<path id="Vector_2" opacity="0" d="M22 0H0V22H22V0Z" fill="var(--fill-0, #D70321)"/>
</g>
</svg>
