<svg overflow="visible" style="display: block;" viewBox="0 0 14.69 14.63" fill="none" xmlns="http://www.w3.org/2000/svg">
<path id="Vector" d="M0.665 0.665H1.99833L3.77167 8.945C3.83672 9.24824 4.00545 9.51932 4.24881 9.71157C4.49217 9.90383 4.79494 10.0052 5.105 9.99833H11.625C11.9285 9.99784 12.2227 9.89386 12.459 9.70356C12.6954 9.51326 12.8598 9.24802 12.925 8.95167L14.025 3.99833H2.71167M5.29846 13.2983C5.29846 13.6665 4.99999 13.965 4.6318 13.965C4.26361 13.965 3.96513 13.6665 3.96513 13.2983C3.96513 12.9301 4.26361 12.6316 4.6318 12.6316C4.99999 12.6316 5.29846 12.9301 5.29846 13.2983ZM12.6318 13.2983C12.6318 13.6665 12.3333 13.965 11.9651 13.965C11.5969 13.965 11.2985 13.6665 11.2985 13.2983C11.2985 12.9301 11.5969 12.6316 11.9651 12.6316C12.3333 12.6316 12.6318 12.9301 12.6318 13.2983Z" stroke="var(--stroke-0, #FBF5E7)" stroke-width="1.33" stroke-linecap="round" stroke-linejoin="round"/>
</svg>
