<svg preserveAspectRatio="none" width="100%" height="100%" overflow="visible" style="display: block;" viewBox="0 0 341.347 206" fill="none" xmlns="http://www.w3.org/2000/svg">
<g id="Group 2085663190">
<g id="Vector">
<path d="M226.928 152.108C226.89 152.04 226.894 151.911 226.902 151.79C226.894 151.911 226.89 152.04 226.93 152.108C226.939 152.124 226.951 152.139 226.967 152.154C226.951 152.139 226.938 152.125 226.928 152.108ZM332.268 25.351C332.421 25.1747 333.205 23.954 332.622 23.8132C332.307 23.7373 332.067 24.7878 331.741 24.9114C331.586 24.969 331.187 24.9016 331.097 24.7449C330.977 24.5356 331.26 24.3225 331.284 24.1144C331.304 23.9405 331.215 23.5047 331.083 23.3847C330.906 23.228 330.64 23.3712 330.546 23.086C329.922 22.8546 330.754 21.9547 329.973 21.9069C329.661 21.8861 329.464 21.8592 329.267 21.5751C329.135 21.3841 329.14 21.1123 328.93 20.9838C328.576 20.7634 327.927 20.9018 327.522 20.7818C326.918 20.6006 326.798 20.2786 326.695 19.7031C326.656 19.484 326.656 19.2844 326.476 19.1289C326.428 19.0885 326.232 18.9918 326.168 18.9587C326.045 18.8975 325.989 18.8192 325.835 18.84C325.924 18.3784 326.041 17.9364 325.9 17.4797C325.79 17.132 325.82 16.7794 325.705 16.4342C325.441 15.642 325.268 14.7544 324.911 14.0002C324.543 13.2203 324.386 12.4637 324.184 11.6262C323.975 10.768 323.778 10.146 323.17 9.50936C322.834 9.15553 322.39 8.95352 321.973 8.71233C321.666 8.53602 321.263 8.02426 320.876 8.20791C320.681 8.29974 320.513 8.54949 320.333 8.6805C320.114 8.83844 319.949 8.95596 319.805 9.19103C319.671 9.40774 319.615 9.57548 319.351 9.64772C319.12 9.70771 318.87 9.6612 318.634 9.72486C318.453 9.77628 318.268 9.92442 318.072 9.91707C317.648 9.90238 317.265 9.2939 317.093 8.95965C316.936 8.65357 316.856 8.05608 316.428 8.02792C315.918 7.99364 315.666 8.62908 315.562 9.01719C315.395 9.64404 315.17 10.2672 315.059 10.9051C314.945 11.5577 314.88 12.1943 314.7 12.8334C314.372 13.9965 313.958 15.1462 313.737 16.3289C313.671 16.6717 313.883 17.0427 313.954 17.3696C314.029 17.7111 313.899 17.9768 313.931 18.2952C313.962 18.5694 314.179 18.7408 314.183 19.0591C314.185 19.3334 314.027 19.6554 314.068 19.9186C314.105 20.1647 314.375 20.2724 314.45 20.4916C314.542 20.7671 314.439 21.2152 314.422 21.498C314.404 21.8065 314.33 22.0612 314.06 22.2522C313.801 22.4358 313.667 22.4285 313.658 22.8068C313.655 22.9954 313.794 23.4704 313.427 23.3957C313.461 23.8291 314.108 25.0987 313.597 25.3644C313.482 25.4232 313.345 25.3179 313.238 25.4232C313.136 25.5199 313.177 25.7256 313.176 25.8468C313.174 26.1639 313.135 26.4602 313.041 26.7651C312.955 27.0393 312.804 27.4127 312.456 27.2609C312.221 27.1581 312.167 26.7308 311.903 26.7075C311.815 26.7002 311.744 26.732 311.676 26.781C311.525 26.8875 311.398 27.0761 311.171 27.0552C311.01 27.0418 310.987 26.9328 310.829 27.0222C310.72 27.0846 310.713 27.2756 310.59 27.343C310.319 27.4874 310.175 27.2352 310.047 27.5952C309.903 27.9992 310.047 28.4657 309.879 28.8587C309.751 29.155 309.468 29.3753 309.184 29.5174C309.173 29.5247 309.161 29.5308 309.148 29.537C308.494 29.8541 307.743 29.8688 307.044 30.0316C305.719 30.3389 304.385 30.6156 303.054 30.9082C302.62 31.0037 302.186 31.1004 301.751 31.1971C300.736 31.4236 299.722 31.6526 298.711 31.8828C297.527 32.1521 296.343 32.4141 295.16 32.6712C294.674 32.7778 294.19 32.8892 293.707 32.9957C293.56 33.1365 293.371 33.2197 293.232 33.3752C293.069 33.5564 292.952 33.7793 292.778 33.958C292.165 34.5849 291.446 35.1358 290.88 35.8251C290.565 36.2108 290.254 36.6013 289.931 36.9821C289.663 37.2992 289.36 37.5514 289.261 37.9383C289.222 38.0877 289.245 38.3693 289.28 38.5052C289.307 39.1173 288.963 39.5275 288.479 39.8605C288.082 40.136 287.827 40.3845 287.502 40.7347C287.28 40.971 286.31 41.3909 286.414 41.7937C286.517 42.1977 287.283 41.7753 287.465 41.6162C287.812 41.3101 287.877 40.9575 288.427 41.0579C288.432 41.2146 288.435 41.3799 288.404 41.5342C288.272 42.2014 287.642 42.4353 287.885 43.187C288.114 43.9008 288.393 44.3624 287.655 44.8484C287.096 45.2145 286.555 45.4728 286.21 46.0764C285.877 46.6666 285.752 47.2261 284.958 47.1575C284.644 47.1293 284.336 47.0473 284.023 47.1183C283.718 47.1869 283.461 47.3803 283.195 47.5309C282.616 47.8566 281.934 48.1296 281.266 47.9509C280.567 47.7648 280.149 47.4771 279.424 47.7684C279.129 47.886 278.863 47.9974 278.538 47.9864C278.237 47.9766 277.945 47.8725 277.641 47.8835C277.037 47.9044 276.381 48.2618 275.808 48.4492C275.221 48.6438 274.783 48.9915 274.315 49.3858C274.625 49.5902 274.688 49.862 274.892 50.1436C275.078 50.3995 275.396 50.473 275.565 50.7521C275.901 51.3019 275.827 51.9728 275.719 52.5715C275.596 53.2473 275.375 53.6428 274.874 54.1325C274.54 54.457 274.273 54.8218 273.964 55.1646C273.681 55.478 273.268 55.7033 273.038 56.0621C272.822 56.4 272.796 56.8175 272.391 56.9999C272.263 57.0562 272.138 57.0929 272.015 57.1272C271.764 57.1958 271.522 57.2484 271.283 57.4235C270.981 57.6476 270.649 57.879 270.424 58.1838C270.145 58.5597 270.033 58.9502 269.544 59.0935C269.226 59.1853 268.908 59.2159 268.607 59.309C268.431 59.3653 268.259 59.4412 268.096 59.5673C267.756 59.8293 267.515 60.2101 267.202 60.5027C266.873 60.8112 266.45 60.9986 266.133 61.3071C265.847 61.585 265.737 62.0135 265.394 62.2302C264.982 62.491 264.516 62.4959 264.236 62.955C263.943 63.435 263.94 63.9896 263.5 64.3961C263.117 64.7487 262.698 64.8148 262.203 64.7621C261.785 64.7168 261.254 64.6054 260.852 64.7842C260.447 64.9629 260.338 65.4784 259.949 65.6706C259.577 65.8555 259.098 65.5775 258.703 65.5873C258.309 65.5947 257.931 65.6131 257.538 65.6082C257.316 65.6057 256.391 65.9816 256.258 65.82C256.022 65.531 257.115 65.1148 257.272 65.0572C256.809 65.0915 255.76 65.2494 255.582 64.6789C255.07 64.8491 254.858 64.5969 254.393 64.4646C254.083 64.3765 253.626 64.472 253.437 64.1953C253.403 64.1463 253.377 64.0839 253.362 64.008C253.215 63.2109 254.311 62.7102 254.398 61.9707C254.443 61.5777 254.22 61.1944 254.257 60.7953C254.283 60.4782 254.463 60.2284 254.642 59.975C255.04 59.4057 255.589 58.949 256.071 58.4507C256.447 58.0602 256.577 57.5264 256.743 57.0268C256.82 56.7893 256.901 56.5824 256.934 56.3375C256.964 56.0963 256.961 55.8968 257.135 55.6997C257.279 55.538 257.482 55.4083 257.596 55.221C257.804 54.8708 257.708 54.3602 257.556 54.0101C257.382 53.6073 257.522 53.1567 257.289 52.7662C257.05 52.3658 256.768 52.1295 256.781 51.6324C256.793 51.1537 256.863 50.7399 256.621 50.2979C256.408 49.911 256.021 49.6307 255.869 49.2058C255.713 48.7687 255.801 48.2851 255.561 47.8689C255.385 47.564 255.013 47.2702 254.682 47.1526C254.176 46.9726 253.952 47.3681 253.574 47.613C253.208 47.8517 252.769 47.7733 252.353 47.7721C252.19 48.028 252.382 48.317 252.143 48.4945C252.065 48.552 251.94 48.5349 251.848 48.6243C251.762 48.7075 251.704 48.8385 251.665 48.9475C251.522 49.3687 251.308 50.3873 250.886 50.6126C250.307 50.9199 249.756 50.1179 249.503 49.7127C249.113 49.0846 249.373 48.7038 249.841 48.2349C250.306 47.7672 250.463 47.2934 250.702 46.7008C250.898 46.2209 251.378 45.9405 251.557 45.4679C251.813 44.797 251.401 43.9155 251.292 43.2458C251.196 42.6507 251.316 41.997 251.062 41.4374C250.979 41.2538 249.971 40.0344 250.034 39.9413C250.145 39.7773 250.888 40.4053 251.102 40.1127C251.372 39.7491 250.183 38.7415 249.971 38.537C249.466 38.0485 248.938 37.5624 248.235 37.4008C247.657 37.2674 247.085 37.3359 246.538 37.0715C245.986 36.807 245.59 36.6038 244.976 36.807C244.346 37.0164 244.215 36.8315 243.818 36.321C243.387 35.7663 242.925 35.5398 242.386 36.1079C242.061 36.4532 241.599 37.0225 241.817 37.5184C241.958 37.8404 242.813 38.4354 242.666 38.8149C242.52 39.1835 241.401 39.0769 241.07 39.2973C240.554 39.6377 240.792 40.2633 240.863 40.7653C240.942 41.3248 240.841 41.8598 240.827 42.4169C240.815 42.854 240.901 43.3082 240.728 43.7367C240.625 43.5225 240.526 43.3082 240.418 43.1001C240.293 42.8516 240.16 42.4573 239.91 42.7573C239.738 42.963 239.732 43.8371 239.477 43.924C239.261 43.9963 239.407 43.1564 239.432 43.0291C239.506 42.6814 239.691 42.4047 239.796 42.0753C239.896 41.7594 239.953 40.1482 239.466 40.2352C239.184 40.2866 238.973 40.8216 238.903 41.0469C238.798 41.3909 238.85 41.8231 238.671 42.139C238.508 42.4243 238.233 42.3985 237.981 42.5516C237.668 42.7426 237.642 43.1013 237.566 43.4319C237.393 44.1824 236.848 44.5778 236.893 45.392C236.938 46.227 236.911 46.9653 236.726 47.7844C236.585 48.421 235.932 48.9561 236.065 49.6196C236.134 49.982 236.377 50.2942 236.427 50.6579C236.472 51.0007 236.301 51.2872 236.175 51.5933C235.884 52.3058 235.949 52.8727 236.453 53.4542C236.494 53.9721 236.573 54.2733 236.994 54.5843C237.485 54.9455 237.521 55.3152 237.646 55.8772C237.723 56.2237 237.839 56.6497 238.011 56.9595C238.244 57.377 238.474 57.53 238.332 58.0504C238.077 58.9796 238.272 59.9677 238.037 60.9043C237.802 61.8323 237.432 62.6783 237.31 63.6382C237.225 64.3018 236.904 65.0572 236.433 65.5898C236.327 65.7098 236.214 65.8163 236.094 65.9106C235.851 66.0967 235.609 66.2815 235.351 66.4468C234.386 67.07 232.928 67.5463 232.067 66.5044C231.766 66.1444 231.591 65.6988 231.412 65.2654C231.372 65.1674 231.33 65.0731 231.29 64.9788C231.062 64.4671 230.768 63.9896 230.531 63.4827C230.183 62.742 230.123 62.0074 230.112 61.2581C230.103 60.6925 230.124 60.1195 230.074 59.5318C229.951 58.1434 229.02 56.9889 229.119 55.5491C229.165 54.9038 229.422 54.3358 229.623 53.7334C229.818 53.1543 229.859 52.5703 229.886 51.9642C229.944 50.6248 230.401 49.3907 230.536 48.066C230.606 47.3669 230.59 46.6421 230.792 45.965C230.977 45.348 231.39 44.8839 231.725 44.3501C232.135 43.6963 232.355 42.9519 232.383 42.1794C232.389 41.9602 232.43 40.9134 232.009 41.0518C231.633 41.1742 231.331 42.2908 231.175 42.6079C230.885 43.1931 230.535 43.7245 230.138 44.2424C229.385 45.2353 228.769 46.3188 228.021 47.3142C228.003 47.0877 228.077 46.9163 228.108 46.7057C228.136 46.5001 228.079 46.3286 228.085 46.1327C228.102 45.359 228.562 44.8068 228.927 44.1701C229.378 43.3902 229.402 42.5112 229.749 41.7154C229.782 41.6407 229.817 41.5672 229.852 41.4913C230.171 40.8155 230.596 40.0944 230.635 39.3659C230.648 39.1431 230.634 38.8614 230.749 38.6717C230.898 38.428 231.187 38.3154 231.313 38.0571C231.456 37.7645 231.329 36.9197 231.939 37.0641C231.986 37.6837 232.395 37.4229 232.844 37.3335C233.404 37.2233 233.335 36.5377 233.533 36.1104C233.633 35.8888 233.99 35.7223 234.142 36.0149C234.28 36.2757 233.916 36.6356 233.832 36.8658C233.763 37.0507 233.609 37.6298 233.811 37.7755C234.05 37.9481 234.302 37.549 234.424 37.3984C234.596 37.1829 234.818 37.009 234.974 36.7801C235.148 36.523 235.257 36.2463 235.466 36.01C235.908 35.5104 236.469 35.4382 237.108 35.3782C237.425 35.3476 237.738 35.3378 237.98 35.1089C238.195 34.9056 238.359 34.7648 238.609 34.5959C238.832 34.4453 238.956 34.1527 239.205 34.0498C239.493 33.9274 239.883 34.0756 240.186 34.0707C240.526 34.0633 240.7 34.0878 241.006 34.2225C241.312 34.3535 241.631 34.3412 241.952 34.4159C242.211 34.4771 242.568 34.5628 242.782 34.7244C243.02 34.9032 243.08 35.268 243.409 35.3268C244.345 35.4884 243.231 34.0743 244.001 34.0351C244.239 34.1919 244.401 34.0106 244.598 33.8907C244.917 33.6984 245.127 33.7744 245.476 33.7854C246.261 33.8086 246.015 33.0851 245.546 32.8022C245.296 32.6516 245.047 32.5353 244.907 32.2635C244.785 32.026 244.804 31.7432 244.704 31.4971C244.305 30.5201 242.344 30.9413 241.529 30.9927C241.529 30.9731 241.534 30.9547 241.545 30.9376C241.278 30.8849 240.99 30.7711 240.85 30.5213C240.678 30.2091 240.852 29.8896 240.843 29.5627C240.827 28.9444 240.081 28.975 239.611 29.068C239.065 29.1782 238.73 29.5651 238.137 29.5896C237.611 29.6116 237.043 29.4561 236.527 29.5333C235.941 29.6214 235.713 30.214 235.257 30.5213C235.018 30.5923 234.855 30.8286 234.633 30.94C234.351 31.0821 234.131 31.1261 233.919 31.3857C233.712 31.6355 233.53 31.7248 233.197 31.8007C232.91 31.8656 232.657 31.7824 232.48 32.0554C232.447 32.2758 232.343 32.6247 232.073 32.5819C231.793 32.5353 231.789 32.0395 231.627 31.8632C231.273 31.4763 230.416 31.8816 230.25 31.2804C229.972 31.3441 229.738 31.0429 229.515 30.8947C229.319 30.7637 228.991 30.5262 228.754 30.4858C228.429 30.4307 228.261 30.7992 228.016 30.3879C227.917 30.2226 228.017 30.094 227.772 30.1246C227.592 30.1467 227.558 30.356 227.435 30.3842C227.499 30.5568 226.9 30.607 226.745 30.5458V30.454C227.004 30.3683 226.99 30.263 226.875 30.0806C226.829 30.0034 226.664 29.6998 226.607 29.6484C226.221 29.3104 226.064 30.1822 225.711 29.9606C225.702 29.7022 225.825 28.9089 225.433 28.8428C225.114 28.7901 224.967 29.3374 224.748 29.4562C224.645 29.6422 224.544 29.8541 224.399 30.012C224.146 30.2924 223.933 30.2177 223.832 29.8577C223.71 29.4206 223.838 28.8856 224.086 28.5134C224.324 28.1535 224.679 27.9747 225.025 27.7384C225.328 27.5278 225.501 27.2707 225.669 26.9451C225.88 26.5361 226.097 26.1578 226.438 25.8407C226.718 25.5799 227.194 25.4012 227.421 25.0988C227.884 24.4805 226.173 24.778 225.931 24.8747C225.212 25.1636 224.653 25.8138 224.083 26.3207C223.342 26.9842 222.73 27.7947 221.957 28.4216C221.342 28.9211 220.733 29.3239 220.177 29.903C219.535 30.5703 218.941 30.4981 218.084 30.5899C217.229 30.6805 216.812 31.2694 216.169 31.742C215.725 32.064 215.186 32.3027 214.684 32.5231C214.673 32.5268 214.662 32.5317 214.654 32.5353C214.155 32.7337 214.026 32.2648 213.617 32.0162C212.997 31.6355 213.054 32.49 212.537 32.4423C212.346 32.7974 212.259 33.0165 211.797 32.8328C211.672 32.7851 211.438 32.7043 211.432 32.5353C211.421 32.2599 211.662 32.408 211.823 32.3027C212.244 32.0321 211.889 31.6808 211.891 31.3135C211.895 30.9266 212.232 30.7086 212.155 30.2838C211.38 30.3781 210.612 30.4834 209.941 30.9009C209.325 31.2829 208.817 31.7334 208.107 31.9403C207.651 32.0738 206.588 32.1876 206.153 31.9709H206.152C205.888 31.8375 205.86 31.5828 206.352 31.1347C207.412 30.1699 208.414 29.1146 209.505 28.1902C210.026 27.7494 210.575 27.3454 211.057 26.8569C211.566 26.3378 211.988 25.7428 212.483 25.2126C213.663 23.9503 215.384 23.7459 216.687 22.7309C217.229 22.3085 216.542 21.9363 216.172 21.7759C215.83 21.629 215.539 21.3364 215.157 21.318C214.626 21.2911 214.508 21.4747 214.026 21.1282C213.507 20.7585 213.396 21.1381 212.862 21.0622C212.645 21.034 212.521 20.7989 212.33 20.7646C212.087 20.7206 212.131 20.8075 211.944 20.9324C211.553 21.1968 211.52 21.0401 211.074 20.9666C210.657 20.9005 210.547 21.1613 210.191 21.2433C209.849 21.3229 209.537 21.0989 209.257 21.405C209.076 21.6009 209.032 21.858 208.813 22.0477C208.452 22.3648 208.425 22.1983 208.043 22.0441C207.741 21.9241 207.393 21.9669 207.087 21.8457C206.804 21.7331 206.558 21.5139 206.293 21.3584C205.816 21.0768 205.068 20.4145 204.513 20.6006C204.195 20.7083 204.086 20.9605 203.791 20.6251C203.574 20.3802 203.543 19.9921 203.307 19.7386C203.038 19.4558 202.816 19.5109 202.467 19.4093C202.109 19.3065 202.034 19.0677 201.748 18.8816C201.432 18.6735 201.1 18.8228 200.759 18.7139C200.296 18.5633 199.976 18.2523 199.46 18.3086C199.004 18.3564 198.521 18.5621 198.128 18.7886C197.922 18.9061 197.781 19.2171 197.504 19.1595C197.412 18.7433 197.138 18.5278 196.784 18.3454C196.386 18.1397 196.07 17.6548 195.612 17.5948C195.144 17.5324 194.873 17.907 194.467 17.4969C194.114 17.1394 193.569 17.3977 193.197 17.3047C192.699 17.1786 192.816 16.7341 192.628 16.3191C192.376 15.7718 191.854 15.9163 191.379 16.1134C190.934 16.2983 190.891 16.8039 190.537 17.0047C190.032 17.2937 190.096 16.6693 190.055 16.3681C189.989 15.8881 189.827 15.9542 189.391 15.9604C188.956 15.9665 188.515 15.9567 188.077 15.953C187.421 15.9469 186.762 15.9457 186.105 15.953C184.311 15.9751 182.526 15.9873 180.755 15.9885C169.261 15.9934 158.213 15.5576 147.782 14.8193C125.677 13.2595 106.338 10.3627 91.3886 7.54309C89.3958 7.166 87.479 6.79136 85.6443 6.42039C68.7558 3.01308 58.8127 0 58.8127 0C58.6056 0.20079 58.7061 0.324443 58.8617 0.52156C59.0002 0.696639 59.0823 0.765201 58.9475 0.950075C58.8201 1.11903 58.7404 1.24881 58.8973 1.43981C59.1792 1.78262 59.6951 1.89159 60.0934 2.00056C60.1412 2.11075 60.3337 2.24909 60.3435 2.36296C60.3557 2.49886 60.1204 2.66659 60.0959 2.81106C60.0665 2.99471 60.2148 2.98614 60.281 3.14653C60.3496 3.30569 60.2577 3.51872 60.2552 3.69135C59.8397 3.65585 59.5199 3.39384 59.086 3.47097C58.7036 3.54076 58.2563 3.7893 58.0688 4.13945C57.9291 4.40024 57.8862 4.99894 58.1546 5.2034C58.5088 5.47031 58.7024 5.02588 58.7735 4.76754C58.8078 4.64389 58.874 4.37576 59.0345 4.35127C59.1865 4.32311 59.2184 4.47369 59.2147 4.5998C59.2135 4.7761 59.1167 4.93771 59.0076 5.07116C58.9144 5.18625 58.6926 5.3295 58.6619 5.4801C58.6043 5.74088 59.1951 5.80454 59.3532 5.99553C59.5199 6.2 59.6473 6.71544 59.2294 6.68606C58.934 6.66402 58.7661 6.27468 58.5835 6.08736C58.3458 5.83637 58.1264 5.54988 57.7587 5.53519C57.7661 5.6613 58.0087 5.87922 58.0921 5.99553C58.2158 6.16939 58.3629 6.32856 58.4941 6.49629C58.7747 6.86848 58.9426 7.21743 58.8078 7.68635C58.6644 7.69737 58.3752 7.39739 58.2869 7.27496C58.1129 7.03499 58.1153 6.73014 57.9867 6.47792C57.88 6.67994 57.8751 6.76441 57.7036 6.54036C57.5798 6.37752 57.4646 6.18898 57.2268 6.22081C56.6974 6.28815 57.1104 7.11457 56.7206 7.16355C56.5368 7.16355 56.5368 6.86358 56.5589 6.7485C56.5589 6.54158 56.5822 6.40569 56.4216 6.24408C56.1005 5.94412 55.6862 5.94413 55.2732 5.87556C54.9043 5.83026 54.5599 5.64783 54.2156 5.48622C53.8258 5.30257 53.4581 5.21074 53.066 5.09565C52.6309 4.95975 52.3318 4.6145 52.0083 4.33903C51.6431 4.04029 51.2987 3.71952 50.9531 3.42078C50.4812 3.01063 50.1736 2.43519 49.692 2.03361C49.399 1.78997 48.7041 1.59652 48.5509 2.13155C48.459 2.45478 48.562 2.82329 48.4382 3.16733C48.3266 3.48566 48.2298 3.76727 48.1649 4.10029C48.0717 4.5741 47.9614 5.06505 48.0068 5.55234C48.0472 6.00166 48.2531 6.43507 48.3659 6.87093C48.5705 7.67531 48.4541 8.68416 48.5595 9.51548C48.6551 10.2501 48.6968 10.9994 48.6502 11.7438C48.6183 12.231 48.6048 12.7453 48.5754 13.2313C48.557 13.5692 48.6404 14.0296 48.5044 14.3455C48.3941 14.6038 48.1685 14.7997 48.0423 15.0593C47.9246 15.2992 47.8879 15.6384 47.6967 15.8257C47.8058 16.2909 47.7629 16.5505 48.095 16.9092C48.4198 17.2557 48.5865 17.1908 49.0203 17.2802C49.4554 17.3708 49.5204 17.6144 49.7802 17.9266C49.8978 18.0674 50.0805 18.1703 50.2447 18.2805C50.2447 18.2805 50.2459 18.2805 50.2483 18.2817C50.3881 18.3772 50.5155 18.48 50.5805 18.6159C50.1797 18.6551 49.7753 18.6159 49.3745 18.6147C48.9823 18.6098 48.7372 18.376 48.3965 18.3392C47.9492 18.2964 47.9663 18.7469 47.8291 19.0702C47.6943 19.3885 47.4124 19.5685 47.2604 19.8758C46.9123 20.5834 46.9001 21.6204 46.7898 22.3967C46.6758 23.1962 46.3008 23.7214 46.025 24.4523C45.7296 25.2334 45.5936 26.0917 45.2259 26.8422C44.9097 27.4874 44.5359 28.0641 44.3496 28.7693C44.1585 29.4782 44.1352 30.2826 43.7099 30.8984C43.2221 31.6097 43.0542 32.2231 42.8373 33.0581C42.6534 33.7646 42.2478 34.3424 41.9254 34.9864C41.6509 35.5362 41.2146 35.9867 40.9744 36.5487C40.7477 37.0849 40.5332 37.6665 40.179 38.1354C39.8383 38.5872 39.5491 39.1222 39.2635 39.6107C38.9755 40.0944 38.4374 40.5069 38.2548 41.0334C38.0477 41.626 38.2438 42.4071 38.2021 43.0328C38.1507 43.76 37.9325 44.497 38.0257 45.2243C38.1016 45.8046 38.3063 46.3617 38.3872 46.9384C38.3958 47.0118 38.4019 47.0828 38.4068 47.1563C38.4411 47.7795 38.2781 48.4296 38.3137 49.0613C38.3357 49.4274 38.435 49.8216 38.3725 50.1877C38.321 50.4803 38.1359 50.6873 38.0342 50.9554C37.8148 51.5333 37.9276 52.1675 37.6457 52.7343C37.4889 53.0502 37.3075 53.2987 37.2572 53.6575C37.2131 53.9782 37.294 54.206 37.0354 54.441C36.8479 54.6124 36.5108 54.5794 36.5219 54.8843C36.5329 55.1352 36.9288 55.2454 36.7939 55.5491C36.604 55.98 35.6554 55.7854 35.3233 56.2016C35.0389 56.5579 34.708 57.3978 34.6639 57.8496C34.61 58.4042 35.0818 58.9906 35.2779 59.4926C35.5328 60.1489 35.5365 60.8847 35.8748 61.5005C36.2302 62.1482 36.4214 62.5167 36.3736 63.2746C36.327 63.9675 36.3221 64.6262 36.153 65.3008C36.012 65.8653 35.5169 66.4407 35.6468 67.0198C35.7767 67.6026 36.0525 68.178 36.0439 68.7951C36.0414 69.1967 35.7069 69.384 35.6039 69.7317C35.5132 70.0353 35.6542 70.2251 35.7878 70.4908C36.1567 71.2315 36.5243 71.9869 36.8136 72.7619C36.9484 73.1317 37.2205 73.5198 37.4313 73.8565C37.707 74.3058 37.7536 74.5482 37.7572 75.0759C37.7597 75.5571 37.729 75.8276 37.4288 76.217C37.2008 76.5157 36.7302 76.7385 37.2486 77.0312C37.6359 77.2515 37.8724 77.2258 38.1519 77.6286C38.245 77.7621 38.3406 78.0216 38.511 78.0694C38.7193 78.1269 38.8137 77.8698 38.9865 78.062C39.1042 78.1918 38.9632 78.4795 39.0944 78.6399C39.2169 78.793 39.4669 78.7268 39.5723 78.8676C39.7807 79.1456 39.3578 79.6218 39.3223 79.9095C39.2941 80.1299 39.3628 80.3295 39.1936 80.5107C39.0564 80.6601 38.8639 80.5866 38.7769 80.807C38.6274 81.1902 39.1642 81.451 39.1752 81.8122C39.2059 82.7916 38.663 83.4283 39.3432 84.3184C39.5711 84.6171 39.6888 84.9807 39.9927 85.2305C40.331 85.5133 40.6901 85.6308 40.9842 85.9737C41.2845 86.3275 41.3776 86.5197 41.3347 86.996C41.3114 87.2555 41.2796 87.9546 40.8506 87.7918C40.7991 87.5616 40.7134 87.1551 40.3898 87.2543C40.3923 87.6951 40.315 88.2791 40.1876 88.7002C40.0466 89.163 39.7991 89.4569 39.9253 89.965C40.1631 90.9371 40.8151 91.5542 41.2158 92.4283C41.3825 92.7834 41.6497 93.1299 41.624 93.54C41.5921 94.0383 41.2906 94.3224 41.798 94.6627C42.2551 94.9688 42.189 95.0349 42.3569 95.5577C42.4843 95.9568 42.8471 95.9862 42.9745 96.4013C43.0419 96.6168 43.0248 96.8004 43.2123 96.9571C43.3532 97.0734 43.553 97.0685 43.6952 97.1946C44.0567 97.5215 44.5273 98.7042 44.2859 99.178C44.2455 99.254 44.1413 99.2638 44.0947 99.3348C44.0518 99.4058 44.0555 99.5074 44.0212 99.5845C43.944 99.7767 43.8263 99.9494 43.7932 100.158C43.9648 100.02 44.1143 99.6066 44.3754 99.6592C44.3643 99.729 44.3987 99.8208 44.3864 99.8894C44.6193 99.8918 44.8313 99.9653 44.9649 100.162C45.2982 100.653 44.7529 101.108 44.7234 101.6C44.7087 101.852 44.7737 102.094 44.7063 102.34C44.6462 102.566 44.5188 102.752 44.4808 102.987C44.444 103.224 44.5028 103.493 44.3705 103.707C44.2455 103.914 43.9526 103.971 43.8398 104.178C43.5996 104.619 44.3741 104.951 44.6474 105.17C45.0813 105.514 45.4747 105.739 46.0262 105.841C46.5067 105.929 47.1256 105.876 47.5582 106.118C48.0251 106.376 48.1857 106.826 48.7764 106.859C49.3328 106.891 49.7655 107.086 50.3011 107.241C50.9727 107.434 51.0364 107.84 51.431 108.356C51.5891 108.564 51.811 108.712 51.9654 108.922C52.1554 109.182 52.2166 109.504 52.3833 109.773C52.6223 110.168 53.2559 110.375 53.6567 110.586C54.1555 110.85 54.6555 110.558 55.1176 110.952C55.5073 111.289 55.9963 111.655 55.9338 112.202C55.8774 112.68 55.837 113.374 56.5184 113.394C57.0123 113.406 57.3751 112.857 57.7305 113.455C58.005 113.92 58.0626 114.349 58.483 114.731C58.896 115.108 59.439 115.32 59.7405 115.808C60.1057 116.399 60.4991 117.122 60.6989 117.788C61.0935 119.109 61.0065 120.415 60.8962 121.753C61.1805 121.626 61.2001 121.349 61.5531 121.331C61.8681 121.315 62.2235 121.545 61.9392 121.871C61.7124 122.132 61.3141 121.955 61.1891 122.351C61.1364 122.514 61.1965 122.877 61.2381 123.046C61.3178 123.371 61.3484 123.283 61.5948 123.273C61.7651 123.266 61.8509 123.3 62.0237 123.335C62.4318 123.42 62.9172 123.416 63.3388 123.458C64.5876 123.581 65.8487 123.706 67.1001 123.793C68.5095 123.895 69.9177 124.054 71.3234 124.187C72.4718 124.295 73.6189 124.399 74.7661 124.516C75.2048 124.56 75.6411 124.598 76.0774 124.64C76.1166 124.643 76.1546 124.647 76.1939 124.65L75.1938 126.566V126.59L96.3106 138.456V138.481L112.717 140.478V140.453L112.923 136.873C112.923 136.873 112.923 136.873 112.923 136.851L123.507 137.961L123.531 138.054H123.536L123.741 138.076L123.768 138.077C123.787 138.123 123.804 138.169 123.82 138.215C123.841 138.268 123.86 138.325 123.885 138.377C123.947 138.363 124.002 138.36 124.031 138.407C124.191 138.68 124.371 138.834 124.634 138.993C124.961 139.194 124.848 139.432 124.993 139.732C125.234 140.232 125.924 140.378 125.965 140.984C125.987 141.307 126.082 141.442 126.365 141.573C126.69 141.722 126.934 141.97 127.184 142.223C127.56 142.603 127.813 143.062 128.097 143.507C128.238 143.727 128.448 143.848 128.672 143.969C128.962 144.124 129.11 144.348 129.174 144.67C129.235 144.959 129.258 145.208 129.498 145.389C129.705 145.547 130.057 145.684 130.2 145.898C130.353 146.131 130.421 146.419 130.591 146.649C130.687 146.776 130.79 146.828 130.898 146.842C130.985 146.831 131.075 146.811 131.171 146.791C131.242 146.776 131.301 146.776 131.35 146.784C131.773 146.716 131.765 147.156 131.986 147.376C132.164 147.551 132.46 147.602 132.575 147.835C132.709 148.103 132.593 148.531 132.588 148.82C132.583 149.144 132.533 149.514 132.637 149.822C132.851 150.454 133.346 150.972 133.555 151.619C133.794 152.358 133.861 153.162 134.243 153.852C134.566 154.43 134.982 154.973 135.342 155.532C135.733 156.149 136.29 156.62 136.823 157.108C137.12 157.378 137.42 157.65 137.769 157.85C138.104 158.04 138.472 158.144 138.828 158.279C139.206 158.423 139.56 158.608 139.864 158.878C140.135 159.119 140.347 159.419 140.618 159.661C141.032 160.033 141.686 160.277 142.298 160.292C142.478 160.284 142.652 160.255 142.811 160.205C143.55 159.962 143.586 159.002 143.995 158.448C144.227 158.131 144.535 157.882 144.783 157.58C145.024 157.285 145.172 156.953 145.294 156.594C145.544 155.858 145.879 155.341 146.536 154.901C147.121 154.512 147.713 154.327 148.405 154.246C148.455 154.204 148.539 154.15 148.605 154.165C148.622 154.169 148.637 154.174 148.65 154.182C148.686 154.165 148.724 154.157 148.757 154.163C148.927 154.201 148.969 154.487 149.154 154.55C149.171 154.553 149.189 154.558 149.207 154.562C149.35 154.54 149.495 154.472 149.639 154.479C149.658 154.481 149.672 154.482 149.689 154.486C149.723 154.479 149.757 154.477 149.79 154.479C149.944 154.487 150.078 154.539 150.226 154.553C150.231 154.552 150.236 154.552 150.24 154.551C150.393 154.529 150.539 154.453 150.686 154.481C150.767 154.469 150.846 154.47 150.927 154.513C151.08 154.597 151.159 154.764 151.339 154.829C151.383 154.846 151.427 154.854 151.471 154.859C151.473 154.861 151.474 154.859 151.474 154.859C151.558 154.848 151.642 154.825 151.728 154.797C151.913 154.738 152.127 154.625 152.328 154.655C152.402 154.644 152.475 154.645 152.545 154.668C152.712 154.723 152.801 154.891 152.969 154.946C153.142 155.004 153.338 154.946 153.506 155.022C153.657 155.091 153.771 155.251 153.858 155.386C154.089 155.742 154.07 156.248 154.575 156.304C155.034 156.353 155.331 156.442 155.605 156.839C155.816 157.145 156.009 157.465 156.316 157.684C156.457 157.782 156.619 157.843 156.71 157.997C156.799 158.152 156.781 158.344 156.854 158.507C156.949 158.725 157.137 158.906 157.342 159.02C157.533 159.125 157.772 159.114 157.935 159.274C158.135 159.465 158.078 159.731 158.102 159.97C158.129 160.265 158.505 160.201 158.56 160.544C158.588 160.723 158.604 160.729 158.71 160.881C158.783 160.985 158.82 161.112 158.832 161.238C158.86 161.539 158.911 161.776 159.017 162.066C159.163 162.46 159.544 162.729 159.782 163.067C159.961 163.322 160.028 163.597 160.085 163.899C160.147 164.213 160.304 164.486 160.401 164.794C160.508 165.139 160.743 165.28 160.928 165.569C161.009 165.696 160.994 165.832 161.037 165.96C161.101 166.161 161.282 166.268 161.417 166.417C161.651 166.674 162.01 166.782 162.214 167.078C162.389 167.337 162.205 167.553 162.498 167.776C162.598 167.854 162.712 167.879 162.79 167.991C162.868 168.1 162.888 168.251 162.934 168.373C163.034 168.624 163.284 168.786 163.416 169.032C163.541 169.262 163.635 169.549 163.714 169.802C163.815 170.139 163.942 170.211 164.225 170.396C164.493 170.57 164.719 170.67 164.922 170.925C165.108 171.158 165.23 171.41 165.377 171.668C165.513 171.909 165.708 172.12 165.784 172.391C165.86 172.662 165.85 172.964 165.867 173.243C165.882 173.456 165.841 173.675 165.872 173.885C165.89 174.019 165.965 174.135 165.96 174.271C165.947 174.649 165.632 174.767 165.982 175.085C166.169 175.255 166.057 175.448 166.184 175.637C166.306 175.817 166.517 175.917 166.642 176.09C166.772 176.272 166.746 176.483 166.78 176.692C166.822 176.938 167.008 176.982 167.205 177.115C167.633 177.404 167.736 177.889 167.702 178.382C167.687 178.576 167.605 178.75 167.583 178.938C167.558 179.137 167.637 179.314 167.739 179.478C167.777 179.493 167.813 179.506 167.853 179.519C167.866 179.506 167.881 179.494 167.889 179.481C168.051 179.544 168.237 179.58 168.387 179.675C168.538 179.776 168.664 179.923 168.81 180.032C168.97 180.15 169.15 180.216 169.315 180.321C169.445 180.403 169.545 180.526 169.672 180.611C170.028 180.848 170.53 180.974 170.804 181.305C170.88 181.399 170.936 181.47 171.023 181.496C171.038 181.492 171.05 181.49 171.065 181.485C171.201 181.446 171.376 181.359 171.505 181.296C171.69 181.212 171.76 181.116 171.973 181.082C172.136 181.056 172.284 181.034 172.44 181.047C172.488 181.05 172.537 181.056 172.587 181.067C172.751 181.103 172.901 181.137 173.02 181.26C173.13 181.377 173.174 181.479 173.331 181.551C173.478 181.621 173.553 181.629 173.626 181.759C173.661 181.788 173.692 181.828 173.723 181.89C173.727 181.896 173.729 181.904 173.733 181.91C173.773 181.995 173.798 182.08 173.844 182.156C173.873 182.197 173.903 182.239 173.95 182.275C173.953 182.278 173.96 182.281 173.964 182.284C174.153 182.421 174.582 182.481 174.81 182.51C174.955 182.527 175.114 182.474 175.257 182.51C175.391 182.544 175.483 182.653 175.606 182.705C176.098 182.914 176.658 182.462 177.068 182.932C177.334 183.239 177.614 183.243 178.005 183.336C178.155 183.372 178.27 183.421 178.386 183.528C178.487 183.623 178.608 183.782 178.758 183.816C178.896 183.848 178.991 183.744 179.119 183.728C179.156 183.724 179.196 183.731 179.237 183.743C179.982 184.118 180.813 184.358 181.557 184.465C182.165 184.552 182.338 184.292 182.34 183.979C182.343 183.805 182.294 183.616 182.24 183.457C182.184 183.342 182.128 183.216 182.066 183.073C181.395 181.514 180.346 178.306 180.804 174.232L179.168 173.775C179.168 173.775 179.987 172.564 180.838 172.564C181.688 172.564 182.801 170.963 181.883 169.786C181.621 169.447 181.564 169.267 181.634 169.169C181.642 169.162 181.65 169.155 181.656 169.145C181.876 168.946 182.756 169.166 183.16 168.738C183.522 168.358 183.562 168.026 183.458 167.812C183.392 167.676 183.265 167.587 183.127 167.563C182.819 167.507 182.895 166.708 183.458 166.418C183.55 166.368 183.659 166.335 183.783 166.319C184.634 166.221 185.255 167.007 185.845 166.811C186.434 166.614 190.424 163.345 191.57 162.755C192.717 162.169 193.796 162.136 195.826 160.435C197.22 159.266 198.214 158.082 198.697 157.456C198.813 157.306 198.9 157.187 198.956 157.11C199.206 157.019 199.457 156.931 199.705 156.839C200.086 156.7 200.457 156.6 200.824 156.524C200.887 156.467 200.96 156.425 201.047 156.408C201.871 156.244 202.688 156.183 203.562 156.029C204.09 155.936 205.17 155.496 205.643 155.705C205.904 155.82 206.072 156.151 206.386 156.276C206.68 156.392 207.059 156.467 207.37 156.516C207.987 156.617 208.773 156.686 209.397 156.606C209.867 156.546 210.076 156.435 210.523 156.61C210.975 156.784 211.063 156.965 211.543 156.804C211.785 156.722 211.999 156.457 212.259 156.431C212.656 156.391 212.673 156.658 212.989 156.761C213.616 156.965 214.197 156.375 214.844 156.654C214.758 156.813 214.776 156.988 214.792 157.176C215.657 157.232 216.628 157.342 217.202 157.903C216.696 158.396 215.953 158.602 216.798 159.096C217.324 159.404 217.817 159.402 218.398 159.478C218.924 159.546 219.247 159.715 219.701 159.919C220.627 160.336 220.204 159.692 220.762 159.329C221.088 159.12 221.758 159.437 222.144 159.404C222.304 159.392 222.919 159.138 223.034 159.223C223.232 159.364 222.917 159.591 223.028 159.777C223.409 160.419 223.692 159.41 223.956 159.251C224.233 159.088 224.396 159.287 224.632 158.978C224.767 158.8 224.778 158.453 224.822 158.241C224.892 157.899 224.991 156.884 225.441 156.822C226.099 156.73 225.764 157.695 225.821 158.006C226.427 157.957 226.772 157.475 227.303 157.806C227.691 158.052 227.934 158.837 228.416 158.916C229.271 159.054 228.547 158.361 228.299 158.152C227.906 157.817 227.584 157.434 227.131 157.175C226.998 156.724 227.372 156.594 227.571 156.267C227.836 155.838 227.875 155.519 228.302 155.179C228.6 154.944 229.394 154.553 229.064 154.095C228.839 153.782 228.097 153.913 227.818 153.552C227.973 153.388 228.141 153.167 228.206 152.931C228.237 152.856 228.242 152.745 228.236 152.674C228.205 152.346 227.812 152.132 227.872 151.786C227.945 151.381 228.956 150.955 229.308 150.829C229.858 150.633 230.445 150.704 230.975 150.425C231.065 150.377 231.161 150.312 231.257 150.24V150.197H231.325V150.264C231.532 150.403 231.671 150.678 231.945 150.748C232.43 150.884 232.566 150.403 232.566 149.99C232.566 149.879 232.574 149.769 232.584 149.656C232.6 149.66 232.616 149.666 232.633 149.671C233.311 149.904 233.156 150.585 234.069 150.426C234.199 150.185 234.227 149.689 234.511 149.564C234.866 149.41 235.056 149.832 235.312 149.876C235.261 149.344 235.826 148.909 235.978 148.403C236.083 148.052 236.049 146.899 236.692 147.078C236.359 147.942 236.892 147.816 237.327 148.389C237.693 148.875 237.264 149.499 237.193 150.017C237.521 150.087 238.209 149.821 238.561 149.751C238.734 149.717 238.921 149.546 239.113 149.613C239.311 149.684 239.206 149.977 239.371 150.047C239.418 150.066 239.461 150.077 239.505 150.082C239.844 150.116 240.185 149.762 240.457 149.574C240.944 149.237 241.257 149.134 241.864 149.283C241.353 150.175 243.47 149.551 243.586 149.139C243.387 149.191 243.132 149.234 242.913 149.187C243.107 148.711 243.911 147.824 244.407 147.644C245.085 147.396 245.986 147.717 246.606 147.964C246.4 147.908 246.058 147.966 246.068 148.243C246.082 148.591 246.475 148.365 246.674 148.336C247.183 148.26 247.711 148.178 248.22 148.166C248.796 148.15 249.072 148.374 249.52 148.697C249.824 148.915 250.417 149.709 250.683 149.74C250.783 149.21 250.349 148.785 250.539 148.258C250.841 148.784 251.879 149.28 251.786 149.946C251.647 149.95 251.589 150.027 251.46 150.042C251.553 150.278 252.132 150.713 252.351 150.831C252.652 150.995 253.266 150.946 253.457 151.303C253.628 151.628 253.366 152.196 253.533 152.561C253.777 152.567 253.934 152.365 254.089 152.171C254.625 152.451 255.197 151.199 255.869 151.644C256.257 151.905 255.842 152.402 256.437 152.359C256.843 152.332 256.999 151.905 256.978 151.549C257.748 151.911 257.73 151.692 257.962 151.022C258.195 150.349 258.598 150.409 259.23 150.361C259.235 150.046 258.9 150.122 258.89 149.829C258.887 149.701 259.178 149.444 259.268 149.349C259.544 149.068 260.115 149.008 260.292 148.727C261.472 149.176 262.574 149.923 263.708 150.479C264.249 150.744 264.748 151.097 265.118 151.588C265.409 151.976 265.418 152.434 265.823 152.718C266.021 152.856 266.222 152.816 266.4 153.017C266.591 153.225 266.562 153.586 266.763 153.793C267.204 154.251 267.874 153.886 268.42 154.101C269.16 154.392 269.644 155.568 270.152 156.156C270.789 156.895 270.728 157.656 270.633 158.568C270.53 159.536 269.623 160.315 270.062 161.365C270.247 161.81 270.343 161.891 270.24 162.454C270.157 162.922 270.065 163.19 270.301 163.624C270.389 163.786 270.772 164.361 270.97 164.415C271.524 164.566 271.356 163.994 271.383 163.604C271.947 163.721 271.788 162.842 272.466 162.982C272.556 163.661 272.466 164.576 272.159 165.176C271.782 165.921 271.734 166.21 272.429 166.776C272.999 167.24 272.962 167.633 273.353 168.212C273.946 169.092 274.272 171.234 275.777 170.74C275.436 170.067 275.732 168.834 276.125 170.007C276.288 170.492 276.169 172.092 276.944 172.05C276.979 171.848 277.102 171.241 277.44 171.372C277.738 171.483 277.533 172.034 277.5 172.268C277.487 172.37 277.403 172.604 277.423 172.699C277.459 172.879 277.645 172.913 277.679 173.048C277.755 173.347 277.667 173.666 277.766 173.97C278.087 174.96 278.962 175.618 279.575 176.421C280.222 177.266 280.943 177.197 282.004 177.175C283.035 177.157 283.393 177.371 283.976 178.196C284.644 179.145 284.781 179.437 285.888 179.001C287.316 178.441 287.009 179.761 285.976 180.123C285.48 180.297 283.567 180.084 283.58 180.961C283.595 181.855 285.327 181.451 285.764 181.282C286.637 180.938 287.536 180.824 288.403 180.518C290.213 179.877 289.342 176.257 289.864 174.753C290.143 175.055 290.265 176.258 290.489 175.322C290.63 174.734 290.374 173.91 290.254 173.342C290.13 172.753 290.145 172.182 290.11 171.585C290.076 170.945 289.872 170.358 289.728 169.735C289.459 168.587 288.977 167.442 288.613 166.312C288.264 165.229 287.912 163.902 287.258 162.98C286.897 162.469 286.448 162 285.953 161.609C285.522 161.267 284.86 161.091 284.878 160.429C285.463 160.833 286.031 161.856 286.655 162.093C287.392 162.371 286.788 161.572 286.669 161.199C286.485 160.622 286.531 160.265 286.089 159.82C285.327 159.054 285.02 157.925 284.552 156.975C284.17 156.194 283.409 155.372 282.796 154.73C282.389 154.297 281.933 154.147 281.573 153.673C281.206 153.191 280.868 152.941 280.617 152.379C281.074 152.374 282.222 152.949 282.128 152.117C282.064 151.566 281.2 151.323 280.82 151.046C280.136 150.545 279 149.829 278.634 149.036C278.417 148.571 278.346 147.906 278.189 147.403C278.024 146.872 277.911 146.325 277.749 145.793C277.444 144.794 277.142 143.629 276.695 142.683C276.499 142.272 276.163 141.95 275.951 141.552C275.904 141.465 275.862 141.376 275.831 141.279C275.63 140.687 275.8 140.143 275.981 139.57C275.825 139.57 275.444 139.571 275.31 139.474C274.942 139.21 275.157 139.252 275.385 139.02C275.716 138.687 276.058 138.583 276.103 138.042C276.15 137.511 275.711 137.458 275.657 137.059C275.605 136.689 276.082 136.4 276.392 136.312C276.409 136.065 276.222 135.882 276.21 135.645C276.626 135.399 276.916 134.674 276.729 134.309C276.591 134.037 276.244 134.135 276.487 133.7C276.706 133.304 276.972 133.523 277.273 133.494C277.667 133.457 277.751 133.464 277.982 133.152C278.05 133.059 278.02 132.892 278.108 132.786C278.202 132.672 278.37 132.684 278.468 132.584C278.487 132.567 278.504 132.548 278.521 132.528C278.707 132.326 278.874 132.065 278.956 131.78C279.037 131.509 278.89 131.115 279.22 131.008C279.361 130.52 278.35 129.949 278.873 129.579C278.939 129.949 279.564 130.478 279.875 130.02C280.163 129.598 279.396 129.412 279.585 128.945C279.761 128.508 280.27 128.791 280.589 128.529C280.856 128.311 280.924 127.787 281.024 127.46C281.013 127.611 281.076 127.764 281.102 127.909C281.78 127.917 282.524 127.38 282.513 126.812C282.508 126.439 282.209 126.198 282.744 126.053C283.127 125.95 283.387 126.263 283.573 126.536C284.348 126.222 284.463 125.555 284.632 124.915C284.878 123.983 285.333 124.235 286.116 124.191C286.03 123.659 285.348 122.502 286.126 122.143C286.259 122.325 286.33 122.542 286.414 122.75C287.221 122.432 287.431 121.255 287.752 120.563C288.052 119.919 288.299 119.286 288.587 118.64C288.885 117.981 289.342 117.567 289.834 117.07C289.836 117.069 289.836 117.069 289.837 117.067C290.369 116.528 290.721 116.415 291.404 116.092C291.761 115.923 291.956 115.776 292.121 115.424C292.262 115.123 292.164 114.722 292.591 114.639C292.651 115.184 292.498 115.726 292.549 116.278C292.874 115.798 293.262 115.271 293.522 114.743C294.042 113.686 294.36 112.489 295.184 111.606C295.531 111.233 295.972 110.977 296.374 110.677C296.629 110.486 297.069 110.344 297.397 110.135C297.413 110.141 297.431 110.144 297.445 110.149C297.987 110.301 298.801 109.999 299.338 109.917C300.138 109.791 300.643 109.729 301.096 109.009C301.495 108.384 302.205 107.555 302.241 106.784C302.284 105.934 301.71 105.766 300.99 105.78C300.595 105.789 299.622 106.272 299.311 106.072C298.765 105.72 299.546 105.381 299.627 105.085C299.724 104.724 299.367 104.348 299.144 104.094C299.453 103.897 299.248 103.411 299.676 103.403C300.134 103.395 299.938 104.116 300.383 104.084C300.394 103.916 300.308 103.496 300.497 103.411C300.784 103.28 300.769 103.81 300.748 103.947C301.85 104.013 301.866 102.491 302.503 101.977C303.014 101.564 303.06 101.449 303.06 100.742C303.058 100.298 303.094 99.7596 302.846 99.3666C302.379 98.6222 301.041 98.965 300.371 99.238C299.945 99.4107 299.399 99.5013 298.95 99.5919C298.44 99.6996 297.92 99.4645 297.44 99.6482C297.138 99.7682 296.472 100.584 296.166 100.003C296.019 99.7278 296.461 99.1034 296.406 98.7336C296.467 98.7275 296.531 98.7165 296.594 98.714C296.483 98.5561 296.402 98.3125 296.551 98.1104C297.125 98.2108 296.869 98.6834 297.156 98.9956C297.393 99.254 297.822 99.1756 298.174 99.1205C299.67 98.8842 297.825 98.3014 298.205 97.7027C298.568 97.8288 298.8 97.8705 299.121 98.1019C299.418 98.3125 299.52 98.594 299.966 98.3688C299.987 98.1129 299.907 97.1163 300.377 97.1224C300.406 97.1224 301.022 97.8154 301.071 97.6097C301.198 97.0551 302.169 97.819 302.591 97.748C302.492 97.4726 302.275 97.273 302.183 97.0049C302.084 96.7171 302.166 95.9397 301.713 95.9801C301.693 96.2862 301.721 96.5812 301.621 96.8579C301.025 96.6082 301.014 96.116 301.071 95.5675C301.033 95.5614 300.995 95.5516 300.957 95.5455C300.952 95.4585 300.95 95.3704 300.95 95.2822C300.952 94.8721 300.986 94.4521 300.716 94.1142C300.586 93.9526 300.296 93.8828 300.198 93.7273C300.07 93.5241 300.153 93.2878 300.086 93.0613C299.955 92.6108 299.569 92.1639 299.072 92.1737C298.824 92.1798 298.77 92.3793 298.534 92.3585C298.259 92.3279 298.048 92.0084 297.646 92.0341C297.71 91.4452 297.096 90.8453 296.715 90.4559C296.377 90.107 295.401 89.714 295.968 89.0651C296.499 88.4627 296.975 89.9993 297.154 88.9782C297.333 87.9559 296.457 88.426 296.002 88.2019C295.58 87.9938 295.131 86.7327 295.971 86.8662C296.151 86.2063 296.998 85.7349 296.133 85.0885C295.661 84.7322 294.842 84.562 294.285 84.3453C293.546 84.06 292.974 84.3208 292.265 84.2167C291.776 84.1445 291.065 83.7062 290.817 83.1797H290.816C290.761 83.0598 290.728 82.9361 290.728 82.8112C290.728 82.7475 290.736 82.6839 290.754 82.6202C291.262 82.919 291.76 82.5443 292.279 82.6827C292.588 82.7684 292.509 82.9153 292.862 82.8284C293.158 82.7573 293.28 82.3705 293.65 82.4953C294.264 82.6986 294.023 83.6609 294.879 83.5801C295.716 83.503 295.422 82.9765 295.161 82.4978C294.639 81.5379 294.199 80.5364 293.679 79.5925C293.378 79.0415 293.577 77.9971 294.433 78.2212C294.951 78.3571 295.15 79.1664 295.22 79.6145C295.264 79.8826 295.195 80.2279 295.353 80.4715C295.482 80.6662 295.752 80.6748 295.902 80.8339C296.105 81.0482 296.092 81.2404 296.193 81.4914C296.319 81.8036 296.366 82.0583 296.736 82.1856C297.863 82.5774 296.847 80.9282 297.996 81.3102C298.312 81.4155 298.285 81.4387 298.312 81.7032C298.326 81.8709 298.515 82.2076 298.47 82.368C298.406 82.5884 298.114 82.5382 298.193 82.8455C298.324 82.8504 298.426 82.8026 298.562 82.8222C298.607 83.0647 298.422 83.2569 298.469 83.4993C298.677 83.4883 298.872 83.5777 298.916 83.798C298.932 83.885 298.872 84.0245 298.887 84.1286C298.905 84.2474 298.993 84.2951 298.986 84.4298C299.043 84.4457 299.157 84.4457 299.216 84.4298C299.262 84.278 299.482 84.2167 299.629 84.2339C299.618 84.3588 299.542 84.4702 299.572 84.6024C299.757 84.6171 300.181 84.3551 300.302 84.5963C300.427 84.8424 299.981 84.906 299.861 85.015C299.791 85.0787 299.813 85.1889 299.716 85.2537C299.635 85.3101 299.499 85.2513 299.433 85.3027C299.362 85.3615 299.412 85.5023 299.329 85.5598C299.233 85.6284 299.167 85.5451 299.095 85.5745C298.72 85.719 299.057 85.708 299.068 85.9528C299.083 86.2369 298.798 86.0092 298.77 86.3055C298.753 86.4891 298.939 86.6519 298.986 86.8246C299.073 87.1551 298.937 86.9813 298.779 87.1968C298.622 87.4135 298.841 87.422 298.932 87.591C299.034 87.782 298.937 87.9877 298.681 87.8408C298.819 88.2105 299.13 88.579 299.141 88.9782C299.149 89.3087 298.877 89.9307 299.384 90.0397C299.836 90.1388 299.964 89.5242 300.073 89.2194C300.146 89.0161 300.236 88.8165 300.203 88.5962C300.172 88.377 300.013 88.2019 299.964 87.9901C299.858 87.5371 300.198 87.2935 300.593 87.5285C300.683 87.1221 299.704 86.6532 300.436 86.412C300.772 86.3018 301.162 85.9124 301.279 85.5341C301.443 85.0015 301.072 84.6955 301.488 84.1984C301.752 83.8813 302.25 83.7233 302.156 83.2446C302.113 83.0243 301.954 82.7855 301.737 83.0083C301.577 83.1724 301.649 83.4821 301.488 83.6719C301.336 83.5948 301.224 83.3707 301.078 83.2544C300.876 83.094 300.765 83.0071 300.778 82.7414C300.789 82.5382 300.939 82.1562 301.222 82.2995C301.417 82.3986 301.274 82.6374 301.366 82.8112C301.536 82.8222 301.551 82.6986 301.627 82.5761C301.709 82.439 301.801 82.3472 301.893 82.2309C302 82.0913 301.988 82.0729 302.046 81.9175C302.091 81.7889 302.101 81.6346 302.247 81.5832C302.273 81.6346 302.312 81.6493 302.328 81.7105C302.628 81.7546 302.611 81.5453 302.617 81.3739C302.628 81.1192 302.675 81.0739 302.783 80.8474C303.197 79.9793 302.223 78.9019 301.936 78.1196C301.93 78.1037 301.925 78.0914 301.921 78.0767C301.752 77.5784 301.507 77.3605 301.085 77.0618C300.629 76.7385 300.115 76.3761 299.836 75.8754C299.553 75.3673 299.634 74.7172 299.246 74.2666C299.056 74.0511 298.171 73.4941 298.489 73.0974C298.605 72.9554 298.76 73.0215 298.917 73.1598C299.146 73.3606 299.38 73.7095 299.502 73.7903C299.914 74.056 300.328 73.8834 300.685 74.2984C300.805 74.438 300.904 74.6719 301.118 74.6694C301.336 74.6657 301.536 74.3572 301.691 74.236C302.696 73.4451 302.074 75.9807 302.376 76.3455C302.762 76.8071 302.987 75.7419 303.04 75.5044C303.156 74.9963 303.295 74.6706 303.598 74.2531C303.913 73.8161 304.098 73.3973 304.125 72.855C304.158 72.2526 304.132 71.6649 304.445 71.1225C304.72 70.6475 304.924 70.3414 304.926 69.7684C304.93 69.2358 304.902 68.6873 304.787 68.1658C304.652 67.5475 304.597 67.1227 304.837 66.5203C305.094 65.8738 304.936 65.5249 304.329 65.1796C303.822 64.8931 303.609 64.7169 303.877 64.1292C304.077 63.6921 304.3 63.5586 304.635 63.7411C304.697 63.7729 304.763 63.8182 304.833 63.8745C304.86 63.5696 304.86 62.8522 305.352 62.922C305.404 63.0958 305.378 63.5684 305.642 63.4239C305.874 63.2954 305.685 62.944 305.822 62.7751C305.929 62.6416 306.196 62.6539 306.355 62.5963C306.566 62.5167 306.744 62.3625 306.947 62.2682C307.137 62.1813 307.363 62.1458 307.54 62.0343C307.868 61.8274 308.136 61.5764 308.507 61.4369C308.864 61.3034 309.05 61.1149 309.355 60.8957C309.909 60.4954 310.626 60.6704 311.186 60.3203C311.474 60.1403 311.71 59.9787 312.035 59.8709C312.38 59.7583 312.722 59.6518 312.986 59.3898C313.321 59.0543 313.48 58.5854 313.808 58.2451C314.168 57.8716 314.649 57.6941 314.828 57.1725C314.386 57.2056 314.053 57.3623 313.733 57.6831C313.444 57.9708 313.209 58.3197 312.801 58.4066C312.367 58.5021 312.21 58.7176 311.927 59.0604C311.689 59.3494 311.346 59.6677 310.945 59.6053C310.928 59.1927 311.537 58.7801 311.803 58.5058C312.092 58.2095 312.763 57.7198 312.658 57.2411C312.381 57.0966 312.095 57.5827 311.94 57.7529C311.705 58.0112 311.444 58.1496 311.158 58.3369C310.934 58.485 310.742 58.676 310.493 58.774C310.26 58.8633 309.989 58.8952 309.751 58.9588C309.429 59.0421 309.221 59.0249 308.94 59.2453C308.719 59.4179 308.527 59.6273 308.312 59.8061C307.828 60.2125 307.348 59.8342 306.866 60.0803C306.315 60.3656 306.42 61.214 305.637 60.9484C305.67 60.6361 305.921 60.3387 306.013 60.0326C306.053 59.9028 306.095 59.8134 306.149 59.7485C306.252 59.6212 306.397 59.582 306.635 59.522C306.855 59.4657 307.125 59.3763 307.295 59.2147C307.494 59.0237 307.457 58.6907 307.652 58.5168C307.844 58.3454 308.158 58.3687 308.373 58.1728C308.604 57.9647 308.648 57.77 308.971 57.71C309.51 57.6121 309.928 57.208 310.457 57.0587C310.906 56.9326 311.427 56.7624 311.885 56.7024C312.065 56.6755 312.221 56.7391 312.397 56.6338C312.54 56.5481 312.612 56.3792 312.73 56.2641C312.852 56.1441 312.978 56.1429 313.114 56.0743C313.261 56.0021 313.265 55.936 313.38 55.8417C313.739 55.5442 314.492 55.3324 314.898 55.6629C314.953 55.7095 315.086 55.8711 315.221 55.9629C315.349 56.051 315.476 56.0719 315.53 55.8515C315.574 55.6752 315.326 55.6115 315.269 55.4854C315.22 55.3728 315.249 55.2258 315.254 55.1059C315.438 55.0263 315.61 54.9381 315.774 54.8243C315.912 54.73 316.02 54.6271 316.184 54.5745C316.369 54.5145 316.606 54.5769 316.779 54.4998C317.193 54.3198 316.671 53.7346 316.675 53.3771C316.677 52.9608 317.191 52.4478 317.588 52.7968C317.835 53.0159 317.829 53.6771 318.297 53.6171C318.575 53.5816 318.658 53.3 318.697 53.0086C318.725 52.7968 318.731 52.5837 318.772 52.4503C318.893 52.0597 319.3 51.7487 319.539 51.4206C319.91 50.9125 320 51.0423 320.231 51.5737C320.411 51.9863 320.669 52.4882 321.184 52.2287C321.519 52.0573 321.863 51.6373 321.932 51.2664C322.034 50.7301 321.617 50.6738 321.236 50.4963C320.829 50.3028 320.794 49.8633 320.486 49.5719C320.182 49.2842 319.746 49.2805 319.506 48.9132C319.261 48.5398 319.251 47.9986 318.87 47.7195C318.506 47.4526 317.865 47.6044 317.556 47.2848C317.295 47.0143 317.579 46.3788 317.651 46.063C317.781 45.501 318.098 45.4337 318.525 45.1202C319.007 44.7676 318.519 44.6795 318.176 44.5423C317.708 44.355 317.595 43.973 317.552 43.4943C317.524 43.2054 317.574 42.9507 317.639 42.6948V42.6936C317.68 42.532 317.725 42.3691 317.759 42.1928C317.839 41.806 317.784 41.4289 317.805 41.0408C317.806 41.0212 317.807 41.004 317.81 40.9832C317.824 40.7665 317.86 40.5657 317.86 40.3515C317.86 40.2805 317.856 40.207 317.846 40.1311C317.77 39.5361 318.121 39.5654 318.399 39.1198C318.607 38.7855 318.671 38.3533 318.849 38.0056C319.047 37.6126 319.368 37.3237 319.679 37.0274C320.096 36.6295 319.735 36.0945 319.943 35.5778C320.111 35.6843 320.407 36.021 320.62 35.8484C320.737 35.7504 320.717 35.3439 320.675 35.2129C320.605 34.9987 320.371 34.8346 320.523 34.58C320.634 34.3927 320.861 34.4061 321.067 34.482C321.018 34.6596 320.904 35.0673 321.142 35.1738C321.456 35.3097 321.451 34.8273 321.454 34.6436C321.462 34.3792 321.519 34.209 321.589 33.9592C321.635 33.7976 321.622 33.3042 321.885 33.3312C322.206 33.3679 321.985 33.9715 321.959 34.1282C321.934 34.2727 321.864 34.9142 322.147 34.9142C322.376 34.9142 322.408 34.3498 322.423 34.2102C322.448 33.9396 322.361 33.3434 322.706 33.232C323.062 33.1145 323.075 33.5197 323.111 33.7474C323.404 35.639 324.757 32.6602 323.692 32.5488C323.478 32.5268 323.239 32.6994 323.124 32.4227C322.994 32.1105 323.318 32.1387 323.494 32.0236C323.861 31.7762 323.5 31.1078 323.343 30.7772C323.271 30.6315 323.115 30.2483 323.403 30.1736C323.662 30.105 323.557 30.5727 323.714 30.7086C323.994 30.9559 324.084 30.5287 324.028 30.296C323.972 30.0548 323.716 29.8577 323.839 29.592C324.109 29.0191 324.656 29.6374 324.768 29.9642C324.875 30.2716 324.58 30.2899 324.58 30.547C324.578 30.8813 324.936 30.6266 325.119 30.5984C325.517 30.5397 326.49 31.3441 326.125 30.4001C325.982 30.0304 325.853 29.2823 326.385 29.139C327.003 28.9725 326.781 29.7414 326.87 30.0352C327.028 30.5433 327.648 30.2091 327.574 29.7451C327.535 29.51 327.262 29.4219 327.223 29.2076C327.183 28.975 327.342 28.8807 327.523 29.0068C327.691 29.1219 327.663 29.4525 327.929 29.4708C328.182 29.4916 328.222 29.2321 328.211 29.0399C328.199 28.8648 328.05 27.7592 328.498 28.2073C328.776 28.4853 328.5 29.1635 329.063 29.1684C329.092 28.746 328.971 28.2122 329.092 27.807C329.196 27.4605 329.388 27.3626 329.543 27.7164C329.651 27.96 329.656 28.1498 329.922 28.1388C330.086 28.1314 330.362 27.9943 330.471 27.8841C330.775 27.5744 330.684 27.0308 330.889 26.6647C331.045 26.388 331.193 26.2435 331.353 26.5667C331.481 26.8214 331.432 27.021 331.786 26.9646C331.904 26.6304 331.73 26.3941 331.769 26.0721C331.807 25.7685 332.078 25.5664 332.268 25.351Z" fill="var(--fill-0, #D70321)"/>
<path d="M90.7726 191.83C88.569 191.04 87.2797 190.542 85.5749 187.842C83.8713 185.143 82.2082 183.066 81.0856 182.485C79.9629 181.903 79.7129 181.238 79.0891 179.951C78.4665 178.663 76.9689 178.663 76.0129 179.618C75.057 180.573 75.057 182.361 74.2665 181.695C73.4772 181.031 71.3569 179.078 71.1069 178.082C70.8581 177.085 70.9402 176.919 70.026 177.044C69.1117 177.168 67.1986 179.328 67.3236 175.217C67.4486 171.104 67.2819 140.37 67.2819 140.37C67.2819 140.37 65.0378 138.542 64.3307 138.459C63.6235 138.376 60.1723 138.749 59.4664 138.169C58.7592 137.587 58.0533 138.584 57.1794 137.629C56.3068 136.674 54.7258 135.842 53.4377 135.842C52.1484 135.842 51.3592 135.842 51.1925 134.596C51.0258 133.35 50.9841 133.309 49.4877 133.641C47.9913 133.973 48.8222 133.433 48.3234 132.686C47.8246 131.938 45.871 130.443 44.9151 131.813C43.9579 133.184 42.0876 132.436 42.0876 132.436C42.0876 132.436 40.9234 132.603 40.2579 133.101C39.5924 133.6 38.5947 133.683 38.0543 133.516C37.5138 133.35 36.8483 133.6 36.1007 134.971C35.3519 136.341 34.8114 137.379 33.1899 137.212C31.5685 137.047 28.2423 136.632 29.4483 138.792C30.6542 140.952 31.6518 142.82 31.5268 143.775C31.403 144.73 32.4423 144.98 32.4423 144.98C32.4423 144.98 32.8995 145.271 32.8995 145.936C32.8995 146.599 33.1899 147.804 33.5233 148.094C33.8554 148.386 34.4376 150.006 32.6495 149.341C30.8613 148.677 29.697 148.386 30.3625 147.098C31.028 145.81 29.4483 145.728 29.4483 145.728C29.4483 145.728 27.2863 145.271 27.2447 146.184C27.203 147.098 25.7065 146.351 25.7065 146.351C25.7065 146.351 21.0506 145.936 22.7541 147.804C24.4589 149.673 24.1268 150.67 24.1268 150.67C24.1268 150.67 23.7113 152.622 24.5422 153.079C25.3732 153.535 26.8292 153.952 27.453 153.952C28.0768 153.952 28.4506 154.325 29.0328 154.657C29.6149 154.99 30.1554 154.865 30.4459 154.657C30.7376 154.449 33.9388 153.619 32.9412 155.072C31.9435 156.526 32.109 157.233 32.109 157.233C32.109 157.233 31.984 159.35 30.6959 159.392C29.4066 159.433 29.2399 158.561 28.3673 159.184C27.4934 159.808 27.078 160.142 26.6208 159.394C26.1637 158.644 25.0411 157.813 24.0434 158.976C23.0458 160.139 22.547 161.094 20.7589 162.174C18.9708 163.254 19.4708 165.995 19.9684 166.162C20.4672 166.328 22.1303 165.58 20.4672 167.2C18.8053 168.82 19.2624 168.073 19.8434 169.028C20.4267 169.983 20.6339 169.9 20.5505 170.523C20.4672 171.146 20.9256 172.683 22.2553 172.392C23.5863 172.101 25.2494 170.896 25.1661 171.934C25.0827 172.973 24.4589 174.177 25.0827 174.344C25.7065 174.51 25.6649 174.759 24.4589 174.801C23.253 174.842 24.0434 175.299 24.0434 175.59C24.0434 175.881 23.8351 177.459 23.1292 177.542C22.422 177.625 22.6708 178.04 23.9184 177.999C25.1661 177.958 24.5839 177.375 25.3327 177.375C26.0803 177.375 27.6601 177.292 27.4935 177.79C27.328 178.289 27.4113 178.539 27.9935 178.455C28.5756 178.372 29.4899 177.584 29.0328 179.078C28.5756 180.573 29.8637 181.113 29.9471 180.158C30.0304 179.203 30.8613 178.747 31.028 179.452C31.1947 180.158 31.3601 180.158 31.9435 179.827C32.5244 179.494 33.9804 178.207 33.4387 179.452C32.8995 180.698 32.4828 180.698 32.1507 181.155C31.8185 181.612 31.4031 182.858 31.028 183.481C30.6542 184.104 30.3625 184.478 29.6566 184.478C28.9494 184.478 28.4923 184.519 28.3673 185.143C28.2423 185.766 28.4923 186.596 27.2447 186.264C25.997 185.932 23.628 187.219 23.503 187.676C23.378 188.134 22.9208 188.549 22.2553 188.091C21.5911 187.635 20.1351 187.759 18.847 188.507C17.5577 189.254 16.7672 190.292 15.6041 189.96C14.4398 189.628 11.9029 190.002 11.9029 190.75C11.9029 191.497 12.0695 191.87 13.2338 191.372C14.3981 190.874 14.4815 191.743 15.2291 191.6C15.9779 191.456 17.2255 190.874 18.2648 190.75C19.3041 190.625 19.6779 189.96 20.3434 189.96C21.0089 189.96 21.4244 190.79 22.2136 190.334C23.0041 189.877 23.7947 189.42 24.2935 190.127C24.7923 190.832 25.1244 189.379 26.1637 189.337C27.203 189.297 27.8268 190.5 28.3673 189.712C28.9078 188.922 27.6601 186.929 29.4483 187.177C31.2364 187.427 32.2757 187.136 33.1066 186.513C33.9388 185.889 41.921 182.111 40.7567 180.781C39.5924 179.452 40.0091 178.663 40.715 178.455C41.4221 178.248 42.9186 177.625 43.4591 176.67C43.9995 175.715 45.7043 172.476 48.1579 172.724C50.6103 172.973 50.0698 174.136 48.8639 173.846C47.6591 173.556 46.0377 174.593 45.621 176.379C45.2055 178.165 44.415 178.58 45.1638 178.58C45.9127 178.58 46.2448 179.037 45.2472 179.245C44.2496 179.452 43.7508 180.2 44.7067 180.491C45.6627 180.781 47.7829 179.868 48.0329 179.452C48.283 179.037 48.5734 177.75 49.7794 177.832C50.9841 177.915 51.8996 179.037 52.4401 178.207C52.9806 177.375 52.1901 174.842 53.1877 174.801C54.1853 174.759 57.0127 174.261 56.2235 175.507C55.433 176.752 51.4413 180.491 52.8972 179.66C54.352 178.83 55.558 177.044 56.3068 177.417C57.0544 177.79 56.889 176.877 57.8866 177.252C58.8842 177.625 60.6711 178.58 62.4592 178.539C64.2474 178.497 64.414 179.494 65.9105 179.744C67.4069 179.993 68.3212 180.2 68.82 179.536C69.3188 178.87 70.6915 178.622 69.8605 179.536C69.0283 180.448 68.0724 181.031 69.0283 181.321C69.9843 181.612 74.4748 183.564 75.057 184.811C75.6391 186.056 75.9712 185.474 76.3034 185.143C76.6367 184.811 77.0105 185.019 75.9712 186.472C75.9712 186.472 76.0546 186.929 76.6784 187.884C77.3022 188.839 77.0939 190.292 78.0498 190.625C79.0058 190.957 78.6736 192.785 79.9213 193.575C81.1689 194.363 80.0867 188.964 80.7951 191.29C81.5011 193.615 81.6261 194.481 81.9165 193.404C82.2082 192.328 82.9558 191.456 82.8725 193.283C82.7904 195.111 84.0368 195.069 83.2892 195.484C82.5403 195.9 82.0832 196.398 82.9141 196.481C83.7463 196.564 86.2404 199.887 85.6582 199.057C85.0773 198.226 85.3751 197.312 85.7452 197.976C86.1166 198.641 87.363 199.264 87.1142 197.934C86.8642 196.606 85.7661 194.363 87.1473 195.276C88.5273 196.191 90.0654 199.471 90.7726 198.558C91.4797 197.644 92.9762 192.618 90.7726 191.83Z" fill="var(--fill-0, #D70321)"/>
<path d="M40.8251 185.006C39.4672 184.507 38.6914 185.199 37.6925 185.532C36.6949 185.864 37.2489 187.609 37.2489 187.609C37.2489 187.609 37.2219 187.885 37.8041 188.744C38.3862 189.602 40.7687 187.525 42.2946 186.972C43.8192 186.417 42.1831 185.504 40.8251 185.006Z" fill="var(--fill-0, #D70321)"/>
<path d="M33.0937 191.706C33.0104 191.761 33.0386 192.398 33.5374 192.398C34.0362 192.398 33.981 191.484 33.981 191.484C33.7322 190.404 33.1771 191.651 33.0937 191.706Z" fill="var(--fill-0, #D70321)"/>
<path d="M43.4016 183.176C42.8476 183.119 42.8194 183.011 43.1797 182.208C43.5401 181.406 42.2385 182.707 41.3781 183.261C40.519 183.815 40.8242 183.76 41.2127 184.201C41.6 184.645 42.9064 184.201 42.9064 184.201C42.9064 184.201 42.3672 184.341 42.9064 184.091C43.4457 183.842 43.9555 183.233 43.4016 183.176Z" fill="var(--fill-0, #D70321)"/>
<path d="M23.7353 191.8C23.2781 191.44 22.9178 191.868 22.9178 191.868C22.9178 191.868 22.669 192.493 23.223 192.423C23.7769 192.354 24.1936 192.16 23.7353 191.8Z" fill="var(--fill-0, #D70321)"/>
<path d="M21.8536 191.248C21.4099 191.511 22.1857 191.524 22.1857 191.524C22.1857 191.524 22.823 191.441 22.8634 191.163C22.9051 190.888 22.296 190.985 21.8536 191.248Z" fill="var(--fill-0, #D70321)"/>
<path d="M6.58212 191.219C5.75118 191.26 6.25 191.689 6.02817 192.243C5.80634 192.797 5.41782 192.713 5.41782 192.713C4.6837 193.171 5.99997 193.337 6.5956 193.337C7.19123 193.337 8.24523 193.032 8.27342 192.395C8.30039 191.758 7.41429 191.177 6.58212 191.219Z" fill="var(--fill-0, #D70321)"/>
<path d="M1.42501 192.05C0.662701 192.188 -0.0996137 192.743 0.0106884 193.158C0.122216 193.574 1.2718 193.088 2.03412 192.784C2.79643 192.48 3.64209 192.591 3.64209 192.591C5.43021 191.745 2.1861 191.911 1.42501 192.05Z" fill="var(--fill-0, #D70321)"/>
<path d="M6.87031 163.648C7.34216 163.358 6.67667 162.312 6.49773 162.048C6.4916 162.037 6.48548 162.028 6.47935 162.022C6.47935 162.022 6.47811 162.018 6.47076 162.008C6.44502 161.969 6.3102 160.989 5.58221 161.218C4.85422 161.446 5.54054 162.671 5.58221 162.816C5.62388 162.962 6.33106 163.98 6.87031 163.648Z" fill="var(--fill-0, #D70321)"/>
<path d="M15.0951 168.601C15.2606 168.974 15.9371 169.878 16.9862 170.314C18.0365 170.749 18.0463 170.158 18.5978 169.099C19.1493 168.04 15.7398 167.687 15.7398 167.687C14.9909 167.469 14.9284 168.227 15.0951 168.601Z" fill="var(--fill-0, #D70321)"/>
<path d="M14.4367 153.371C14.4367 153.371 15.6206 154.18 15.7665 155.073C15.9123 155.965 17.3254 155.8 16.9099 154.72C16.4945 153.64 15.9123 153.038 15.2468 152.561C14.5813 152.083 14.2075 151.502 14.0408 151.024C13.8754 150.547 13.4587 150.775 13.2099 151.439C12.9599 152.104 12.5077 153.07 14.4367 153.371Z" fill="var(--fill-0, #D70321)"/>
<path d="M90.3265 167.166C90.818 167.493 91.7188 166.429 91.7188 166.429C92.8659 164.097 89.8351 166.838 90.3265 167.166Z" fill="var(--fill-0, #D70321)"/>
<path d="M98.0704 163.112C97.0054 163.154 94.629 163.575 94.792 164.736C94.9562 165.895 95.694 165.815 95.694 165.815C95.694 165.815 98.1512 167.041 98.6844 165.815C99.2163 164.587 99.1354 163.072 98.0704 163.112Z" fill="var(--fill-0, #D70321)"/>
<path d="M110.318 168.187C109.581 168.678 107.865 169.208 108.229 169.907C108.229 169.907 109.212 172.035 109.949 172.075C110.686 172.116 111.506 171.174 111.916 172.075C112.326 172.975 114.25 172.444 112.818 170.847C111.384 169.251 111.055 167.696 110.318 168.187Z" fill="var(--fill-0, #D70321)"/>
<path d="M121.297 173.134C120.314 173.303 119.085 173.507 118.347 173.221C118.347 173.221 117.037 172.894 116.913 173.507C116.79 174.12 118.02 173.876 118.839 174.408C119.658 174.94 121.419 174.571 121.83 174.121C122.239 173.671 122.28 172.965 121.297 173.134Z" fill="var(--fill-0, #D70321)"/>
<path d="M119.207 175.348C118.183 175.103 119.503 177.231 119.503 177.231C119.722 177.612 120.027 177.762 121.092 177.231C122.157 176.698 120.231 175.594 119.207 175.348Z" fill="var(--fill-0, #D70321)"/>
<path d="M127.894 176.456C125.845 175.516 124.248 175.182 123.921 174.673C123.592 174.164 122.65 174.28 122.363 174.673C122.076 175.065 121.815 175.404 122.103 175.638C122.103 175.638 123.388 176.58 123.961 177.848C124.535 179.118 126.337 178.667 126.911 178.503C127.483 178.339 129.942 177.395 127.894 176.456Z" fill="var(--fill-0, #D70321)"/>
<path d="M138.627 187.713C137.193 187.057 137.398 186.321 137.153 185.707C136.907 185.093 135.432 183.742 134.653 183.456C133.875 183.169 129.901 180.386 129.45 181.859L129.492 182.064C129.492 182.064 130.884 183.374 129.492 184.478C128.098 185.584 127.734 186.075 128.695 187.18C129.655 188.285 129.596 189.226 129.421 189.922C129.246 190.618 129.532 193.361 130.106 193.606C130.68 193.852 131.704 194.056 132.154 193.401C132.605 192.746 134.121 190.454 135.555 190.741C136.989 191.027 137.809 190.004 137.931 189.963C138.054 189.922 140.061 188.367 138.627 187.713Z" fill="var(--fill-0, #D70321)"/>
</g>
<g id="Vector_2">
<path d="M33.9986 99.595C36.2076 100.275 40.79 102.327 43.1528 103.263C48.8629 105.538 54.6561 107.596 60.5208 109.433C100.063 121.507 137.51 123.149 178.079 115.388C186.65 113.703 195.126 111.563 203.47 108.976C207.941 107.588 212.121 105.997 216.44 104.197C217.504 103.754 218.718 103.336 219.875 103.273C221.549 104.045 224.685 113.198 225.607 115.517L232.671 132.848C241.853 129.372 256.026 122.302 264.419 117.399C269.809 114.243 275.091 110.902 280.253 107.383C282.378 105.938 287.873 101.335 290 101.516C291.451 102.349 306.988 124.621 309.12 127.621C311.347 125.945 317.583 120.37 319.779 119.798C320.052 119.726 320.311 119.668 320.56 119.821C322.608 121.073 338.001 140.524 340.034 143.538C340.617 144.405 341.096 145.262 341.347 146.286C340.755 147.925 326.877 157.655 324.438 159.379C310.535 169.203 295.876 177.899 280.598 185.386C266.379 192.338 251.822 198.332 236.858 203.443C234.801 204.146 229.229 206.551 227.305 205.884C226.158 204.547 218.61 178.873 217.511 175.086C213.307 176.583 206.275 178.257 201.846 179.319C177.415 185.072 152.41 188.01 127.317 188.077C125.034 188.083 122.739 188.244 122.698 185.409C122.644 181.644 122.814 177.929 122.897 174.169C123.028 167.689 123.118 161.209 123.167 154.729C121.187 154.463 117.729 154.469 115.566 154.356C110.922 154.135 106.287 153.761 101.668 153.235C78.4995 150.592 55.73 145.174 33.8446 137.096C31.4027 136.174 22.2208 132.814 20.6068 131.408C19.7135 129.852 22.4534 124.558 23.2034 122.852C26.401 115.576 29.4795 108.243 32.6895 100.974C32.9689 100.342 33.4369 99.963 33.9986 99.595Z" fill="#D70321"/>
<path d="M34.4248 102C37.8509 103.174 42.5369 105.34 46.1527 106.712C54.4417 109.872 62.8925 112.582 71.4686 114.831C118.447 127.062 174.041 124.2 218.89 105.311C219.507 106.574 220.11 108.073 220.604 109.391C223.701 117.62 227.268 125.719 230.376 133.931C226.988 135.401 223.287 136.717 219.813 138.017C205.562 143.418 187.55 147.39 172.553 149.788C121.135 158.011 70.2328 150.666 22.2293 130.503C25.9707 121.07 30.4948 111.435 34.4248 102Z" fill="#FBF5E7"/>
<path fill-rule="evenodd" clip-rule="evenodd" d="M165.011 125.445C176.517 125.841 178.769 144.537 165.606 145.884C154.017 145.71 151.841 126.84 165.011 125.445ZM164.063 129.657C162.906 130.193 162.243 130.606 161.795 131.95C160.842 134.808 161.517 139.609 164.564 140.967C164.912 141.122 166.349 141.069 166.803 141.055C167.161 140.864 167.977 140.421 168.165 140.095C170.252 136.48 169.286 129.458 164.063 129.657Z" fill="var(--fill-0, #D70321)"/>
<path fill-rule="evenodd" clip-rule="evenodd" d="M176.39 124.147C180.974 123.538 188.503 120.191 191.568 124.964L192.038 125.633C193.046 128.762 192.558 129.787 190.439 131.98C191.007 132.906 192.664 132.566 193.237 133.767C194.578 136.58 193.634 137.553 195.585 140.301C193.84 140.72 191.858 141.1 190.089 141.476C188.154 137.127 190.009 134.428 183.993 135.596C184.354 137.911 184.76 140.219 185.212 142.517C183.299 142.773 181.842 143.07 179.973 143.48C178.711 137.075 177.66 130.593 176.39 124.147ZM185.489 131.23C189.174 130.251 187.999 126.245 184.969 126.68C184.281 126.816 183.016 127.026 182.388 127.204C182.618 128.436 182.733 130.443 183.423 131.265C184.373 131.601 184.401 131.433 185.489 131.23Z" fill="var(--fill-0, #D70321)"/>
<path d="M76.8235 122.439C78.4194 122.613 80.6521 123.129 82.273 123.455C81.7805 125.809 81.3436 128.284 80.8883 130.656C82.7472 131.034 84.6146 131.369 86.4886 131.661C86.9406 129.266 87.3712 126.867 87.7802 124.463L93.0111 125.392C92.538 127.985 90.1799 143.697 89.385 144.682L84.281 143.763C84.8567 141.312 85.2888 138.524 85.7249 136.017L80.1625 134.991L78.7311 142.592C76.9081 142.266 75.0391 141.884 73.2162 141.532C74.4282 136.887 76.0486 127.209 76.8235 122.439Z" fill="var(--fill-0, #D70321)"/>
<path d="M128.143 127.849C132.531 128.14 134.737 129.306 135.733 133.964C134.032 133.924 132.901 133.964 131.401 133.964C130.194 131.696 126.759 130.861 126.144 133.307C126.269 133.946 126.355 134.248 126.949 134.594C129.392 135.982 132.006 135.924 134.281 137.762C137.163 140.089 136.455 142.763 134.414 145.321C132.959 147.144 130.63 147.497 128.448 147.688C123.958 147.481 121.292 146.05 120.604 141.195C122.283 140.906 123.303 140.774 124.203 140.774C124.503 141.195 124.803 141.676 125.103 141.977C125.807 143.348 130.879 144.443 130.87 141.739C129.745 139.796 124.993 139.558 123.046 137.867C120.802 136.177 120.378 133.87 121.694 131.422C123.198 128.626 125.268 128.119 128.143 127.849Z" fill="var(--fill-0, #D70321)"/>
<path d="M96.8329 126.046C100.223 126.124 106.257 126.947 109.807 127.352L109.495 131.48C106.859 131.289 104.227 131.048 101.6 130.756C101.577 131.782 101.434 132.912 101.328 133.94C103.494 134.254 106.121 134.457 108.331 134.682C108.176 136.066 108.047 137.453 107.944 138.841C106.662 138.663 102.186 137.978 101.152 138.188L100.913 138.585L100.702 141.531C103.292 141.71 105.905 142.036 108.558 142.214C108.443 143.639 108.318 145.063 108.181 146.485C104.062 146.263 99.0019 145.603 94.8106 145.194C95.6911 140.316 96.2236 131.363 96.8329 126.046Z" fill="var(--fill-0, #D70321)"/>
<path d="M204.596 118.009C206.321 117.511 208.297 116.992 209.981 116.427C209.284 119.923 208.606 123.463 207.85 126.944C207.066 130.547 208.051 133.198 209.041 136.629L203.73 138.069L202.065 131.43C200.867 130.162 196.524 125.121 195.354 124.264L194.674 123.354C193.892 122.596 193.305 121.992 192.585 121.175C194.299 120.724 196.822 119.988 198.496 119.656C200.137 121.918 201.819 124.151 203.541 126.352C203.964 123.581 204.316 120.799 204.596 118.009Z" fill="var(--fill-0, #D70321)"/>
<path d="M59.4925 117.63C64.4581 119.057 69.4328 120.453 74.4159 121.818L73.3012 126.019L68.353 124.659C67.62 127.75 66.5476 131.308 65.6971 134.412C65.3947 135.853 64.8166 137.806 64.4321 139.271C62.6646 138.831 60.8804 138.294 59.1275 137.788C60.3651 132.962 61.8027 128.013 63.1389 123.201L58.22 121.826L59.4925 117.63Z" fill="var(--fill-0, #D70321)"/>
<path d="M153.274 127.248L150.642 127.37C146.432 127.668 142.217 127.888 137.999 128.032L138.175 132.348L143.352 132.194L144.298 146.786C146.397 146.786 147.768 146.794 149.536 146.753C149.158 141.917 148.795 136.657 148.583 131.816C150.255 131.746 151.926 131.65 153.595 131.531C153.442 130.067 153.286 128.727 153.274 127.248Z" fill="var(--fill-0, #D70321)"/>
<path d="M289.138 103.803C289.684 104.313 293.672 110.079 294.308 110.978L307.156 129.094C258.871 163.752 201.537 183.448 142.232 185.749C136.736 186.104 130.341 186.157 124.803 186.162C124.852 175.763 125.013 165.364 125.287 154.968C138.045 154.972 149.941 154.602 162.659 153.181C199.047 149.041 234.194 137.413 265.911 119.023C273.993 114.301 281.482 109.178 289.138 103.803Z" fill="#FBF5E7"/>
<path fill-rule="evenodd" clip-rule="evenodd" d="M247.048 136.887C251.611 136.616 254.782 139.009 256.361 143.156C259.706 151.945 254.194 154.574 247.625 157.317L244.729 158.509L237.574 140.561C240.312 139.335 244.224 137.402 247.048 136.887ZM246.793 141.684C245.964 142.011 244.947 142.376 244.172 142.794C244.791 144.413 247.424 151.573 248.065 152.497C248.495 152.425 248.675 152.405 249.092 152.243C252.426 150.569 252.534 148.143 251.08 144.643C250.301 142.768 248.833 141.567 246.793 141.684Z" fill="var(--fill-0, #D70321)"/>
<path fill-rule="evenodd" clip-rule="evenodd" d="M155.395 159.959C159.064 159.682 162.202 158.924 165.997 159.152C171.377 159.476 173.174 164.733 169.006 167.884C170.522 168.513 171.123 168.705 171.832 169.623C172.277 170.201 172.522 170.904 172.678 171.617C174.052 179.54 162.458 178.864 157.434 179.549C157.046 173.365 156.108 166.157 155.395 159.959ZM165.625 174.426C168.831 173.279 167.345 170.071 164.377 170.587C163.331 170.67 163.193 170.832 161.993 171.133C161.993 172.636 162.293 173.537 162.305 174.74C163.332 174.668 164.639 174.611 165.625 174.426ZM164.406 166.611C167.612 165.464 166.126 162.256 163.158 162.772C162.112 162.854 161.974 163.017 160.775 163.318C160.775 164.821 161.075 165.722 161.086 166.925C162.113 166.853 163.421 166.796 164.406 166.611Z" fill="var(--fill-0, #D70321)"/>
<path d="M233.851 142.277L229.659 143.741C230.972 147.737 232.287 151.931 233.694 155.876C230.73 152.374 227.724 148.911 224.676 145.487L218.979 147.452C220.914 153.477 223.095 159.694 224.915 165.722L229.389 164.138L225.577 154L234.316 162.38L239.973 160.317C238.123 154.593 235.485 147.822 233.851 142.277Z" fill="var(--fill-0, #D70321)"/>
<path d="M205.781 151.295C206.34 151.684 210.037 167.697 210.581 169.749L205.345 171.039C204.7 168.607 204.176 166.063 203.636 163.599L198.067 164.927L199.89 172.386L195.717 173.417L194.927 173.537C194.835 173.471 194.724 173.392 194.596 173.299C193.304 168.021 191.411 159.936 190.186 154.976C191.959 154.635 193.728 154.276 195.494 153.9C195.956 156.169 196.528 158.544 197.034 160.815L202.527 159.405C201.933 157.205 201.406 154.707 200.885 152.467L205.781 151.295Z" fill="var(--fill-0, #D70321)"/>
<path d="M173.99 157.834C177.589 157.188 183.241 156.351 186.646 155.503C186.927 156.947 187.158 158.402 187.34 159.863C184.823 160.235 182.318 160.691 179.829 161.228L180.278 164.383L187.362 163.102C187.512 164.413 187.73 165.982 187.812 167.278C185.546 167.611 183.291 168.022 181.052 168.511L181.676 171.955C184.294 171.549 186.904 171.093 189.506 170.585L190.186 174.873C185.846 175.601 181.51 176.358 177.18 177.144L176.088 170.283C175.271 166.167 174.688 161.974 173.99 157.834Z" fill="var(--fill-0, #D70321)"/>
<path d="M214.106 148.364L214.777 148.289C215.255 148.694 219.611 164.766 220.178 166.793C218.751 167.152 217.315 167.658 215.914 168.127L215.33 168.109C214.728 167.439 210.541 151.649 209.981 149.64L214.106 148.364Z" fill="var(--fill-0, #D70321)"/>
<path d="M319.817 121.838C320.564 122.286 337.063 143.462 338.948 145.857C307.224 170.516 274.885 188.753 236.645 201.396C234.447 202.298 230.873 203.393 228.529 204.197L219.578 174.639C257.974 162.76 288.218 146.543 319.817 121.838Z" fill="#FBF5E7"/>
<path d="M279.653 156.705C278.471 157.153 268.853 161.926 267.885 162.62L269.366 166.324C270.356 166.181 276.09 163.157 277.352 162.517C276.866 169.082 276.511 172.425 277.396 178.948C279.074 178.21 280.894 177.282 282.56 176.479C281.894 173.239 281.743 169.732 281.687 166.431C281.626 162.643 282.174 160.7 280.337 157.252L279.982 156.88L279.653 156.705Z" fill="var(--fill-0, #D70321)"/>
<path d="M253.801 169.108C253.657 169.717 254.043 170.349 254.311 170.942L254.601 171.864C254.797 172.288 254.874 172.351 255.207 172.684C256.495 172.689 261.213 170.264 262.949 169.521C262.25 176.362 261.965 178.822 262.401 185.561C264.137 184.917 265.88 184.065 267.566 183.279C267.068 179.496 266.991 175.764 267.181 171.961C267.255 170.515 267.674 168.154 267.181 166.925L265.835 163.919C264.922 163.99 254.797 168.385 253.801 169.108Z" fill="var(--fill-0, #D70321)"/>
<path d="M247.063 171.716C248.146 171.328 249.763 170.321 250.773 170.571C251.14 170.662 251.279 171.173 251.494 171.593L251.891 172.742C253.974 177.732 256.002 182.744 257.969 187.78L253.07 189.769C251.472 185.579 249.817 181.41 248.107 177.264C247.217 178.187 246.094 179.01 245.074 179.805C244.541 178.633 244.049 177.328 243.572 176.123C245.509 174.756 246.321 173.937 247.063 171.716Z" fill="var(--fill-0, #D70321)"/>
<path fill-rule="evenodd" clip-rule="evenodd" d="M283.341 157.25C284.542 151.793 290.906 148.925 295.009 153.761C294.384 154.148 291.48 155.993 291.157 155.925C287.947 155.249 286.349 155.709 288.547 160.662C289.499 158.95 290.421 157.644 292.481 157.053C293.773 156.693 295.155 156.857 296.325 157.51C299.402 159.206 301.045 163.629 299.151 166.753C297.155 170.045 292.44 171.787 289.028 169.475C285.648 167.183 283.227 162.016 283.162 158.005L283.341 157.25ZM293.06 160.913C291.569 160.913 290.36 162.124 290.36 163.618C290.36 165.112 291.569 166.323 293.06 166.323C294.55 166.323 295.759 165.112 295.759 163.618C295.759 162.124 294.55 160.913 293.06 160.913Z" fill="var(--fill-0, #D70321)"/>
</g>
</g>
</svg>
