<svg overflow="visible" style="display: block;" viewBox="0 0 442.848 431.562" fill="none" xmlns="http://www.w3.org/2000/svg">
<g id="Vector" style="mix-blend-mode:multiply">
<path d="M101.322 406.004C133.009 435.868 187.075 440.946 222.238 413.857C238.063 401.671 249.281 383.904 253.307 364.685C259.661 333.442 244.767 303.751 220.748 283.949C207.017 272.639 190.728 265.111 174.26 258.429C159.606 252.395 112.348 238.272 123.932 213.706C135.075 189.996 202.282 225.176 222.143 226.933C251.574 229.536 286.721 220.868 309.501 204.251C329.624 189.577 349.366 160.596 349.039 135.139C348.799 116.573 345.656 58.8803 378.067 68.8996C390.826 80.3209 383.136 85.3763 382.658 94.8495C381.022 100.355 379.132 105.432 378.067 108.881C366.006 147.648 348.146 180.412 362.698 222.211C370.234 244.002 400.052 265.351 426.419 272.187C431.863 272.984 437.343 273.67 442.848 273.622V42.6922C427.386 13.6404 398.221 1.28268 366.864 0C335.158 1.6196 308.183 18.1735 291.67 45.2128C280.432 65.3937 277.007 84.0872 279.413 106.765C281.029 121.995 282.235 135.94 271.238 148.271C250.519 172.199 210.084 162.63 183.91 151.795C173.576 147.529 164.587 145.214 155.511 143.851C134.94 140.762 113.13 142.637 95.0835 152.984C86.4291 157.946 78.6953 164.399 72.0412 173.234C60.336 188.8 56.4853 206.321 56.0911 225.292C59.6198 253.975 72.9315 274.407 96.2917 291.785C98.562 293.473 101.063 294.83 103.675 295.919L111.717 299.272C141.834 311.405 190.02 337.139 183.617 356.739C168.728 381.528 135.993 348.496 124.42 336.188C91.1168 306.284 42.748 298.729 1.08487 319.494C1.07543 348.727 -1.47178 379.129 1.27268 408.303C14.5541 388.195 34.2054 365.282 61.6296 373.343C78.7889 376.21 89.8315 395.155 101.322 406.004Z" fill="var(--fill-0, #FBF5E7)" fill-opacity="0.5"/>
</g>
</svg>
