<svg overflow="visible" style="display: block;" viewBox="0 0 396.427 392.423" fill="none" xmlns="http://www.w3.org/2000/svg">
<g id="Vector" style="mix-blend-mode:multiply">
<path d="M90.7009 369.183C119.066 396.339 167.465 400.956 198.942 376.324C213.108 365.243 223.15 349.088 226.754 331.611C232.442 303.202 219.11 276.204 197.608 258.198C185.317 247.913 170.735 241.068 155.993 234.992C142.875 229.505 100.571 216.663 110.941 194.325C120.916 172.765 181.078 204.755 198.857 206.352C225.203 208.719 256.666 200.837 277.058 185.727C295.072 172.384 312.744 146.031 312.452 122.883C312.237 106.001 309.423 53.5404 338.437 62.651C349.858 73.0365 342.975 77.6334 342.546 86.2475C341.082 91.2537 339.39 95.8707 338.437 99.0064C327.64 134.258 311.652 164.05 324.678 202.058C331.425 221.873 358.117 241.286 381.72 247.502C386.593 248.227 391.499 248.851 396.427 248.806V38.8204C382.586 12.4033 356.478 1.16635 328.408 0C300.025 1.47272 275.878 16.5253 261.096 41.1124C251.036 59.4631 247.97 76.4613 250.124 97.0825C251.571 110.931 252.65 123.612 242.806 134.825C224.258 156.582 188.062 147.881 164.631 138.029C156.792 134.742 149.817 132.728 142.927 131.436C122.171 127.544 99.6467 129.523 81.9569 141.057C75.4771 145.282 69.6242 150.598 64.4895 157.523C54.0114 171.677 50.5643 187.61 50.2114 204.86C53.3517 230.789 65.1471 249.302 85.8312 265.044C88.1015 266.772 90.6156 268.154 93.2426 269.266L100.006 272.131C126.967 283.163 170.102 306.564 164.369 324.386C151.041 346.927 121.738 316.89 111.377 305.699C81.5656 278.507 38.267 271.637 0.971149 290.519C0.962703 317.1 -1.3175 344.746 1.13927 371.274C13.0285 352.989 30.6199 332.154 55.1694 339.484C70.5299 342.091 80.415 359.318 90.7009 369.183Z" fill="var(--fill-0, #FBF5E7)" fill-opacity="0.5"/>
</g>
</svg>
