<svg width="387" height="330" viewBox="0 0 387 330" fill="none" xmlns="http://www.w3.org/2000/svg">
<path d="M93.7372 394.767C123.052 423.804 173.071 428.742 205.602 402.402C220.242 390.554 230.62 373.279 234.345 354.591C240.223 324.213 226.444 295.344 204.223 276.09C191.52 265.093 176.45 257.774 161.215 251.277C147.658 245.409 103.937 231.677 114.655 207.791C124.964 184.738 187.139 218.944 205.514 220.652C232.742 223.183 265.258 214.755 286.333 198.598C304.949 184.33 323.213 156.151 322.911 131.398C322.689 113.347 319.781 57.2506 349.766 66.9926C361.57 78.0978 354.456 83.0132 354.013 92.2243C352.499 97.5775 350.751 102.514 349.766 105.867C338.608 143.562 322.084 175.418 335.547 216.06C342.519 237.248 370.105 258.007 394.498 264.654C399.534 265.428 404.605 266.096 409.697 266.048L409.697 41.5106C395.393 13.2629 368.411 1.24717 339.401 0C310.069 1.57477 285.113 17.6705 269.836 43.9614C259.439 63.5837 256.271 81.7599 258.497 103.81C259.992 118.618 261.108 132.178 250.934 144.168C231.766 167.432 194.357 158.128 170.143 147.594C162.039 144.078 154.83 141.925 147.709 140.544C126.287 136.388 102.963 138.574 84.8453 150.735C78.0909 155.268 71.9931 160.98 66.6484 168.439C55.8194 183.574 52.2569 200.611 51.8922 219.057C55.1426 246.824 67.3647 266.638 88.8011 283.487C91.0833 285.281 93.621 286.724 96.2797 287.889L103.354 290.989C131.217 302.786 175.796 327.808 169.871 346.865C156.097 370.968 125.813 338.85 115.106 326.883C84.296 297.806 39.548 290.461 1.00366 310.651C0.99493 339.075 -1.3616 368.636 1.17741 397.003C13.4646 377.45 31.6449 355.171 57.0162 363.01C72.891 365.797 83.1069 384.218 93.7372 394.767Z" fill="#FBF5E7" fill-opacity="0.5"/>
</svg>
