<svg width="351" height="454" viewBox="0 0 351 454" fill="none" xmlns="http://www.w3.org/2000/svg">
<path d="M23.7002 100.062C-4.52977 132.184 -8.75435 188.573 17.608 226.294C29.4671 243.27 46.6169 255.619 65.0732 260.493C95.0739 268.218 123.336 253.66 142.019 229.214C152.69 215.238 159.708 198.456 165.913 181.457C171.52 166.334 184.489 117.379 208.155 130.346C230.997 142.821 198.096 211.92 196.648 232.639C194.502 263.339 203.22 300.409 219.406 324.815C233.699 346.373 261.691 368.025 286.07 368.561C303.85 368.95 359.073 367.65 349.859 401.214C339.07 414.169 334.137 405.949 325.058 405.122C319.765 403.221 314.88 401.069 311.564 399.836C274.289 385.881 242.696 366.066 202.832 379.85C182.049 386.983 161.953 417.442 155.716 444.792C155.018 450.46 154.425 456.17 154.537 461.93L375.727 469.891C403.371 454.716 414.863 424.629 415.721 391.868C413.794 358.641 397.62 329.85 371.526 311.641C352.063 299.189 334.117 294.961 312.424 296.696C297.856 297.863 284.513 298.643 272.572 286.713C249.409 264.212 258.096 222.238 268.164 195.228C272.681 183.078 274.792 172.666 275.888 161.83C277.801 142.914 276.07 123.136 267.651 105.59C262.582 95.0264 255.866 85.5837 246.308 77.4527C231.26 64.6702 214.431 60.0376 196.256 58.9712C168.739 61.6827 149.291 74.9794 132.89 98.9608C131.403 101.135 130.223 103.516 129.291 105.998L126.054 114.616C114.789 145.707 90.7092 195.233 71.8605 187.857C47.9411 171.426 79.1931 138.318 90.8449 126.634C119.094 92.8233 125.758 42.4803 105.377 -1.82354C77.377 -2.84108 48.2264 -6.55398 20.3152 -4.68839C39.7327 9.89979 61.9119 31.2489 54.5148 59.6622C51.9714 77.5155 33.9557 88.4151 23.7002 100.062Z" fill="#FBF5E7" fill-opacity="0.24"/>
</svg>
