<svg width="230" height="454" viewBox="0 0 230 454" fill="none" xmlns="http://www.w3.org/2000/svg">
<path d="M111.404 -40.8681C74.6686 -49.3796 30.5659 -23.1401 14.1905 20.9276C6.81865 40.7552 5.28902 62.921 9.94117 82.2868C17.6515 113.66 41.2571 131.569 67.9547 135.502C83.2129 137.741 98.9292 135.164 114.442 131.735C128.281 128.762 170.752 114.431 171.691 142.847C172.627 170.25 106.116 177.218 89.9584 186.954C66.0168 201.38 42.194 229.072 31.2071 256.793C21.5005 281.275 17.8837 318.253 28.4464 340.686C36.1509 357.045 61.9583 406.516 32.6953 416.049C18.1479 413.158 22.0809 404.292 18.6171 395.603C17.6599 389.781 17.0732 384.195 16.505 380.526C10.1861 339.221 10.8081 299.953 -17.4349 271.092C-32.1202 256.017 -63.9537 254.008 -87.227 262.93C-91.7833 265.319 -96.3232 267.826 -100.584 271L-7.07026 476.178C16.7184 493.196 44.4038 487.588 69.3084 470.893C93.3098 451.421 107.584 421.371 109.476 387.954C110.044 363.632 105.137 345.075 94.0827 326.294C86.6585 313.682 80.0737 301.978 83.6324 284.767C90.056 251.724 125.376 237.227 150.119 231.967C159.311 230.002 166.875 227.179 174.079 223.558C192.284 214.409 209.425 199.506 219.439 178.93C223.784 170.003 226.92 160.323 228.434 149.292C231.234 128.805 227.133 111.047 219.757 93.9669C205.427 70.536 186.846 59.9495 161.718 57.7668C159.17 57.5455 156.57 57.773 153.992 58.3133L146.541 59.8744C118.206 66.2243 70.312 70.766 67.3552 49.7098C68.8958 19.2169 107.729 29.9472 121.713 34.3C159.722 41.9282 200.396 21.13 224.388 -21.0159C212.557 -46.9941 202.227 -75.4554 188.279 -99.8153C186.093 -74.395 180.089 -42.8599 155.498 -34.4244C140.992 -27.2122 124.733 -37.7643 111.404 -40.8681Z" fill="#FBF5E7" fill-opacity="0.24"/>
</svg>
