<svg width="450" height="336" viewBox="0 0 450 336" fill="none" xmlns="http://www.w3.org/2000/svg">
<path d="M346.916 -90.4415C314.729 -121.791 259.809 -127.121 224.091 -98.6848C208.017 -85.8927 196.622 -67.2425 192.532 -47.0672C186.078 -14.2699 201.207 16.8974 225.605 37.6844C239.553 49.5571 256.099 57.4594 272.827 64.4739C287.712 70.8086 335.717 85.6338 323.949 111.421C312.631 136.311 244.363 99.3813 224.188 97.5373C194.292 94.8042 158.591 103.903 135.45 121.347C115.01 136.751 94.957 167.174 95.2886 193.897C95.5322 213.386 98.7255 273.949 65.8023 263.431C52.8419 251.442 60.653 246.135 61.1394 236.19C62.8011 230.411 64.7204 225.081 65.8023 221.461C78.054 180.765 96.1962 146.372 81.4144 102.494C73.7589 79.6192 43.4707 57.2082 16.6876 50.0316C11.1576 49.1954 5.59058 48.4749 -0.00085279 48.526L-0.000831598 290.942C15.7051 321.439 45.3307 334.411 77.1823 335.758C109.389 334.058 136.79 316.68 153.564 288.296C164.979 267.111 168.458 247.488 166.014 223.682C164.372 207.695 163.147 193.056 174.318 180.111C195.364 154.994 236.438 165.039 263.025 176.412C273.328 180.807 282.314 183.23 291.359 184.671C312.562 188.048 335.154 185.997 353.577 174.971C362.237 169.788 369.983 163.068 376.659 153.907C388.549 137.567 392.461 119.174 392.861 99.259C389.275 69.1351 375.742 47.681 351.991 29.4329C349.709 27.6792 347.183 26.2641 344.54 25.1251L336.358 21.5995C305.765 8.86316 256.818 -18.1513 263.323 -38.7258C278.447 -64.7476 311.698 -30.0725 323.454 -17.1526C357.283 14.2391 406.415 22.1694 448.736 0.371663C448.745 -30.315 451.333 -62.2299 448.545 -92.8552C435.054 -71.7463 415.092 -47.6934 387.235 -56.1556C369.805 -59.1653 358.588 -79.053 346.916 -90.4415Z" fill="#FBF5E7" fill-opacity="0.5"/>
</svg>
