<svg width="18" height="18" viewBox="0 0 18 18" fill="none" xmlns="http://www.w3.org/2000/svg">
<path d="M7.83248 0.725764C8.31006 -0.241923 9.68995 -0.24192 10.1675 0.725766L11.94 4.31728C12.1297 4.70155 12.4963 4.9679 12.9204 5.02952L16.8838 5.60544C17.9517 5.76062 18.3781 7.07297 17.6054 7.82621L14.7374 10.6218C14.4305 10.9209 14.2905 11.3519 14.363 11.7742L15.04 15.7217C15.2224 16.7853 14.1061 17.5964 13.1509 17.0942L9.60586 15.2305C9.22657 15.0311 8.77344 15.0311 8.39414 15.2305L4.8491 17.0942C3.89393 17.5964 2.77758 16.7853 2.96 15.7217L3.63705 11.7742C3.70948 11.3519 3.56946 10.9209 3.2626 10.6218L0.394603 7.82621C-0.37814 7.07297 0.0482707 5.76062 1.11618 5.60544L5.07965 5.02952C5.50372 4.9679 5.87031 4.70155 6.05996 4.31728L7.83248 0.725764Z" fill="#FEAE01"/>
</svg>
