<svg overflow="visible" style="display: block;" viewBox="0 0 572.002 88.9815" fill="none" xmlns="http://www.w3.org/2000/svg">
<g id="Group 1" opacity="0.06">
<path id="Vector" d="M202.135 52.0251C195.565 43.5448 178.182 39.4143 179.677 26.0533C180.364 19.9127 182.218 10.2023 187.697 6.04225C197.94 -1.73674 218.316 -2.55132 227.733 6.822C232.134 10.7828 232.654 11.1893 232.91 16.732C233.624 16.8001 233.876 16.866 234.491 16.5485C235.728 14.6078 236.161 9.19713 236.46 6.76366C239.153 6.76999 256.132 6.47911 257.164 7.12265C258.25 8.2144 260.104 9.83803 261.353 10.8226C261.133 12.4431 260.817 15.0553 260.758 16.6657L261.108 17.3948C262.574 18.4094 264.021 19.3755 265.023 20.8162C265.373 20.504 265.733 20.202 266.103 19.9109C273.562 14.0551 282.03 13.703 291.429 14.2518C296.656 14.5569 300.492 16.2317 303.899 19.7947C305.549 21.2317 306.706 22.3145 308.205 23.8774L307.641 26.3925L312.219 26.4262C310.893 31.3756 310.063 36.6704 309.149 41.7435C308.418 45.784 306.546 52.5807 306.178 56.3668C305.365 58.716 304.991 61.3805 304.407 63.7949C303.072 69.2917 302.242 74.5797 301.325 80.1258C296.159 80.148 286.392 80.4386 281.542 80.0532C280.751 79.3223 279.746 78.4457 279.009 77.6963C272.24 82.5461 262.646 82.5875 257.046 76.2453C256.843 76.0135 256.651 75.7738 256.471 75.5265L255.774 75.0149C255.291 75.682 254.565 79.1399 254.326 80.1398C250.144 80.1641 245.894 80.2058 241.721 80.0857C234.946 79.8909 232.922 78.7952 228.53 74.533C228.441 74.473 228.353 74.4105 228.268 74.3458C225.816 72.4835 225.106 70.7981 224.861 68.0278C223.627 71.2559 222.524 73.1295 219.586 75.5049C209.91 83.3274 187.49 84.5023 179.385 74.4514C170.854 69.0724 173.78 57.8125 175.312 49.7753C177.797 49.7505 194.639 49.3754 195.534 50.113C196.901 51.5698 198.489 52.3659 199.863 53.8422C199.229 56.8263 197.922 62.1776 197.668 65.0878C202.122 63.0474 202.308 55.969 202.135 52.0251ZM205.113 27.83C210.316 31.1034 216.792 34.7377 220.625 39.3522C225.747 43.4951 227.007 45.6528 227.957 51.7738C228.388 50.0404 228.694 47.0404 229.07 45.0932L232.251 29.437C230.729 28.1021 229.612 28.1307 227.538 28.1256C222.319 28.1132 217.114 28.2845 211.894 28.1631C210.446 26.7694 209.006 25.6982 207.398 24.4632C207.339 22.7923 208.104 18.9463 208.432 17.1751C204.907 19.7308 204.739 24.064 205.113 27.83ZM285.466 28.9732C283.43 30.3186 282.407 35.9941 282.273 38.2708C284.552 36.6604 285.113 31.5477 285.466 28.9732ZM252.628 66.7131C253.32 61.7857 253.651 56.5925 255.705 51.8221C257.982 46.5371 264.335 44.9723 269.602 43.0651C267.17 42.7859 264.498 42.7576 262.029 42.6866C260.521 40.756 259.809 40.3305 257.714 39.0278C257.562 37.6729 259.199 31.966 259.671 30.2983C258.533 30.1885 258.495 30.0045 257.691 30.4971C257.012 33.1064 256.92 35.6766 256.317 38.2127C254.099 47.5317 252.795 56.8757 250.834 66.2033C251.218 66.3163 252.139 66.5658 252.451 66.7125L252.628 66.7131Z" fill="var(--fill-0, #FBF5E7)"/>
<path id="Vector_2" d="M265.021 20.8191C265.37 20.5069 265.73 20.2049 266.1 19.9138C273.559 14.058 282.027 13.7059 291.426 14.2547C296.653 14.5598 300.489 16.2346 303.896 19.7976C305.547 21.2346 306.704 22.3174 308.202 23.8803L307.639 26.3954L312.217 26.4292C310.89 31.3785 310.061 36.6733 309.146 41.7464C308.416 45.7869 306.543 52.5836 306.175 56.3697C305.363 58.7189 304.989 61.3834 304.404 63.7978C303.069 69.2946 302.239 74.5826 301.322 80.1287C296.157 80.1509 286.389 80.4415 281.54 80.0561C280.748 79.3252 279.743 78.4486 279.006 77.6992C272.237 82.549 262.644 82.5904 257.044 76.2482C256.84 76.0164 256.648 75.7767 256.469 75.5294L255.771 75.0178C255.091 74.3004 254.163 73.484 253.417 72.795C252.798 70.9016 252.737 68.6885 252.625 66.716C253.317 61.7886 253.648 56.5954 255.703 51.825C257.979 46.54 264.332 44.9752 269.599 43.068C267.167 42.7888 264.495 42.7605 262.027 42.6895C260.519 40.7589 259.807 40.3334 257.711 39.0307C257.559 37.6758 259.196 31.9689 259.668 30.3012C261.289 25.674 261.621 24.5899 265.021 20.8191ZM282.27 38.2737C284.549 36.6633 285.11 31.5506 285.463 28.9761C283.427 30.3215 282.404 35.997 282.27 38.2737Z" fill="var(--fill-0, #FBF5E7)"/>
<path id="Vector_3" d="M303.896 19.7969C305.547 21.2339 306.704 22.3167 308.202 23.8796L307.639 26.3946L312.217 26.4284C310.89 31.3777 310.061 36.6725 309.146 41.7456C308.416 45.7861 306.543 52.5829 306.175 56.3689C305.363 58.7182 304.989 61.3826 304.404 63.7971C303.069 69.2939 302.239 74.5818 301.322 80.128C296.157 80.1501 286.389 80.4408 281.54 80.0554C280.748 79.3245 279.743 78.4478 279.007 77.6984C272.237 82.5482 262.644 82.5897 257.044 76.2474C256.84 76.0157 256.648 75.776 256.469 75.5287C265.549 79.3131 270.896 77.5612 277.671 71.5558C277.546 73.04 277.283 74.7993 277.099 76.2994L297.015 76.3116C297.679 73.4962 297.901 70.9743 298.479 68.2401C299.925 61.3932 301.296 54.9343 302.453 48.0245C303.718 40.4813 305.988 32.6696 305.853 24.9613C305.824 23.1149 304.813 21.3907 303.896 19.7969Z" fill="var(--fill-0, black)"/>
<path id="Vector_4" d="M277.393 38.9799C277.586 36.5697 278.711 20.5516 284.998 25.9101C285.878 26.6613 285.612 27.984 285.463 28.9763C283.427 30.3217 282.404 35.9971 282.27 38.2738C279.573 39.9199 272.944 41.8833 269.599 43.0682C267.167 42.7889 264.495 42.7607 262.026 42.6897C260.518 40.759 259.806 40.3335 257.711 39.0309L277.393 38.9799Z" fill="var(--fill-0, black)"/>
<path id="Vector_5" d="M281.254 47.6875L281.646 47.9794C282.128 49.6229 278.59 64.7627 277.073 66.0981C276.072 66.4914 274.574 66.2929 273.437 66.2227C273.061 65.7655 272.637 64.6991 272.683 64.1089C273.301 56.161 273.646 52.4515 281.254 47.6875Z" fill="var(--fill-0, black)"/>
<path id="Vector_6" d="M236.459 6.76329C239.152 6.76963 256.131 6.47874 257.162 7.12228C258.248 8.21403 260.103 9.83767 261.352 10.8222C261.132 12.4427 260.816 15.0549 260.757 16.6653L261.106 17.3944C262.573 18.4091 264.02 19.3752 265.022 20.8159C261.622 24.5866 261.29 25.6707 259.669 30.298C258.532 30.1881 258.494 30.0042 257.69 30.4967C257.011 33.106 256.919 35.6762 256.315 38.2124C254.098 47.5313 252.793 56.8753 250.833 66.203C251.217 66.316 252.138 66.5654 252.45 66.7122L252.627 66.7127C252.738 68.6853 252.8 70.8984 253.418 72.7918C254.164 73.4807 255.093 74.2971 255.773 75.0146C255.29 75.6816 254.563 79.1395 254.324 80.1394C250.143 80.1637 245.893 80.2054 241.72 80.0853C234.945 79.8905 232.921 78.7948 228.529 74.5326C228.44 74.4727 228.352 74.4101 228.267 74.3454C225.814 72.4832 225.105 70.7978 224.859 68.0275L227.956 51.7734C228.386 50.04 228.693 47.0401 229.069 45.0928L232.249 29.4366L232.698 26.4095L228.344 26.4013C228.759 24.2192 229.631 18.8517 230.357 17.1151C230.938 16.6899 232.109 16.759 232.908 16.7316C233.623 16.7997 233.875 16.8657 234.489 16.5481C235.727 14.6075 236.16 9.19676 236.459 6.76329Z" fill="var(--fill-0, #FBF5E7)"/>
<path id="Vector_7" d="M261.103 17.3984C262.57 18.4131 264.017 19.3792 265.019 20.8199C261.619 24.5906 261.287 25.6747 259.666 30.302C258.529 30.1922 258.491 30.0082 257.687 30.5008C257.008 33.11 256.916 35.6802 256.312 38.2164C254.095 47.5353 252.79 56.8794 250.83 66.207C249.554 66.3387 247.708 66.1373 246.385 66.0352C246.325 62.1613 247.514 58.7052 248.062 55.0113C249.497 45.3394 252.177 36.0899 253.382 26.4025L259.154 26.4146C259.746 23.3994 260.396 20.3934 261.103 17.3984Z" fill="var(--fill-0, black)"/>
<path id="Vector_8" d="M252.452 66.7109L252.629 66.7115C252.741 68.6841 252.802 70.8971 253.42 72.7905C254.166 73.4795 255.095 74.2959 255.775 75.0134C255.292 75.6804 254.565 79.1383 254.326 80.1382C250.145 80.1625 245.895 80.2042 241.722 80.0841C234.947 79.8893 232.923 78.7936 228.531 74.5314C234.126 76.9778 243.739 76.3129 250.231 76.3044C250.682 74.2046 251.737 68.3459 252.452 66.7109Z" fill="var(--fill-0, black)"/>
<path id="Vector_9" d="M257.165 7.125C258.251 8.21675 260.106 9.84039 261.355 10.825C261.135 12.4454 260.819 15.0576 260.759 16.668C259.532 16.8259 256.823 16.7969 255.484 16.8161C256.257 13.6188 256.818 10.3826 257.165 7.125Z" fill="var(--fill-0, black)"/>
<path id="Vector_10" d="M220.623 39.3516C225.744 43.4945 227.004 45.6521 227.955 51.7731L224.858 68.0272C223.625 71.2552 222.522 73.1288 219.584 75.5042C209.907 83.3267 187.487 84.5016 179.383 74.4507C183.129 76.1947 185.245 77.1035 189.471 77.5195C203.26 78.8771 218.818 75.2782 221.65 61.0351C222.363 57.4504 223.577 53.8315 223.551 50.0555C223.617 45.4731 223.198 43.3113 220.623 39.3516Z" fill="var(--fill-0, black)"/>
<path id="Vector_11" d="M227.733 6.82812C232.134 10.7889 232.654 11.1954 232.91 16.7381C232.11 16.7655 230.939 16.6964 230.358 17.1216C229.633 18.8582 228.761 24.2256 228.345 26.4078L232.699 26.416L232.251 29.4431C230.729 28.1083 229.612 28.1368 227.538 28.1318C222.319 28.1194 217.115 28.2907 211.894 28.1693C210.446 26.7755 209.006 25.7044 207.398 24.4693C213.818 24.2806 220.762 24.3951 227.22 24.3964C228.459 19.572 229.617 11.5845 227.733 6.82812Z" fill="var(--fill-0, black)"/>
<path id="Vector_12" d="M205.109 27.8272C201.998 25.9335 200.489 24.0047 200.635 20.4774C200.743 17.8349 202.842 12.7032 206.594 13.0651C207.169 13.1184 207.696 13.38 208.055 13.7904C208.887 14.7544 208.583 16.0156 208.428 17.1723C204.903 19.728 204.735 24.0612 205.109 27.8272Z" fill="var(--fill-0, black)"/>
<path id="Vector_13" d="M197.667 65.0921C197.248 65.1602 196.13 65.2053 195.702 65.1528C195.087 65.072 194.531 64.7777 194.153 64.3324C192.247 62.1019 195.135 53.5487 195.533 50.1172C196.9 51.574 198.488 52.3701 199.862 53.8465C199.228 56.8306 197.92 62.1819 197.667 65.0921Z" fill="var(--fill-0, black)"/>
<path id="Vector_14" d="M315.719 6.80762C318.428 6.7279 334.935 6.59434 336.612 6.97787C337.231 7.9577 339.618 10.3328 340.711 10.8721C340.518 11.9127 339.732 15.7958 339.782 16.6196L340.229 17.1206C342.303 18.6205 342.666 19.0563 344.378 20.9954C353.616 14.1186 357.496 13.7834 370.059 14.3081C374.622 14.4987 379.747 16.9736 382.692 20.1924C382.935 20.4598 383.162 20.7406 383.367 21.0334C387.256 24.0813 389.199 27.0412 389.435 31.8326C389.695 37.0662 388.299 45.5655 387.066 50.6487C385.888 50.6405 382.993 50.5204 382.017 50.8255L382.041 51.136C384.127 52.4954 384.489 53.7083 386.16 54.9457C384.173 64.3412 383.487 71.3634 374.053 77.1722C364.297 83.1771 346.724 82.9461 339.166 74.205C337.541 73.1465 336.656 72.2028 335.435 70.8273C334.833 74.257 334.602 76.662 333.737 80.1452C328.861 80.1595 324.002 80.2455 319.132 80.0056C313.914 79.7485 311.428 78.1563 308.149 74.7519C301.357 70.3715 305.838 62.6513 306.171 56.3682C306.54 52.5822 308.412 45.7854 309.143 41.745C310.057 36.6719 310.887 31.377 312.213 26.4277L307.635 26.3939L308.199 23.8789C308.38 22.9822 308.623 21.6159 308.716 20.7251C309.163 16.5193 309.996 16.4468 314.197 16.8282C314.308 13.6791 315.129 9.96145 315.719 6.80762ZM331.371 66.5971C332.428 67.6627 333.462 68.7201 334.716 69.6078C331.934 62.904 333.354 58.2601 334.517 51.4126C335.736 44.2442 337.264 37.2539 339.034 30.1784C337.95 30.1702 337.81 29.9949 337.103 30.5205C335.876 34.208 335.265 40.1894 334.473 44.1328C332.986 51.5319 331.178 58.6394 330.307 66.1156L331.371 66.5971ZM362.404 50.8401C361.589 50.6474 361.268 50.517 360.479 50.744C360.134 51.1592 357.581 65.1738 357.61 66.1053C360.28 64.7894 361.797 53.8529 362.404 50.8401Z" fill="var(--fill-0, #FBF5E7)"/>
<path id="Vector_15" d="M315.719 6.80762C318.428 6.7279 334.935 6.59434 336.612 6.97787C337.231 7.9577 339.618 10.3328 340.711 10.8721C340.518 11.9127 339.732 15.7958 339.782 16.6196L340.229 17.1206C342.303 18.6205 342.666 19.0563 344.378 20.9954C342.058 24.0283 340.325 26.6444 339.034 30.1784C337.95 30.1702 337.81 29.9949 337.103 30.5205C335.876 34.208 335.265 40.1894 334.473 44.1328C332.986 51.5319 331.178 58.6394 330.307 66.1156L331.371 66.597C332.428 67.6627 333.462 68.7201 334.716 69.6078L335.435 70.8273C334.833 74.257 334.602 76.6619 333.737 80.1452C328.861 80.1594 324.002 80.2455 319.132 80.0056C313.914 79.7485 311.428 78.1562 308.149 74.7519C301.357 70.3714 305.838 62.6513 306.171 56.3682C306.54 52.5822 308.412 45.7854 309.143 41.7449C310.057 36.6718 310.887 31.377 312.213 26.4277L307.635 26.3939L308.199 23.8789C308.38 22.9822 308.623 21.6159 308.716 20.7251C309.163 16.5193 309.996 16.4467 314.197 16.8282C314.308 13.6791 315.129 9.96145 315.719 6.80762Z" fill="var(--fill-0, #FBF5E7)"/>
<path id="Vector_16" d="M340.231 17.1172C342.305 18.617 342.667 19.0528 344.379 20.9919C342.059 24.0248 340.327 26.641 339.036 30.1749C337.952 30.1667 337.811 29.9915 337.104 30.517C335.877 34.2046 335.267 40.186 334.475 44.1293C332.988 51.5284 331.179 58.6359 330.309 66.1121C328.515 66.3267 327.486 66.1892 325.719 66.0248C325.786 59.664 328.395 49.9143 329.575 43.561C330.639 37.8351 331.653 32.0889 332.88 26.3926L338.518 26.3976C339.076 23.1361 339.407 20.3573 340.231 17.1172Z" fill="var(--fill-0, black)"/>
<path id="Vector_17" d="M331.377 66.5938C332.435 67.6594 333.469 68.7168 334.723 69.6045L335.441 70.824C334.84 74.2537 334.609 76.6586 333.744 80.1419C328.868 80.1562 324.009 80.2422 319.139 80.0023C313.921 79.7452 311.434 78.1529 308.156 74.7486C313.789 76.888 323.305 76.311 329.697 76.3044C330.369 73.0825 330.735 69.8408 331.377 66.5938Z" fill="var(--fill-0, black)"/>
<path id="Vector_18" d="M336.614 6.97656C337.234 7.95639 339.621 10.3315 340.714 10.8708C340.521 11.9113 339.735 15.7945 339.784 16.6183C338.566 16.8414 336.238 16.7949 334.914 16.8057C335.095 13.7794 335.989 10.0264 336.614 6.97656Z" fill="var(--fill-0, black)"/>
<path id="Vector_19" d="M383.373 21.0312C387.261 24.0792 389.204 27.039 389.441 31.8305C389.701 37.0641 388.305 45.5634 387.072 50.6466C385.894 50.6384 382.999 50.5183 382.023 50.8234C375.94 50.9543 368.484 51.0169 362.41 50.8379C361.595 50.6452 361.274 50.5148 360.485 50.7419C360.14 51.1571 357.586 65.1716 357.616 66.1032C356.216 66.3014 354.831 66.592 353.633 65.8125C352.424 64.2428 355.582 49.5437 356.044 46.8518L382.853 46.8838C384.924 38.684 386.648 28.9786 383.373 21.0312Z" fill="var(--fill-0, black)"/>
<path id="Vector_20" d="M382.047 51.1328C384.133 52.4922 384.495 53.7051 386.166 54.9426C384.18 64.3381 383.493 71.3603 374.059 77.1691C364.304 83.1739 346.73 82.943 339.172 74.2018C348.968 78.42 360.292 79.0962 369.832 73.4643C379.242 67.909 379.993 60.3454 382.047 51.1328Z" fill="var(--fill-0, black)"/>
<path id="Vector_21" d="M362.188 25.029C363.657 24.9797 364.601 24.8173 365.524 25.9624C365.787 28.0596 364.566 34.3533 363.894 36.5246L362.626 36.6344L358.305 36.6355C358.889 33.6527 359.175 26.4212 362.188 25.029Z" fill="var(--fill-0, black)"/>
<path id="Vector_22" d="M512.065 48.9291C514.419 40.2048 516.368 21.5186 520.198 13.9379C521.881 10.6022 524.403 7.66903 527.567 5.37308C537.313 -1.63407 556.909 -2.23433 565.098 7.10336C576.39 16.4833 570.851 25.7038 569.051 37.4411C567.701 46.2319 565.712 55.1934 563.556 63.8459C561.452 72.298 556.301 73.0215 549.222 76.1935C550.487 76.2123 555.854 76.0444 556.424 76.4958C557.809 77.7206 559.448 78.8155 560.663 80.1131C560.213 83.1695 559.895 85.8453 559.197 88.878C551.662 88.9031 543.186 89.2803 535.707 88.3775C533.545 88.1167 531.488 85.7133 530.05 84.3017C527.435 83.2667 527.526 81.6449 527.581 79.4184C522.74 78.7854 519.941 76.4517 516.804 73.4594C516.31 73.0877 515.828 72.7055 515.354 72.3133C511.013 68.6899 510.949 65.7894 510.727 60.8779C510.975 57.6726 511.311 51.9087 512.065 48.9291ZM546.417 17.3274C545.83 17.7189 545.117 18.2846 544.939 18.9593C541.883 30.5251 540.235 42.3949 537.725 54.0721C537.185 56.5903 535.704 62.3772 535.812 64.7056C538.573 61.6172 540.089 50.474 540.863 46.04C542.479 36.7886 545.138 26.5595 546.417 17.3274Z" fill="var(--fill-0, #FBF5E7)"/>
<path id="Vector_23" d="M565.095 7.10938C576.387 16.4893 570.848 25.7098 569.048 37.4471C567.698 46.2379 565.709 55.1994 563.553 63.8519C561.449 72.304 556.298 73.0275 549.219 76.1995C546.902 76.2088 544.033 76.1618 543.633 73.4863C544.299 71.9416 548.088 71.2809 549.911 70.5811C558.887 67.1337 559.632 59.3727 561.312 51.7774C562.618 45.8792 563.932 39.5665 564.894 33.5162C565.843 27.5607 567.894 21.2895 567.783 15.1626C567.736 12.1534 566.433 9.77434 565.095 7.10938Z" fill="var(--fill-0, black)"/>
<path id="Vector_24" d="M556.42 76.5C557.805 77.7248 559.444 78.8197 560.66 80.1173C560.21 83.1738 559.891 85.8496 559.193 88.8822C551.658 88.9073 543.183 89.2845 535.703 88.3818C533.541 88.121 531.484 85.7176 530.047 84.3059C534.406 85.4462 549.8 85.0392 555.006 85.0265C555.722 82.0599 556.032 79.5015 556.42 76.5Z" fill="var(--fill-0, black)"/>
<path id="Vector_25" d="M516.805 73.4609C520.837 75.1133 523.384 76.1557 527.881 76.3408C527.775 77.3314 527.629 78.4369 527.583 79.4199C522.741 78.7869 519.943 76.4532 516.805 73.4609Z" fill="var(--fill-0, black)"/>
<path id="Vector_26" d="M535.807 64.7137C535.447 64.8507 535.053 64.9919 534.679 65.0838C533.817 65.3 532.894 65.1994 532.114 64.8035C530.448 62.6493 532.774 53.5975 533.373 50.7625C535.815 39.2479 537.568 27.5998 540.388 16.1485C541.346 12.2553 547.426 11.1042 546.412 17.3356C545.825 17.727 545.112 18.2927 544.934 18.9674C541.878 30.5332 540.23 42.4031 537.72 54.0802C537.18 56.5984 535.699 62.3853 535.807 64.7137Z" fill="var(--fill-0, black)"/>
<path id="Vector_27" d="M412.211 1.88778C420.686 1.66975 430.237 1.83763 438.754 1.93926C445.485 2.0195 450.648 2.77628 455.255 7.34178C458.887 10.1525 461.446 13.2231 461.7 17.8087C461.998 23.1951 460.716 31.1845 457.043 35.6188C455.913 36.9869 452.071 38.6172 450.268 39.1116L451.749 40.4063C456.538 44.1292 456.135 44.9913 457.674 49.6619C456.824 54.1778 455.907 58.6828 454.922 63.1757C454.604 64.6906 453.643 68.8171 453.613 70.1853C450.47 74.8556 448.816 77.8914 442.312 79.0824C434.038 80.5978 424.105 80.0786 415.6 80.1707C411.936 80.2106 405.564 80.2987 402.228 80.0699C400.793 78.7234 399.624 77.4743 397.904 76.4407C397.448 75.5904 399.192 68.4394 399.519 66.759L403.753 45.1083C406.59 30.6816 409.143 16.3068 412.211 1.88778ZM431.868 46.7747C430.827 46.5603 430.868 46.4049 430.042 46.7636C429.72 47.4462 429.557 48.1354 429.454 48.8682C428.806 53.5123 427.847 58.1063 426.837 62.6961C429.901 61.4481 431.242 50.079 431.868 46.7747ZM437.2 18.9163L436.925 18.2683L436.39 18.1606C434.783 19.1858 433.229 28.4699 433.118 30.5114C436.183 28.3337 436.878 22.2726 437.2 18.9163Z" fill="var(--fill-0, #FBF5E7)"/>
<path id="Vector_28" d="M451.752 40.4062C456.541 44.1292 456.137 44.9913 457.677 49.6618C456.827 54.1777 455.909 58.6828 454.925 63.1757C454.606 64.6906 453.645 68.8171 453.616 70.1852C450.472 74.8555 448.819 77.8913 442.315 79.0823C434.041 80.5978 424.107 80.0785 415.603 80.1707C411.939 80.2105 405.567 80.2987 402.23 80.0698C400.796 78.7234 399.627 77.4743 397.906 76.4406C411.667 75.4328 427.97 77.9674 441.129 74.448C450.729 71.8807 455.071 47.8693 451.752 40.4062Z" fill="var(--fill-0, black)"/>
<path id="Vector_29" d="M455.255 7.34375C458.886 10.1544 461.446 13.2251 461.7 17.8107C461.998 23.1971 460.715 31.1865 457.043 35.6208C455.912 36.9889 452.07 38.6191 450.267 39.1135C448.059 37.2795 445.891 36.7521 443.109 36.1859C452.026 33.961 455.056 31.3625 456.692 22.9738C457.84 17.0808 458.223 12.859 455.255 7.34375Z" fill="var(--fill-0, black)"/>
<path id="Vector_30" d="M425.727 42.6953C429.572 43.049 432.009 42.5961 431.868 46.7741C430.828 46.5597 430.869 46.4043 430.042 46.763C429.721 47.4456 429.557 48.1348 429.455 48.8676C428.806 53.5117 427.848 58.1057 426.837 62.6955C424.78 63.126 423.749 63.2876 421.648 63.4573C422.615 58.9647 423.55 54.4657 424.447 49.9612C424.929 47.4374 425.113 45.2325 425.727 42.6953Z" fill="var(--fill-0, black)"/>
<path id="Vector_31" d="M431.325 14.4297L431.895 14.4521C435.921 14.6269 437.569 14.8808 437.203 18.9139L436.929 18.2659L436.394 18.1582C434.787 19.1834 433.233 28.4675 433.122 30.509C431.649 30.9836 429.686 31.0002 428.094 31.0844C429.251 26.9188 430.244 19.2718 431.325 14.4297Z" fill="var(--fill-0, black)"/>
<path id="Vector_32" d="M466.709 1.94595C473.765 1.46289 483.827 2.08638 491.145 1.88761C495.098 1.78044 503.408 2.46569 506.683 4.47181C507.843 5.18266 509.163 6.41299 510.183 7.37118C514.893 11.8255 516.406 13.4006 516.289 20.2056C516.204 25.0079 514.989 32.9735 511.004 36.2867C509.669 37.3975 506.876 38.4895 505.143 39.1505L506.776 40.6659C508.164 41.9527 509.78 43.3831 511.097 44.7C511.387 46.1719 511.638 47.4864 512.061 48.939C511.308 51.9186 510.972 57.6825 510.723 60.8878C507.977 70.0357 507.206 78.2874 494.201 79.5914C486.456 80.368 478.807 80.1241 471.024 80.1785C467.08 80.1602 460.664 80.3529 457.032 80.0531C455.651 78.8399 454.245 77.5671 452.79 76.4307C452.364 75.6357 453.389 71.3911 453.614 70.1917C453.643 68.8236 454.605 64.697 454.923 63.1821C455.908 58.6892 456.825 54.1842 457.675 49.6683C457.947 45.2519 460.027 37.606 460.883 32.9476C462.785 22.557 464.839 12.3593 466.709 1.94595ZM486.605 46.4862C486.068 46.5121 485.083 46.4535 484.925 46.8199C483.242 50.716 482.527 58.8817 481.799 62.6672C484.543 61.0008 486.336 49.7512 486.605 46.4862ZM492.001 18.2425C491.476 18.3035 490.824 18.272 490.637 18.6788C489.343 21.5209 488.425 27.5461 487.841 30.4954C487.99 30.4101 488.133 30.3214 488.276 30.2293C490.915 28.5143 491.481 21.3319 492.001 18.2425Z" fill="var(--fill-0, #FBF5E7)"/>
<path id="Vector_33" d="M506.775 40.6641C508.163 41.9509 509.778 43.3813 511.096 44.6982C511.385 46.1701 511.637 47.4846 512.06 48.9372C511.306 51.9168 510.971 57.6807 510.722 60.886C507.976 70.0339 507.205 78.2856 494.2 79.5896C486.455 80.3662 478.806 80.1223 471.023 80.1767C467.079 80.1584 460.663 80.3511 457.031 80.0513C455.649 78.8381 454.244 77.5653 452.789 76.4289C465.761 75.7331 479.247 77.2285 492.143 75.4554C496.917 74.762 501.312 72.0353 503.032 67.8108C506.395 59.5596 508.829 49.3566 506.775 40.6641Z" fill="var(--fill-0, black)"/>
<path id="Vector_34" d="M510.181 7.36719C514.89 11.8216 516.404 13.3966 516.287 20.2016C516.202 25.0039 514.987 32.9695 511.002 36.2827C509.666 37.3935 506.873 38.4855 505.141 39.1465C502.018 37.1731 501.474 36.8368 497.734 36.2017C506.342 33.9852 509.999 31.6233 511.34 23.0896C512.258 17.2431 512.772 12.9537 510.181 7.36719Z" fill="var(--fill-0, black)"/>
<path id="Vector_35" d="M480.604 42.6797C482.146 42.837 485.103 42.9436 486.149 43.9356C486.909 44.6584 486.652 45.5183 486.608 46.4768C486.07 46.5027 485.086 46.4441 484.928 46.8104C483.245 50.7065 482.529 58.8722 481.802 62.6577C479.757 63.0808 478.547 63.2606 476.461 63.4654C478.12 57.365 479.052 49.345 480.604 42.6797Z" fill="var(--fill-0, black)"/>
<path id="Vector_36" d="M486.135 14.4375C489.752 14.5885 491.59 14.3958 492.002 18.2375C491.476 18.2985 490.824 18.2671 490.637 18.6738C489.343 21.5159 488.426 27.5411 487.841 30.4904C485.91 31.0204 484.736 30.9896 482.734 31.0769C483.643 25.7924 485.042 19.76 486.135 14.4375Z" fill="var(--fill-0, black)"/>
<path id="Vector_37" d="M14.2755 1.90756C15.3623 1.86401 16.5509 1.85662 17.6526 1.87509C28.4311 2.05512 39.5508 1.24264 50.1979 2.95761C53.5025 3.48976 55.0116 4.81406 57.0468 7.05959C66.5821 14.5443 62.6651 19.0768 62.273 27.9654C61.7065 29.517 60.3199 33.1082 60.2588 34.5669C58.403 37.2049 56.2401 39.65 52.6614 40.3701C52.186 40.4678 51.7078 40.5544 51.2275 40.6299L51.8518 41.4062C53.5215 43.0369 55.7174 44.5721 56.4303 46.5432C56.598 47.0067 56.9509 48.0992 57.4201 48.2238C56.5644 52.9374 55.8764 57.556 55.4901 62.3207C55.4667 62.6103 55.4396 63.0057 55.3747 63.2837C54.5213 67.1848 52.2173 76.6051 52.2179 80.1272C46.0784 80.152 38.1601 80.3835 32.1439 80.0923C30.9089 78.3821 29.7835 77.6528 27.9876 76.4285C27.4448 75.6282 29.4797 67.3978 29.7631 65.923C31.003 59.4694 32.4419 52.9419 33.2565 46.4254C32.8667 46.5038 32.11 46.5867 32.0399 46.918C30.0845 56.1493 27.4459 71.5333 25.5045 80.1528C19.5622 80.1601 9.92006 80.4096 4.27216 80.0802C2.91482 78.72 1.79984 77.5084 0.158289 76.4185C-0.59596 75.3993 1.57078 66.9559 1.92918 65.1634L5.897 44.8219C8.81463 30.5961 11.2561 16.1726 14.2755 1.90756Z" fill="var(--fill-0, #FBF5E7)"/>
<path id="Vector_38" d="M27.6674 42.6875C30.9732 42.9554 33.4347 42.711 33.2544 46.4223C32.8647 46.5007 32.108 46.5836 32.0379 46.9149C30.0824 56.1462 27.4439 71.5302 25.5025 80.1496C19.5601 80.157 9.91802 80.4065 4.27012 80.077C2.91278 78.7168 1.7978 77.5053 0.15625 76.4154C5.44832 76.0004 15.7048 76.3018 21.3187 76.3119C22.6918 70.0137 23.7018 63.7499 24.9847 57.448C25.9947 52.4877 27.1839 47.731 27.6674 42.6875Z" fill="var(--fill-0, black)"/>
<path id="Vector_39" d="M51.8486 41.4062C53.5183 43.037 55.7142 44.5722 56.4271 46.5432C56.5948 47.0067 56.9477 48.0993 57.4169 48.2239C56.5612 52.9375 55.8731 57.556 55.4869 62.3208C55.4635 62.6104 55.4364 63.0058 55.3715 63.2838C54.5181 67.1849 52.2141 76.6052 52.2147 80.1272C46.0751 80.152 38.1569 80.3835 32.1407 80.0924C30.9057 78.3822 29.7803 77.6528 27.9844 76.4286C32.2447 76.0139 43.2172 76.2982 47.9067 76.3053C48.3008 68.6792 51.8506 59.7765 52.5001 51.9505C52.9086 47.0326 53.7243 46.2877 51.8486 41.4062Z" fill="var(--fill-0, black)"/>
<path id="Vector_40" d="M57.0434 7.05469C66.5787 14.5394 62.6617 19.0719 62.2696 27.9605C61.7031 29.5121 60.3165 33.1033 60.2554 34.562C58.3996 37.2 56.2367 39.6451 52.658 40.3652C52.1827 40.4629 51.7044 40.5495 51.2241 40.625C48.5496 39.1021 46.898 38.197 43.9062 37.2937C49.8421 36.5164 54.1816 35.5614 56.2566 29.5757C58.8338 22.1407 60.8605 14.4364 57.0434 7.05469Z" fill="var(--fill-0, black)"/>
<path id="Vector_41" d="M33.4129 14.4219C34.6336 14.4419 37.5567 14.7798 38.1831 15.6456C40.2598 18.5149 37.3872 28.2823 35.0172 30.3064C33.6005 30.8467 31.7473 30.9594 30.1953 31.1231C31.4826 25.8282 32.1589 19.9767 33.4129 14.4219Z" fill="var(--fill-0, black)"/>
<path id="Vector_42" d="M144.179 1.90908C146.55 1.79505 163.764 1.66228 164.974 2.09835C166.313 3.25767 167.96 4.9663 169.153 5.94428C168.019 11.3943 167.178 16.6042 166.116 21.9608L159.368 55.7469C157.821 63.7743 156.507 72.1908 154.478 80.1506C148.253 80.1574 140.304 80.3734 134.214 80.0838C133.395 79.1108 132.843 78.4668 131.9 77.5946C123.846 82.4573 116.097 82.9718 109.527 75.8224C107.925 74.5453 106.61 73.3089 105.478 71.6687L105.258 68.2047C105.698 60.1902 107.15 54.9083 108.774 46.9984C109.866 41.6822 110.535 35.6058 111.981 30.3197C112.905 26.1567 113.393 21.7902 116.688 18.6992C119.904 15.6816 123.356 14.2346 127.943 14.1237C134.238 13.9719 136.644 14.9074 141.147 18.6623C142.238 13.2537 143.08 7.4758 144.179 1.90908Z" fill="var(--fill-0, #FBF5E7)"/>
<path id="Vector_43" d="M164.978 2.09375C166.317 3.25307 167.964 4.9617 169.157 5.93969C168.022 11.3897 167.182 16.5996 166.12 21.9562L159.372 55.7424C157.824 63.7697 156.511 72.1862 154.481 80.146C148.256 80.1528 140.307 80.3688 134.218 80.0792C133.399 79.1062 132.847 78.4622 131.904 77.59C123.849 82.4528 116.101 82.9672 109.531 75.8178C117.358 79.134 124.202 76.8699 130.523 72.0938C130.192 73.5973 130.082 74.7704 129.936 76.2821C136.295 76.47 143.887 76.308 150.334 76.3151C152.267 67.9786 153.565 60.2627 155.182 52.0252L164.978 2.09375Z" fill="var(--fill-0, black)"/>
<path id="Vector_44" d="M135.035 25.0908C136.746 24.9391 137.718 24.7147 138.903 25.9221C140.096 30.128 134.452 48.4774 134.088 53.7643C133.908 56.3818 132.443 64.4847 130.172 66.2281C129.408 66.3073 128.653 66.3741 127.884 66.306C127.395 66.2627 126.826 66.0993 126.513 65.7306C125.499 64.5343 130.086 43.1229 130.62 40.2207C131.111 37.5512 132.714 26.5894 135.035 25.0908Z" fill="var(--fill-0, black)"/>
<path id="Vector_45" d="M62.2732 27.9659C64.4983 23.7853 66.1312 20.6296 70.6276 17.9596C79.7296 12.5547 99.2301 11.8985 105.557 20.8925C109.615 23.871 110.461 25.8186 111.982 30.3186C110.535 35.6047 109.866 41.6812 108.774 46.9974C107.15 54.9073 105.699 60.1892 105.258 68.2036C100.866 74.1927 95.6955 79.4458 87.4118 80.6508C76.9935 82.1665 68.4381 81.1227 61.1661 73.9622C56.6882 70.7693 56.079 67.9473 55.3749 63.2841C55.4397 63.0062 55.4669 62.6108 55.4903 62.3212C55.8765 57.5564 56.5646 52.9378 57.4203 48.2243C58.2261 44.9535 59.857 37.7998 60.259 34.5674C60.32 33.1087 61.7066 29.5175 62.2732 27.9659ZM84.8413 50.8198C84.087 50.6683 83.5313 50.4782 82.8502 50.8124C82.0371 52.6385 79.9631 64.009 80.089 66.0647C82.7485 64.2062 84.24 53.8694 84.8413 50.8198Z" fill="var(--fill-0, #FBF5E7)"/>
<path id="Vector_46" d="M105.555 20.8906C109.613 23.8692 110.459 25.8167 111.979 30.3167C110.533 35.6029 109.864 41.6793 108.772 46.9955C107.148 54.9054 105.696 60.1873 105.256 68.2017C100.864 74.1908 95.6934 79.4439 87.4097 80.6489C76.9914 82.1646 68.436 81.1209 61.1641 73.9604C71.0538 78.4596 82.3891 79.1881 92.1489 73.4702C101.503 67.99 102.524 60.0815 104.53 50.8818C98.3013 50.8937 90.9782 51.0737 84.8392 50.8179C84.0849 50.6664 83.5292 50.4764 82.8481 50.8106C82.0351 52.6366 79.961 64.0071 80.0869 66.0629C78.4458 66.387 76.9432 66.7529 75.8234 65.4267C75.1461 62.5213 77.7832 50.3734 78.5045 46.8493L105.415 46.8667C105.446 44.5457 105.983 42.5419 106.406 40.2776C107.832 32.6317 108.944 28.129 105.555 20.8906Z" fill="var(--fill-0, black)"/>
<path id="Vector_47" d="M84.3225 25.073C91.3926 24.3439 86.592 31.8494 86.6782 35.1268C86.7209 36.7438 86.1421 36.5715 84.7815 36.6285L80.5469 36.6404C80.636 36.0227 80.7295 35.4053 80.8276 34.7887C81.26 32.0831 81.8701 26.7307 84.3225 25.073Z" fill="var(--fill-0, black)"/>
</g>
</svg>
