<svg overflow="visible" style="display: block;" viewBox="0 0 160.984 91.1304" fill="none" xmlns="http://www.w3.org/2000/svg">
<g id="Group">
<g id="Vector">
</g>
<path id="Vector_2" d="M102.98 90.9063C102.303 90.8037 101.05 90.6188 100.208 90.4956C98.5653 90.2697 94.1297 89.2635 92.6101 88.7912C92.0968 88.627 89.7558 87.8672 87.3737 87.0868L83.0614 85.711L78.0304 85.6494C72.0547 85.5673 70.7199 85.3208 65.6068 83.3289C61.0275 81.5424 59.9597 81.3371 53.9019 81.0701C51.0886 80.9469 47.8851 80.721 46.8173 80.5567C44.9076 80.2487 42.7103 79.9612 37.9873 79.3452C33.8187 78.7907 30.3483 78.0309 27.8225 77.0658C24.2495 75.731 21.6415 74.8686 18.6845 74.0882C13.4687 72.7124 11.3125 71.4598 7.75995 67.7635C4.39223 64.252 2.11286 60.8432 1.06558 57.7425C0.0593685 54.7854 -0.248655 50.432 0.203113 45.7296C0.531671 42.3002 0.860229 41.3967 2.56463 39.1789C4.80293 36.263 5.95288 35.7085 11.292 34.9487C14.6597 34.4764 15.9739 33.8193 16.7542 32.2587C17.0828 31.581 17.1444 30.965 17.1444 27.3714C17.1444 23.5108 17.1855 23.2233 17.6167 22.3814C17.9042 21.8475 18.356 21.3752 18.7667 21.1698C19.4032 20.8823 19.547 20.8823 20.4711 21.1904C21.046 21.3752 21.6621 21.6421 21.8674 21.7859C22.3808 22.176 22.5656 23.4903 22.5861 26.8169C22.5861 29.7945 22.771 30.7596 23.4486 31.3346C23.7156 31.5399 24.1673 31.4989 25.9744 31.0471C27.1654 30.7391 28.2948 30.3695 28.4386 30.2052C28.8493 29.815 29.3421 28.0695 29.5885 26.2419C29.835 24.2911 29.6707 22.3403 29.0136 18.9726C28.1306 14.537 28.5618 12.1961 30.451 11.0461C31.2519 10.5533 32.8331 10.5122 33.675 10.9434C34.4348 11.3336 35.1946 12.3603 35.4821 13.4282C35.8722 14.7835 35.7696 16.4879 35.1124 19.6502C34.2705 23.7367 34.3116 26.7142 35.2356 27.4946C35.5026 27.6999 35.8928 27.6383 37.5356 27.1044C38.8498 26.6526 40.2667 26.3651 41.6836 26.2419C45.7084 25.8518 46.5093 25.5438 49.7949 23.0796C52.6698 20.9439 53.9429 20.3895 58.0088 19.5476C62.0953 18.7056 62.3417 18.5824 65.4835 15.9129C70.0628 11.9907 75.6278 9.11583 80.4535 8.17123C82.0141 7.86321 85.2997 8.00695 86.7166 8.45872C87.2711 8.64353 88.6674 9.19797 89.8379 9.73188C91.029 10.2453 92.1173 10.6354 92.3021 10.5533C92.7128 10.4095 92.7128 9.01316 92.261 5.46062C91.912 2.70895 91.912 2.62681 92.3227 1.66167C92.8566 0.367969 93.678 -0.104334 95.3413 0.0188757C96.2859 0.0804804 96.635 0.20369 97.1278 0.675992C97.4769 1.00455 97.8465 1.60006 97.9697 2.01076C98.2367 2.87323 98.134 5.37848 97.7233 8.64353C97.518 10.3479 97.4974 11.0872 97.6823 11.9702C98.1135 14.0442 98.4215 14.4344 100.598 15.7281C101.687 16.3852 106.04 19.0342 110.27 21.6216C120.702 27.9669 126.472 31.3962 127.15 31.6221C128.793 32.1971 129.347 31.2319 129.491 27.5972C129.614 24.9482 129.368 23.1822 128.259 18.336C127.971 17.1039 127.725 15.6049 127.725 15.0299C127.725 11.0461 131.01 8.13016 133.865 9.60867C135.549 10.4506 136.596 12.3809 136.719 14.8451C136.781 16.1182 136.678 17.0012 136.247 18.8494C135.261 23.0385 135.117 24.1679 135.117 27.6794C135.097 33.347 135.877 35.7907 138.362 37.6799C139.348 38.4191 140.682 38.8709 141.401 38.6861C141.668 38.6039 142.058 38.2549 142.243 37.8852C142.736 37.0022 142.715 33.5524 142.222 31.273C141.257 26.7964 141.093 24.7018 141.586 23.0385C142.12 21.252 144.091 19.6913 145.446 19.9993C147.192 20.369 148.506 21.5805 148.999 23.3054C149.43 24.825 149.307 26.7553 148.465 30.7596C147.767 34.1068 147.685 36.1398 148.136 38.7066C148.794 42.3824 149.882 43.6555 153.968 45.5858C157.706 47.3313 157.87 47.4134 158.835 48.2553C160.006 49.2821 160.334 50.1856 160.704 53.5739C161.176 57.8041 161.012 74.5195 160.499 76.7372C159.451 81.1522 156.658 83.8013 151.525 85.2592C149.102 85.9574 141.463 87.477 136.144 88.3395C122.838 90.4956 108.011 91.6456 102.98 90.9063ZM93.8217 83.2263C94.5815 82.8361 94.7458 82.3638 94.3556 81.7683C94.1708 81.5013 94.027 81.2755 93.986 81.2755C93.9654 81.2755 93.2057 81.1933 92.3021 81.0906C90.9674 80.9264 90.2692 80.7005 88.5237 79.838C87.3532 79.263 85.7926 78.647 85.0328 78.4827C82.3016 77.8256 79.5089 78.7497 80.5151 79.9612C80.9669 80.4951 81.4597 80.6594 83.2052 80.8442C84.5605 80.9674 85.3408 81.1933 86.8604 81.8915C90.4334 83.5138 92.5075 83.9245 93.8217 83.2263ZM114.069 79.4684C114.521 79.2836 115.486 78.7907 116.225 78.38C117.129 77.8667 118.032 77.5586 119.039 77.3944C121.523 77.0042 122.057 76.6346 121.605 75.6489C121.441 75.2998 121.092 75.0945 120.332 74.9096C118.669 74.5195 117.067 74.7864 115.014 75.8132C114.049 76.306 112.94 76.7783 112.55 76.8605C112.159 76.9426 110.701 76.9015 109.326 76.7578C107.046 76.5114 106.759 76.5114 106.286 76.8399C105.198 77.5381 105.876 78.7497 107.683 79.263C110.393 80.0228 112.447 80.105 114.069 79.4684ZM64.8264 76.1007C65.2782 75.731 65.1345 74.7248 64.58 74.1704C63.3068 72.8972 60.5141 72.2606 56.1607 72.2401C53.6965 72.2401 53.0599 72.1785 51.643 71.7267C49.6511 71.1107 49.4047 71.0901 48.8708 71.6241C48.2753 72.2196 48.3574 72.9383 49.0762 73.5338C50.2877 74.5605 53.1421 75.115 57.3517 75.115C59.7132 75.115 59.9597 75.1561 61.7051 75.8337C63.5122 76.5319 64.2309 76.5935 64.8264 76.1007ZM152.675 74.807C153.578 74.6222 154.502 74.4373 154.728 74.3552C155.118 74.232 155.118 74.232 154.708 74.0882C154.482 74.0061 152.962 73.7186 151.34 73.4722C146.288 72.7124 142.407 71.4803 138.506 69.3652C135.795 67.9278 116.903 58.4201 112.94 56.5309C111.071 55.6479 107.313 53.8203 104.561 52.4855C101.81 51.1508 99.5099 50.0624 99.4483 50.0624C99.2224 50.0624 93.2673 47.0233 90.454 45.4421C82.6096 41.1092 78.6875 37.4745 76.0385 32.0944C74.3546 28.6856 73.6975 25.708 73.3895 20.1841C73.2663 18.1512 73.2457 17.9869 72.9788 18.4592C71.9931 20.369 71.4387 24.8661 71.8494 27.6999C72.6502 33.4497 76.326 39.528 81.3365 43.3886C84.4989 45.8528 91.5629 49.4258 108.319 57.0443C111.708 58.5844 121.605 63.4512 122.078 63.8003C122.201 63.9029 123.392 64.5395 124.747 65.2582C126.103 65.9564 127.766 66.8394 128.444 67.2091C131.626 68.934 133.29 69.7964 137.479 71.9321C141.298 73.8624 142.305 74.2936 143.947 74.6632C146.391 75.1766 150.313 75.2587 152.675 74.807ZM156.474 68.3385C156.679 68.2358 156.946 67.8456 157.069 67.4965C157.398 66.5519 157.357 64.7243 157.008 64.3752C156.843 64.211 155.94 63.7797 154.995 63.4101C154.051 63.0405 152.1 62.1164 150.621 61.3361C148.753 60.3709 146.945 59.6317 144.563 58.8924C140.354 57.5782 138.814 56.8595 136.226 55.0935C133.577 53.2659 131.996 52.4855 129.409 51.7257C126.575 50.8838 125.815 50.5142 124.234 49.241C122.735 48.0295 122.365 47.8446 117.93 46.1608C112.57 44.1073 111.256 43.3064 106.882 39.5896C103.781 36.9201 102.344 35.996 98.6474 34.23C94.6636 32.3408 93.8012 31.7453 91.2138 29.1784C90.0022 27.9463 88.5032 26.4884 87.8666 25.9134C86.5318 24.6813 85.9774 23.634 85.9568 22.2992C85.9158 20.3074 87.2711 19.6297 89.5504 20.4716C91.0495 21.0466 92.8566 22.3403 95.0333 24.4143C98.1956 27.433 98.8322 27.8847 103.165 29.8561C106.718 31.4989 108.443 32.6488 112.118 35.9139C114.952 38.4191 116.78 39.5075 120.743 40.9655C122.981 41.8074 123.7 42.1976 126.739 44.251C128.772 45.6269 129.203 45.8117 132.592 46.9C136.863 48.2553 137.52 48.5634 139.758 50.2267C141.955 51.849 143.66 52.6909 146.966 53.7587C149.081 54.4363 150.108 54.8881 151.566 55.8122C153.188 56.88 154.975 57.7014 156.658 58.1737L157.151 58.3174L157.049 56.4898C156.987 54.9703 156.864 54.498 156.412 53.7176C155.775 52.6087 154.482 51.7257 152.469 51.0276C148.753 49.7133 144.995 47.8241 139.964 44.6823C136.822 42.7109 135.179 41.9511 131.729 40.8217C127.253 39.3637 121.605 36.4067 118.587 33.922C111.708 28.2954 109.51 26.7553 105.465 24.7429C102.467 23.2644 100.906 22.2787 97.9492 19.9788C94.0887 16.9807 89.9201 14.5576 87.4353 13.8389C85.772 13.3666 83.7801 13.4076 82.6507 13.9415C80.166 15.112 78.9339 18.6235 79.7553 22.1966C80.2481 24.2501 82.0552 27.8437 83.698 30.0204C86.7782 34.0657 89.7353 36.3862 95.6698 39.3843C97.518 40.3289 99.9206 41.6842 101.009 42.4234C109.572 48.2348 110.065 48.5223 116.02 50.7811C120.394 52.4445 122.981 53.6971 126.082 55.6274C130.374 58.3174 133.885 59.8986 141.381 62.445C147.007 64.3547 147.582 64.6011 151.627 66.6751C155.324 68.5438 155.775 68.7081 156.474 68.3385ZM89.0987 65.71C89.3862 65.5047 89.6531 65.094 89.6942 64.827C89.7763 64.211 88.8728 63.7181 87.3737 63.5128C86.8193 63.4306 85.4229 62.9789 84.2935 62.486C81.2954 61.1923 80.6999 61.0691 77.3732 61.2129C74.1287 61.3566 73.5127 61.562 73.5127 62.5682C73.5127 63.0405 73.6564 63.2253 74.293 63.5333C74.9091 63.8413 75.5662 63.9235 77.7223 63.9235C80.2071 63.944 80.474 63.9851 81.624 64.519C82.3016 64.8475 83.6364 65.3814 84.6015 65.6895C86.5934 66.3877 88.1951 66.3877 89.0987 65.71ZM11.1687 60.3299C11.8259 59.7549 12.6062 59.1799 12.8937 59.0156C13.9204 58.4817 15.748 58.2764 18.4586 58.4201C21.7442 58.5639 22.3603 58.4407 25.6253 56.7979C28.1511 55.5247 28.1716 55.5247 30.143 55.4426C32.2581 55.381 32.7304 55.4836 36.7552 56.9621C38.0489 57.4344 38.6444 57.5166 40.4515 57.5371C42.9568 57.5577 43.3264 57.455 46.7147 55.7917C49.1788 54.5801 50.6163 54.1694 52.3001 54.1694C53.5733 54.1694 54.4152 53.6971 54.4152 52.9578C54.4152 51.89 53.8197 51.6025 51.3555 51.5409C49.1788 51.4588 49.1172 51.4793 46.2834 52.4445C43.6139 53.3685 43.2853 53.4301 41.3756 53.4301C39.1578 53.4301 38.4186 53.2659 35.5231 52.0748C33.0384 51.0481 31.8679 50.8222 29.7939 50.9249C27.5351 51.0686 26.0976 51.6436 23.7566 53.3275C20.6764 55.5452 20.2862 55.6684 15.5016 55.8327C13.2428 55.9149 11.1071 56.0586 10.7375 56.1818C9.52596 56.572 7.14391 57.9273 6.83588 58.4201C6.1993 59.3853 6.97963 60.5352 8.62242 61.0486C9.93665 61.4387 9.87505 61.4593 11.1687 60.3299ZM70.4325 40.3699C71.6235 40.0209 72.6297 39.6923 72.6708 39.6718C72.835 39.5485 71.6645 37.7825 71.336 37.6593C70.6173 37.3924 67.3522 39.3432 67.3522 40.0414C67.3522 40.411 67.7835 41.0271 68.0299 41.0271C68.1736 41.0271 69.2414 40.7396 70.4325 40.3699Z" fill="var(--fill-0, #6A0111)"/>
</g>
</svg>
