<svg overflow="visible" style="display: block;" viewBox="0 0 160.8 158.918" fill="none" xmlns="http://www.w3.org/2000/svg">
<g id="Group">
<g id="Vector">
</g>
<path id="Vector_2" d="M19.5317 158.331C18.3798 157.699 14.4049 154.831 11.6947 152.708C10.1364 151.488 8.93935 149.817 9.07486 149.094C9.18779 148.484 10.588 147.897 12.2819 147.739L13.7725 147.604L13.8403 145.887C13.8629 144.939 13.8854 138.434 13.8854 131.41V118.672L14.6307 118.153C15.0599 117.882 15.9632 117.408 16.6634 117.137C19.4413 116.03 25.0875 116.662 26.9169 118.288C27.5041 118.808 27.6622 119.147 27.7977 120.253C27.8881 120.976 27.9784 127.48 27.9784 134.708L28.001 147.829L29.6045 147.965C31.8856 148.168 32.7212 148.801 32.4276 150.11C32.1566 151.217 26.804 155.983 23.8228 157.744C21.4062 159.167 21.1126 159.212 19.5317 158.331ZM24.1164 146.384L24.0486 145.074L22.8065 144.78C21.5869 144.509 19.2832 144.577 17.9281 144.939C17.3183 145.097 17.2732 145.187 17.228 146.384L17.1828 147.671H20.6835H24.1841L24.1164 146.384ZM33.3084 123.302L30.395 123.167L30.3724 121.134C30.3724 118.605 29.7852 117.272 28.1591 116.03C26.42 114.72 24.681 114.223 21.5191 114.088C17.1828 113.884 14.5178 114.675 12.5755 116.685C11.7399 117.543 11.7173 117.611 11.5818 119.621C11.514 120.773 11.3559 121.699 11.2656 121.699C11.1527 121.699 10.6332 121.315 10.1138 120.863C5.84523 117.091 2.70593 111.152 0.98948 103.744C-0.659216 96.494 -0.162349 81.9493 1.8477 78.268C2.36716 77.342 2.41233 77.3194 3.83517 77.1839C5.7323 76.9807 91.7581 76.9355 92.8873 77.1162C93.9036 77.2968 93.9036 77.3194 93.1583 80.8201C91.329 89.3346 92.1872 101.553 95.2135 110C96.8622 114.607 98.9401 118.13 101.334 120.344C102.915 121.834 103.886 122.376 105.015 122.376C106.122 122.376 105.851 121.812 103.773 119.643C101.718 117.52 100.16 115.285 99.1433 113.049C97.585 109.593 95.8911 103.879 95.1458 99.5203C94.536 95.9294 94.6038 87.3245 95.2587 83.5754C96.4331 77.0484 98.1044 71.8991 99.7305 69.8664L100.273 69.1889V70.9957C100.273 75.1513 101.289 81.2944 102.576 84.9983C104.157 89.5378 107.455 93.8967 110.278 95.1389C111.813 95.839 114.659 96.1552 117.64 96.0197L119.967 95.8842L119.808 97.8942C119.154 106.364 117.189 113.387 114.162 117.972C112.13 121.044 110.797 122.083 107.838 122.918C106.28 123.37 105.535 123.37 71.251 123.393C52.0087 123.415 34.9345 123.37 33.3084 123.302ZM60.6361 112.349C61.9009 111.761 63.3237 110.316 63.8658 109.074C64.3174 107.99 64.3174 105.573 63.8206 104.466C61.7428 99.7688 54.764 99.4074 52.3701 103.879C50.6762 107.086 52.1216 111.129 55.4642 112.439C57.0677 113.071 59.1907 113.026 60.6361 112.349ZM60.5909 90.5316C61.5847 89.854 62.5558 88.1602 62.5558 87.1213C62.5558 86.1275 61.7654 84.7724 60.6813 83.8916L59.8005 83.1915L49.2082 83.1237C43.3813 83.1012 37.2382 83.1463 35.5669 83.2592C32.6083 83.4399 32.4954 83.4625 31.8178 84.1175C30.4176 85.45 30.1014 87.0761 30.9144 88.6796C31.6371 90.1025 32.6083 90.8478 33.9408 91.0059C34.5958 91.0962 40.6711 91.1414 47.4466 91.1414L59.7553 91.0962L60.5909 90.5316ZM58.5357 109.029C56.5934 107.561 56.0288 106.251 56.8644 105.212L57.271 104.692L57.9937 105.46C59.6424 107.177 60.7265 109.638 59.9586 109.864C59.8456 109.887 59.1907 109.525 58.5357 109.029ZM114.84 93.4902C112.604 93.2869 111.204 92.8578 110.052 91.977C105.941 88.8377 103.705 82.9882 102.757 72.9831C102.237 67.5854 103.276 61.1035 105.332 56.7446C107.025 53.1988 108.2 52.2502 111.791 51.6856C113.078 51.4823 147.927 51.3242 147.927 51.5275C147.927 51.5727 147.385 52.6793 146.707 54.0118C146.03 55.3444 145.216 57.2189 144.9 58.19C141.851 67.4047 142.551 79.7812 146.617 87.9117C148.152 90.9833 150.434 92.8804 152.082 92.4739C152.85 92.2932 152.828 91.8867 151.969 91.0736C150.998 90.1702 149.462 87.9795 148.627 86.3082C146.639 82.3333 145.849 77.9518 145.826 70.9957C145.804 65.372 146.142 62.5715 147.294 58.9128C148.152 56.2252 149.914 53.2891 151.179 52.4083C152.737 51.3468 154.77 52.047 156.102 54.1022C159.038 58.7095 160.8 66.682 160.8 75.5352C160.8 81.3621 160.145 85.3371 158.654 88.6344C157.728 90.6671 156.599 91.9318 154.973 92.7223C153.866 93.2643 153.392 93.3547 151.54 93.3773C140.045 93.5579 116.443 93.6031 114.84 93.4902ZM131.891 74.4737C134.782 74.1801 135.573 73.3897 135.46 70.9731C135.369 69.3018 134.714 68.2177 133.359 67.4498L132.456 66.9304H122.97C112.965 66.9304 112.265 66.9981 111 67.9919C109.532 69.1437 109.058 71.8765 110.12 73.1412C111.158 74.3608 111.949 74.5641 116.421 74.7222C121.118 74.9028 129.113 74.7899 131.891 74.4737ZM4.46755 74.135C3.74483 73.9091 3.9481 72.3056 4.85149 70.7924C6.74862 67.6531 8.89418 65.101 10.6784 63.8814L11.514 63.3168V61.0583C11.514 58.6417 11.7625 57.3318 12.3045 56.8801C12.5078 56.722 13.0724 56.5188 13.6144 56.4058C14.2694 56.2929 98.5787 56.0671 101.808 56.2026C102.192 56.2026 102.147 57.648 101.718 59.5226C100.566 64.6493 100.476 64.8752 99.7079 65.6882C97.8786 67.6305 96.4783 69.9342 95.4168 72.7799L94.9199 74.135L49.8857 74.1801C25.1101 74.2253 4.67081 74.2027 4.46755 74.135ZM77.5974 53.786L71.522 53.7182L71.6801 47.8913C72.1092 31.3366 73.8708 22.1672 77.1231 19.5022C79.6752 17.4018 83.4242 17.063 87.738 18.531C89.8384 19.2312 92.8421 20.6992 96.659 22.8899C101.808 25.8485 103.412 26.6616 103.66 26.5035C103.773 26.4357 104.722 25.3516 105.738 24.0869C109.103 19.9087 111.881 17.6728 114.885 16.6565C117.076 15.9338 118.747 15.9789 119.786 16.7694C121.005 17.6728 121.502 18.8472 121.502 20.6766C121.502 23.2738 120.712 25.5323 119.131 27.5424C118.589 28.2425 117.234 30.6817 116.105 32.9627C114.998 35.2438 113.575 37.8862 112.965 38.8122C108.923 44.9101 104.293 46.0168 100.724 41.7257C99.9564 40.7997 99.4595 39.9415 99.1885 39.0155C98.9175 38.0895 98.669 37.6378 98.3528 37.5475C98.1044 37.4571 95.5749 36.2601 92.7518 34.8373C89.9061 33.4144 87.4218 32.2626 87.1959 32.2626C86.5861 32.2626 86.3151 34.8599 85.8408 45.0908C85.4117 54.1248 85.4343 53.9893 84.2373 53.8989C83.9211 53.8538 80.9399 53.8086 77.5974 53.786ZM102.305 36.0795C102.305 35.3567 101.176 34.4533 99.5724 33.8887C97.7656 33.2564 96.8848 33.2338 96.8848 33.7984C96.8848 34.2953 97.8334 35.0406 99.9338 36.1472C101.605 37.028 102.305 37.0054 102.305 36.0795ZM103.751 33.5274C104.067 33.0079 103.299 32.353 100.815 31.0882C98.9175 30.1171 98.2399 30.0719 98.2399 30.9301C98.2399 31.5173 98.8723 32.0819 100.611 32.9853C102.825 34.1372 103.344 34.2275 103.751 33.5274ZM105.196 30.7494C105.286 30.1622 104.202 29.304 101.786 27.9715C100.34 27.181 99.979 27.0681 99.6854 27.3165C98.782 28.0618 100.024 29.3266 102.892 30.5688C103.864 30.9979 104.79 31.3141 104.902 31.2915C105.038 31.2463 105.151 30.9979 105.196 30.7494ZM36.5832 52.5438C36.5832 46.2878 37.9383 26.8423 39.0902 16.4758L39.5419 12.3202L38.7966 11.5975C38.2319 11.0554 37.3059 10.6263 35.1152 9.9036C31.9533 8.88728 29.1528 7.57736 27.8655 6.58362C26.7362 5.68023 25.7425 4.09929 25.7425 3.21848C25.7425 0.688975 28.1591 -0.191835 34.3925 0.0340133C38.4352 0.192107 40.2872 0.417956 44.9622 1.32135C52.3926 2.7442 55.2383 3.80569 56.7741 5.70281C58.2421 7.5096 57.3613 9.97135 54.7415 11.4168C53.3638 12.1621 53.3638 12.1847 53.1154 13.472C52.9798 14.1721 52.754 17.1533 52.6185 20.0668C52.483 22.9802 52.2797 26.7067 52.1668 28.3103C52.0313 29.9364 51.8506 32.624 51.7151 34.2727C51.5796 35.944 51.3763 41.003 51.2182 45.5199L50.9472 53.7182H43.7652H36.5832V52.5438ZM42.6134 15.7757C43.4942 15.4595 43.8104 14.5335 43.8104 12.3202C43.8104 10.7167 43.7652 10.5811 43.3361 10.5811C42.5456 10.5811 42.0262 11.0103 41.7778 11.8911C41.4164 13.2236 41.4841 16.0015 41.8907 16.0015C41.9133 16.0015 42.2295 15.8886 42.6134 15.7757ZM50.3148 14.1947C50.6762 12.2298 50.4052 10.7167 49.7276 10.8522C49.1856 10.9651 48.8016 12.2524 48.8016 14.1044C48.7791 15.8434 48.8694 16.0467 49.5695 15.9563C49.9535 15.8886 50.0664 15.595 50.3148 14.1947ZM46.6561 15.3014C47.1981 14.7142 47.4466 10.7167 46.9497 10.536C46.4076 10.3327 45.6172 10.7618 45.3913 11.3716C45.1429 12.0266 45.0751 14.8497 45.301 15.4143C45.5043 15.9112 46.1366 15.866 46.6561 15.3014ZM48.892 6.06417C49.3211 5.38663 47.8757 4.79942 43.9233 4.03153C40.8066 3.42174 34.7764 2.63127 34.4151 2.76678C33.8279 2.99263 34.0989 3.55725 34.9571 4.00895C35.9283 4.50582 37.1253 4.73167 41.8681 5.38663C43.7201 5.65765 45.5946 5.95125 46.0463 6.04159C47.2207 6.33519 48.7339 6.33519 48.892 6.06417Z" fill="var(--fill-0, #6A0111)"/>
</g>
</svg>
