<svg overflow="visible" style="display: block;" viewBox="0 0 160.965 134.692" fill="none" xmlns="http://www.w3.org/2000/svg">
<g id="Group">
<g id="Vector">
</g>
<path id="Vector_2" d="M91.146 134.406C87.1007 133.708 83.774 132.537 80.8786 130.792C78.5376 129.375 76.9564 128.102 74.9029 125.925C71.104 121.941 68.8041 117.526 67.5925 111.92C67.0791 109.538 67.0791 103.953 67.5925 101.406C69.3585 92.5764 74.6771 81.6313 84.6775 66.2302C90.0988 57.8725 94.2879 51.8557 95.1503 51.137C95.4789 50.8495 95.6843 51.0343 96.9985 52.903C97.3476 53.3753 98.4975 55.0181 99.5653 56.5172C103.775 62.4107 107.061 67.4417 110.49 73.212C115.808 82.1447 120.531 92.1247 122.256 98.0593C124.618 106.232 123.735 113.933 119.648 120.915C115.726 127.547 108.601 132.702 101.413 134.077C100.797 134.201 99.7912 134.385 99.1957 134.509C97.7377 134.796 93.0558 134.735 91.146 134.406ZM99.4627 122.106C101.188 121.633 104.186 120.114 105.52 119.005C108.046 116.91 109.977 113.974 110.901 110.77C111.27 109.456 111.373 108.655 111.373 106.581C111.352 103.83 111.126 102.577 110.243 100.4C107.512 93.8085 100.469 89.64 93.5281 90.5435C91.146 90.872 90.0372 91.2211 87.7783 92.3711C82.3571 95.1433 79.0099 101.016 79.2974 107.197C79.4206 109.846 79.7902 111.263 80.9607 113.666C83.199 118.225 87.5319 121.49 92.5219 122.393C93.9388 122.66 98.0252 122.475 99.4627 122.106ZM72.7878 69.947L69.7281 69.7211L69.338 68.797C67.6541 64.8338 66.5247 59.0635 66.5042 54.4637C66.5042 46.7631 68.9067 40.4999 73.794 35.6126C76.5868 32.7994 80.2625 30.5611 84.1642 29.2468C85.7659 28.7129 86.1561 28.6718 88.8872 28.6718C92.296 28.6718 94.062 29.0415 97.4708 30.4173C99.4216 31.1976 103.344 33.2717 106.239 35.0171C112.379 38.7339 116.691 40.2125 120.819 40.0071C122.79 39.9044 123.037 39.8223 126.774 38.3438C133.489 35.6948 137.76 34.7502 141.949 34.9761C146.282 35.2019 149.958 36.3519 154.065 38.7545L155.667 39.6991L154.373 40.9517C152.032 43.19 150.615 44.4426 148.11 46.4345C140.635 52.3897 133.099 57.0305 124.926 60.6652C123.242 61.425 121.661 62.1232 121.435 62.2259C120.018 62.883 114.104 64.957 111.558 65.6963C109.525 66.2918 109.278 66.2712 108.744 65.3677C108.498 64.9365 107.204 62.9446 105.87 60.9116C104.535 58.8992 103.467 57.2359 103.508 57.1948C103.549 57.1743 104.206 56.9484 104.987 56.702C109.586 55.2235 112.913 52.1227 112.913 49.3094C112.913 46.0033 108.827 42.7999 103.036 41.5267C98.9493 40.6232 95.253 40.4589 90.9407 40.9722C87.573 41.3829 85.4989 41.9374 83.2401 43.0052C77.5519 45.6953 76.2582 50.2746 80.1804 53.786C81.4741 54.9154 83.9588 56.2297 85.9507 56.8252C86.6694 57.0305 87.2444 57.2564 87.2444 57.318C87.2444 57.3796 86.6284 58.3037 85.848 59.3715C84.349 61.4866 82.5008 64.3204 80.3036 67.873L78.9072 70.1318L77.3877 70.1523C76.5457 70.1729 74.4717 70.0702 72.7878 69.947ZM65.3747 69.0845C57.8384 68.2221 45.7434 64.8954 38.5356 61.6714L37.3446 61.1375V59.7822C37.3446 56.9895 38.3303 53.0468 39.7472 50.2335C42.0471 45.6131 45.0041 42.4097 50.3843 38.7134C54.9635 35.5716 56.8733 33.8672 58.7625 31.1976C60.7133 28.446 61.5758 26.0023 61.5758 23.1685C61.5758 20.2115 60.2616 17.6035 57.7152 15.509C55.2716 13.476 53.0127 12.6546 49.8709 12.6546C47.6942 12.6546 46.8317 12.8394 41.3489 14.5644C39.7677 15.0572 38.3097 15.242 36.3179 15.1804C34.5724 15.1188 33.9769 15.0161 33.1966 14.626C31.6564 13.8662 29.7056 11.6895 27.0361 7.72625C24.6335 4.19425 23.0729 2.34611 21.122 0.78546L20.198 0.0256686L53.0127 0.0667384L85.807 0.107808L87.3882 1.58632C89.0925 3.18804 90.9818 4.29693 92.7888 4.74869C94.2673 5.11832 100.592 5.11832 102.543 4.76923C105.746 4.15318 108.231 3.61928 110.86 2.98269C115.11 1.91488 118.334 1.29883 120.922 1.01134C123.16 0.764925 123.365 0.78546 124.741 1.19616C126.63 1.77113 127.123 2.30504 127.246 3.88623C127.37 5.6317 126.651 7.43877 124.207 11.5047C121.414 16.125 120.716 17.9321 120.716 20.3141C120.716 22.2034 121.271 23.5792 122.462 24.6265C125.994 27.7272 132.421 27.2344 142.483 23.1274C146.919 21.2998 154.702 17.0286 160.41 13.2707L160.965 12.901V21.5873C160.965 30.52 160.883 31.6289 160.082 33.785C159.63 34.9966 158.891 36.3108 158.192 37.1117L157.576 37.8304L156.18 36.9885C152.771 34.9145 149.342 33.4565 146.097 32.7172C144.044 32.2449 138.479 32.2449 136.117 32.7172C132.113 33.5181 129.998 34.1752 125.686 35.9207C122.462 37.2349 121.414 37.4608 119.156 37.3376C116.116 37.1733 112.831 35.8385 107.369 32.5735C98.0458 26.988 91.6799 25.0988 85.7043 26.1666C80.1393 27.1728 74.3485 30.7253 70.2415 35.6332C66.9559 39.5759 65.1899 43.5802 64.2248 49.2889C63.7936 51.8352 63.9168 57.7493 64.4507 60.7884C64.923 63.458 65.6212 66.3945 66.1551 67.9551C66.4631 68.8176 66.4631 69.2488 66.1345 69.1872C66.0524 69.1667 65.7238 69.1051 65.3747 69.0845ZM31.0815 58.16C26.1326 55.5726 24.2023 54.4226 20.3417 51.7941C18.3704 50.4594 12.9492 46.5167 12.5179 46.106C12.4768 46.0649 13.0313 45.1819 13.7295 44.1346C15.3517 41.7115 16.2758 39.8634 17.0356 37.5429C17.5284 35.9823 17.6311 35.3662 17.6311 33.6002C17.6311 31.1771 17.3231 29.8629 16.2758 27.9942C15.2491 26.1461 13.8732 24.7497 10.6082 22.2444C4.73519 17.7678 2.64063 15.2215 1.81924 11.5047C1.40854 9.65653 1.61389 6.90486 2.27101 5.50849C3.40043 3.08537 5.6798 1.44258 8.92431 0.70332C13.0724 -0.200215 18.0213 1.19616 20.9167 4.11211C22.2104 5.42635 22.6416 6.00132 25.4138 10.1083C28.6378 14.8313 30.6502 16.6179 33.9563 17.5625C35.6402 18.0553 39.1722 17.8705 41.7596 17.1518C48.187 15.3652 49.3575 15.1394 51.411 15.4063C53.5466 15.6733 54.6555 16.2482 56.4421 18.0553C57.6947 19.3079 58.1054 19.8829 58.4955 20.9507C60.0973 25.1604 57.9411 29.4727 51.8217 34.3395C50.6923 35.2225 49.6245 36.0849 49.4602 36.2082C49.2959 36.3519 48.146 37.1322 46.8933 37.9742C44.2854 39.6991 42.9712 40.9106 41.1436 43.2311C37.4062 47.9952 35.517 52.1843 34.8804 57.01C34.5724 59.3304 34.5108 59.5563 34.1001 59.5563C33.9153 59.5563 32.56 58.9197 31.0815 58.16ZM86.9364 54.2583C83.0142 52.8825 80.4679 50.9522 80.4679 49.33C80.4679 47.7077 82.7267 45.8596 86.0123 44.7917C89.0104 43.8061 91.4335 43.457 95.561 43.457C100.674 43.4364 103.549 44.0319 106.773 45.7158C110.182 47.5023 111.003 49.5558 109.094 51.4656C108.108 52.4718 106.445 53.3548 104.247 54.094C101.496 55.0181 101.865 55.1619 99.935 52.328C97.9842 49.4737 95.9307 47.2354 95.2736 47.2354C94.6164 47.2354 93.487 48.5086 91.1666 51.8147C90.0166 53.478 88.9693 54.8333 88.8256 54.8333C88.6819 54.8128 87.8399 54.5664 86.9364 54.2583ZM8.90378 42.9231C6.85029 41.0955 5.10482 39.2473 3.83166 37.5429C0.669284 33.3333 -0.111042 29.7602 0.0121677 20.0267L0.0737724 14.6876L0.874633 16.125C2.33261 18.7946 4.36557 20.8891 8.28773 23.8256C12.559 27.0291 13.9348 28.5897 14.6535 31.1155C15.1464 32.7788 14.9821 35.51 14.2839 37.5429C13.6679 39.2884 12.1278 42.0811 11.0599 43.3338L10.3207 44.1962L8.90378 42.9231ZM126.548 23.764C125.152 23.3944 124.207 22.8194 123.653 21.9775C122.647 20.5195 123.201 18.6714 126.158 13.5582C129.033 8.56819 129.834 6.45309 129.834 3.9889C129.834 2.572 129.752 2.20237 129.279 1.38097C128.971 0.867599 128.725 0.354227 128.725 0.231018C128.725 -0.0770059 149.588 -0.0770059 151.95 0.231018C154.229 0.518506 154.886 0.723855 156.344 1.70953C158.788 3.33179 160.718 6.06293 160.903 8.17802C161.067 9.73867 160.78 10.0056 154.702 13.6608C146.118 18.8356 139.526 21.8543 133.407 23.4149C131.374 23.9488 127.945 24.1131 126.548 23.764ZM93.8156 2.14076C92.3781 1.83274 89.8934 0.682785 89.7497 0.251552C89.6881 0.0667384 91.8648 0.00513372 100.264 0.00513372C106.095 0.00513372 110.86 0.0667384 110.86 0.107808C110.86 0.313157 109.812 0.600646 106.794 1.21669C100.736 2.44879 96.6494 2.73627 93.8156 2.14076Z" fill="var(--fill-0, #6A0111)"/>
</g>
</svg>
