<svg overflow="visible" style="display: block;" viewBox="0 0 95.986 30.0518" fill="none" xmlns="http://www.w3.org/2000/svg">
<g id="Group">
<path id="Vector" fill-rule="evenodd" clip-rule="evenodd" d="M63.184 9.06736C62.7671 9.06736 62.4023 8.70466 62.4544 8.23834C62.4544 8.18653 62.4544 8.18653 62.4544 8.13471C62.5586 6.32124 61.9332 5.23316 59.9007 5.23316H53.5423L51.8225 12.9534H60.943C61.4121 12.9534 61.7769 13.3679 61.6726 13.8342L60.7866 17.8238C60.7345 18.1347 60.4218 18.3938 60.057 18.3938H50.6238C50.6238 18.3938 49.5814 23.1088 49.5293 23.3161C49.1645 24.8186 50.259 25.6477 50.9365 25.9585C50.9886 25.9585 50.9886 26.0104 51.0407 26.0104C51.3534 26.1658 51.5098 26.4767 51.4055 26.7876L50.9365 29.0155C50.8844 29.3264 50.5717 29.5855 50.2068 29.5855H39.1059C38.6368 29.5855 38.3241 29.171 38.3762 28.7047L43.2231 6.89119C43.6922 4.97409 42.5977 4.19689 41.7638 3.88601L41.6596 3.8342C41.2948 3.73057 41.0863 3.31606 41.1906 2.95337L41.6596 1.08808C41.7117 0.725389 42.0765 0.466321 42.4414 0.466321H67.1449C67.614 0.466321 67.9788 0.880829 67.8746 1.34715L66.259 8.49741C66.2068 8.8601 65.8941 9.06736 65.5293 9.06736H63.184Z" fill="var(--fill-0, #FBF5E7)"/>
<path id="Vector_2" fill-rule="evenodd" clip-rule="evenodd" d="M26.0244 1.08808C26.0765 0.725389 26.4414 0.466321 26.8062 0.466321H38.8974C39.3664 0.466321 39.7313 0.880829 39.627 1.34715L39.2101 3.21244C39.158 3.52332 38.8974 3.73057 38.5326 3.78238C38.4804 3.78238 38.4804 3.78238 38.4283 3.78238C37.5423 3.88601 35.8746 4.19689 34.5195 5.23316L24.4609 13.5233L32.1743 23.9378C33.6857 25.8549 34.4153 26.2176 35.9267 26.2176C36.3958 26.2176 36.7606 26.6839 36.6563 27.1503L36.2915 29.0155C36.2394 29.3264 35.9267 29.5855 35.5619 29.5855H29.5684C22.8974 29.5855 21.0733 26.6839 15.4967 16.5803L13.8811 23.9378C13.6205 25.0777 14.6107 25.6995 15.2883 25.9585L15.3925 26.0104C15.7573 26.114 15.9137 26.4767 15.8616 26.8394L15.3925 29.0155C15.3404 29.3264 15.0277 29.5855 14.6629 29.5855H0.74755C0.278495 29.5855 -0.0863261 29.1192 0.0179084 28.6528L0.434846 26.7876C0.486964 26.4767 0.799667 26.2176 1.11237 26.1658H1.16449C2.46742 26.0104 3.77035 25.2332 4.60423 21.2953L7.78338 6.89119C8.20032 4.97409 7.21009 4.2487 6.37621 3.93782C6.3241 3.93782 6.27198 3.88601 6.27198 3.88601C5.90716 3.78238 5.69869 3.36788 5.75081 2.95337L6.16774 1.03627C6.27198 0.673575 6.58468 0.414508 6.9495 0.414508H20.1873C20.6563 0.414508 20.969 0.829016 20.9169 1.29534L20.5 3.21244C20.4479 3.4715 20.2394 3.73057 19.9267 3.78238H19.8225C19.1971 3.98964 18.2068 4.50777 17.8941 5.69948L16.1221 13.7824L26.3892 5.28497C27.0146 4.76684 26.8583 4.09326 26.1287 3.8342C25.7117 3.73057 25.5032 3.31606 25.5554 2.90155L26.0244 1.08808Z" fill="var(--fill-0, #FBF5E7)"/>
<path id="Vector_3" fill-rule="evenodd" clip-rule="evenodd" d="M95.3404 1.08808C95.7573 1.19171 96.07 1.65803 95.9658 2.12435L94.4023 9.11917C94.3502 9.43005 94.0375 9.68912 93.6726 9.68912H91.4316C91.0147 9.68912 90.702 9.32643 90.702 8.91192C90.702 8.8601 90.702 8.80829 90.702 8.75648C90.8062 6.47668 89.3469 4.76684 86.0635 4.76684C80.5912 4.76684 76.6303 9.2228 76.1091 15.0777C75.5879 21.1399 79.8094 24.6114 85.6987 24.6114C88.7215 24.6114 91.1189 24.0414 92.4218 23.6269C92.943 23.4715 93.4642 23.9378 93.3599 24.456L92.6824 28.0829C92.6303 28.3938 92.4218 28.6528 92.1091 28.7565C90.9104 29.1192 87.5228 30.0518 82.3632 30.0518C70.0635 30.0518 65.1124 23.0052 65.842 15.8549C66.5717 9.37824 70.7932 0 87.5228 0C90.7541 0 93.3078 0.518135 95.3404 1.08808Z" fill="var(--fill-0, #FBF5E7)"/>
</g>
</svg>
