<svg overflow="visible" style="display: block;" viewBox="0 0 36 44" fill="none" xmlns="http://www.w3.org/2000/svg">
<g id="Group">
<path id="Vector" d="M0 0V44H36V0H0ZM25.3 30.6142C22.675 30.6142 20.6 26.8224 20.6 22.14C20.6 17.4575 22.725 13.6657 25.3 13.6657C26.175 13.6657 27 14.1238 27.7 14.8872V19.0098C27.325 18.2209 26.775 17.7883 26.1 17.7883C24.85 17.7883 23.85 19.7478 23.85 22.1909C23.85 24.583 24.825 26.5934 26.1 26.5934C26.7 26.5934 27.3 26.0844 27.7 25.321V29.4436C27.05 30.2325 26.175 30.6142 25.3 30.6142ZM30.35 19.0098H29.975C28.45 7.30364 15.725 7.86351 15.025 20.5113C17.925 19.3407 19.525 17.0503 21.05 14.6582H21.7C18.35 18.3991 19.125 26.8733 21.875 29.6472L21.175 29.5963C19.5 27.3823 18.075 25.1938 15.45 24.4303L15.175 24.3794C15.675 28.8838 17.75 34.5333 21.425 41.2261C16.925 38.325 8.725 37.4344 6.35 37.5362C13.05 21.631 8.05 8.42337 4.55 2.44303C7 3.56275 19.675 6.97282 31.45 2.8502C30.125 4.96241 29.8 13.9456 30.35 19.0098Z" fill="var(--fill-0, #FBF5E7)"/>
</g>
</svg>
