<svg overflow="visible" style="display: block;" viewBox="0 0 38 41" fill="none" xmlns="http://www.w3.org/2000/svg">
<g id="Logo.svg">
<path id="Vector" d="M34.0172 38.7462C30.9475 40.4989 25.6811 41 18.3962 41C11.1112 41 5.84481 40.4989 2.7751 38.7462C0.932637 37.6967 0 36.2658 0 35.24C0 34.6558 0.307289 34.3218 0.991562 34.3218H35.8001C36.485 34.3218 36.7917 34.6558 36.7917 35.24C36.7923 36.2658 35.8597 37.6967 34.0172 38.7462ZM35.8001 11.5557H0.991562C0.307289 11.5557 0 11.1981 0 10.5543C0 6.73779 5.67948 0 18.3962 0C30.995 0 36.7923 6.73779 36.7923 10.5543C36.7923 11.1981 36.485 11.5557 35.8001 11.5557Z" fill="var(--fill-0, #FBF5E7)"/>
<path id="Vector_2" fill-rule="evenodd" clip-rule="evenodd" d="M25.1622 17.9365C25.1622 19.6771 23.9932 20.8699 22.1394 20.8699C20.3799 20.8699 18.597 19.6175 18.5977 16.9235C18.5977 14.1091 20.3806 12.8926 22.211 12.8926C23.2501 12.8926 23.9464 13.1665 24.4425 13.5364C24.7136 13.7513 24.8911 14.0611 24.8911 14.4668C24.8911 15.0152 24.4659 15.5399 23.8399 15.5399C23.5929 15.5399 23.4314 15.456 23.2553 15.3644C23.0444 15.2548 22.8125 15.1342 22.3878 15.1342C21.7504 15.1342 20.9236 15.611 20.9236 16.9229C20.9236 18.1035 21.5254 18.7357 22.4112 18.7357C22.6951 18.7357 22.9428 18.5924 22.9428 18.378C22.9428 18.211 22.8009 18.1393 22.5766 18.1393C22.1394 18.1393 21.5609 17.8174 21.5609 17.1494C21.5609 16.3981 22.1039 16.0641 22.8009 16.0641H23.1785C24.5008 16.0641 25.1622 16.8275 25.1622 17.9365ZM7.29701 26.9761C7.29701 27.0234 7.30841 27.1309 7.41486 27.298C7.6987 27.7389 8.478 28.693 9.13946 29.4219C9.65899 29.994 9.93082 30.4714 9.93082 31.1151C9.93082 32.1524 9.0096 33.1187 7.9116 33.1187C7.26215 33.1187 6.64823 32.7725 6.1521 32.2241C5.41966 31.4011 4.62897 30.0061 4.35716 29.3502C4.35001 29.3357 4.34284 29.3189 4.33515 29.3009C4.29248 29.2011 4.23394 29.0641 4.07395 29.0641C3.93203 29.0641 3.8731 29.171 3.8731 29.3143V31.0076C3.8731 32.1767 3.1882 33.1187 1.94827 33.1187C0.696307 33.1187 0.0234369 32.1761 0.0234369 31.0076V23.6613C0.0234369 22.4921 0.69694 21.5502 1.94827 21.5502C3.1882 21.5502 3.8731 22.4928 3.8731 23.6613V24.8541C3.8731 25.0089 3.93203 25.1043 4.07395 25.1043C4.15632 25.1043 4.21524 25.0806 4.32168 24.9731C4.74618 24.5553 5.40765 23.5058 5.96266 22.5996C6.37579 21.92 6.98972 21.5502 7.63911 21.5502C8.65478 21.5502 9.5874 22.3616 9.5874 23.3989C9.5874 23.804 9.44548 24.2929 9.10333 24.8298C8.65478 25.5331 7.84001 26.308 7.50926 26.6184C7.36795 26.7495 7.29701 26.8449 7.29701 26.9761ZM1.38122 20.7983H3.04628C4.61694 20.7983 5.57303 19.7366 5.57303 18.4133C5.57303 17.3843 4.98497 16.8933 4.82013 16.7557L4.80575 16.7437L4.80345 16.7418C4.7453 16.6945 4.6879 16.6477 4.6879 16.6003C4.6879 16.5539 4.70955 16.5293 4.74712 16.4865C4.75763 16.4746 4.76943 16.4611 4.7823 16.4455C5.0066 16.1831 5.23088 15.7659 5.23088 15.1573C5.23088 13.7264 4.27417 12.963 2.78651 12.963H1.38122C0.448578 12.963 0 13.5121 0 14.2512V19.5101C0 20.2498 0.448578 20.7983 1.38122 20.7983ZM2.07816 15.0146C2.07816 14.8598 2.17257 14.7401 2.37341 14.7401H2.52674C3.03424 14.7401 3.1882 15.0978 3.1882 15.4082C3.1882 15.6942 3.03488 16.0999 2.52674 16.0999H2.37341C2.17257 16.0999 2.07816 15.9809 2.07816 15.8254V15.0146ZM2.07816 17.8053C2.07816 17.6504 2.17257 17.5308 2.37341 17.5308H2.58566C3.15272 17.5308 3.31746 17.9122 3.31746 18.2584C3.31746 18.5687 3.15209 19.0096 2.58566 19.0096H2.37341C2.17257 19.0096 2.07816 18.8906 2.07816 18.7352V17.8053ZM33.3798 19.5696C33.3798 20.285 32.9667 20.8578 32.2109 20.8578C31.455 20.8578 31.0419 20.2857 31.0419 19.5709V14.2518C31.0419 13.5121 31.4904 12.9636 32.4231 12.9636H33.7574C35.2571 12.9636 36.4971 13.8224 36.4971 15.3371C36.4971 16.3386 36.0719 16.9709 35.7057 17.2569C35.5993 17.3401 35.5758 17.4239 35.6113 17.5192C35.7646 17.9365 36.0123 18.2705 36.4141 18.7831C36.6263 19.057 36.7917 19.3552 36.7917 19.7609C36.7917 20.3695 36.2601 20.8584 35.6462 20.8584C35.2686 20.8584 34.8909 20.6914 34.4892 20.1545C34.1705 19.7366 33.8873 18.9137 33.7809 18.3057C33.7574 18.1624 33.7106 18.0792 33.5686 18.0792C33.4508 18.0792 33.3798 18.1509 33.3798 18.3057V19.5696ZM33.5452 14.9429C33.3443 14.9429 33.2499 15.0626 33.2499 15.2175V16.0282C33.2499 16.1837 33.3443 16.3028 33.5452 16.3028H33.7106C34.2066 16.3028 34.36 15.9092 34.36 15.611C34.36 15.3006 34.2066 14.9429 33.7106 14.9429H33.5452ZM12.7991 21.5495C11.4768 21.5495 10.7564 22.551 10.7564 23.8033V30.8636C10.7564 32.116 11.4768 33.1174 12.7991 33.1174C14.1214 33.1174 14.8417 32.116 14.8417 30.8636V23.8033C14.8417 22.5516 14.122 21.5495 12.7991 21.5495ZM33.2144 26.141H33.7929C35.7887 26.141 36.7803 27.25 36.7796 28.8472C36.7796 31.3756 35.0202 33.1047 32.2457 33.1047C29.6005 33.1047 26.9204 31.2802 26.9204 27.3805C26.9204 23.3016 29.6011 21.5489 32.3521 21.5489C33.8873 21.5489 34.9733 21.9424 35.6936 22.4793C36.1068 22.7897 36.3666 23.2428 36.3666 23.827C36.3666 24.6141 35.7292 25.3891 34.7845 25.3891C34.4138 25.3891 34.1726 25.2656 33.9098 25.131C33.5949 24.9698 33.249 24.7927 32.6119 24.7927C31.6558 24.7927 30.4159 25.4844 30.4159 27.3805C30.4159 29.0859 31.3251 30.0042 32.6594 30.0042C33.0611 30.0042 33.4387 29.802 33.4387 29.4917C33.4387 29.2415 33.2145 29.1461 32.8957 29.1461C32.2463 29.1461 31.3726 28.6809 31.3726 27.703C31.3726 26.6299 32.1754 26.141 33.2144 26.141ZM29.33 20.7982C29.9914 20.7982 30.511 20.4046 30.511 19.6892C30.511 18.9853 29.9914 18.5917 29.33 18.5917H28.2674C28.0666 18.5917 27.9722 18.4727 27.9722 18.3172V18.0906C27.9722 17.9358 28.0666 17.8161 28.2674 17.8161H29.0822C29.6493 17.8161 30.0979 17.4706 30.0979 16.862C30.0979 16.254 29.6493 15.9078 29.0822 15.9078H28.2674C28.0666 15.9078 27.9722 15.7888 27.9722 15.6334V15.4427C27.9722 15.2878 28.0666 15.1681 28.2674 15.1681H29.33C29.9914 15.1681 30.511 14.7746 30.511 14.0591C30.511 13.3552 29.9914 12.9616 29.33 12.9616H27.0985C26.1658 12.9616 25.7172 13.5101 25.7172 14.2498V19.5087C25.7172 20.2479 26.1658 20.7969 27.0985 20.7969H29.33V20.7982ZM11.9729 18.2461C11.9729 19.7007 10.9572 20.8577 9.04446 20.8577C7.13164 20.8577 6.12803 19.7013 6.12742 18.2461V14.2274C6.12742 13.512 6.54051 12.9392 7.29635 12.9392C8.05225 12.9392 8.47739 13.512 8.47739 14.2274V18.115C8.47739 18.401 8.61931 18.7351 9.04446 18.7351C9.46955 18.7351 9.63492 18.401 9.63492 18.115V14.2274C9.63492 13.512 10.048 12.9392 10.8039 12.9392C11.5598 12.9392 11.9729 13.512 11.9729 14.2274V18.2461ZM17.3336 20.8578C17.9476 20.8578 18.4791 20.3689 18.4791 19.7603C18.4791 19.3546 18.3138 19.0564 18.1015 18.7825L18.0445 18.7071C17.7255 18.2854 17.4435 17.9125 17.2988 17.5186C17.2633 17.4233 17.2868 17.3395 17.3932 17.2563C17.7594 16.9702 18.1845 16.338 18.1845 15.3365C18.1845 13.8218 16.9446 12.963 15.4449 12.963H14.11C13.1773 12.963 12.7287 13.5114 12.7287 14.2512V19.5702C12.7287 20.2857 13.1418 20.8584 13.8977 20.8584C14.6536 20.8584 15.0666 20.2857 15.0666 19.5702V18.3064C15.0666 18.1515 15.1376 18.0799 15.2555 18.0799C15.3974 18.0799 15.4443 18.1631 15.4677 18.3064C15.5742 18.9143 15.8574 19.7372 16.1761 20.1551C16.5778 20.6908 16.9554 20.8578 17.3336 20.8578ZM15.3967 16.3022H15.2314C15.0306 16.3022 14.9361 16.1831 14.9361 16.0276V15.2175C14.9361 15.0626 15.0306 14.943 15.2314 14.943H15.3967C15.8929 14.943 16.0462 15.3007 16.0462 15.611C16.0462 15.9086 15.8929 16.3022 15.3967 16.3022ZM22.2452 23.6248C22.2452 22.4678 22.906 21.5495 24.1225 21.5495C25.339 21.5495 25.9998 22.4678 25.9998 23.6248V30.9954C25.9998 32.1761 25.3149 33.1181 24.075 33.1181C23.3546 33.1181 22.6817 32.832 22.0558 31.6034L20.4148 28.3833C20.3324 28.2163 20.2614 28.1567 20.1671 28.1567C20.0371 28.1567 19.9662 28.2527 19.9662 28.4671V31.0428C19.9662 32.1998 19.3054 33.1181 18.0889 33.1181C16.873 33.1181 16.2116 32.1998 16.2116 31.0428V23.6722C16.2116 22.4915 16.8965 21.5495 18.1364 21.5495C18.8802 21.5495 19.5297 21.8356 20.1556 23.0642L21.7966 26.2843C21.879 26.4514 21.95 26.5109 22.0444 26.5109C22.1742 26.5109 22.2452 26.4149 22.2452 26.2005V23.6248Z" fill="var(--fill-0, #FBF5E7)"/>
</g>
</svg>
