<svg overflow="visible" style="display: block;" viewBox="0 0 236 34.3689" fill="none" xmlns="http://www.w3.org/2000/svg">
<g id="svgexport-2 1" clip-path="url(#clip0_0_177)">
<path id="Vector" d="M44 8.34472C41.7471 8.34472 41.2874 11.5506 41.2874 13.2478H46.5287C46.6207 11.0791 46.069 8.34472 44 8.34472ZM50.5287 19.0467V21.4983C49.1494 22.4412 46.6207 22.9598 44.5977 22.9598C39.4023 22.9598 35.8621 19.801 35.8621 14.8036C35.8621 9.52335 39.6322 6.50605 44.3678 6.50605C50.2989 6.50605 51.6782 10.7491 51.6782 15.4637H41.3793C41.4713 18.811 42.8506 20.6968 45.8391 20.6968C48.6897 20.6968 50.2989 19.3296 50.5287 19.0467ZM36.1379 21.2625V22.3469H28.8276V13.8136C28.8276 11.5506 28.092 10.5134 26.6667 10.5134C24.5517 10.5134 23.954 12.1163 23.954 14.5208V20.2725C23.9411 20.404 23.9553 20.5368 23.9958 20.6623C24.0362 20.7878 24.1018 20.9033 24.1885 21.0011C24.2753 21.0989 24.381 21.1769 24.4991 21.23C24.6171 21.2832 24.7447 21.3103 24.8736 21.3097H26.023V22.394H17.1954V21.3097H17.7931C18.2989 21.3568 18.8046 20.9797 18.8506 20.4611V1.83867H12.7816V19.0467C12.7816 20.6025 13.3793 21.2625 14.4828 21.2625H15.8621V22.3469H3.77012V21.2625H5.6092C6.85058 21.2625 7.12644 20.5554 7.12644 19.2353V1.83867H3.12644C1.97701 1.83867 1.42529 2.40441 1.42529 3.44161V6.17604L0 6.0346V0H23.954V10.042C24.6897 8.15614 26.2529 6.74178 29.1954 6.74178C31.954 6.74178 33.931 8.29757 33.931 12.8235V20.3196C33.931 20.8382 34.2989 21.2625 34.8046 21.3097H36.1379V21.2625ZM146.575 2.35727H151.678V7.02465H155.356V9.00475H151.678V19.141C151.678 20.0368 152.092 20.4611 152.782 20.4611C153.885 20.4611 154.207 19.1881 154.207 17.7738H155.356C155.356 20.8854 154.207 22.724 150.989 22.724C147.126 22.724 146.621 20.7911 146.621 19.1881V9.00475H144.92V7.02465H146.621L146.575 2.35727ZM139.954 0.188581C141.517 0.141436 142.805 1.4615 142.851 3.06445C142.851 4.71453 141.609 6.0346 140 6.0346C138.391 6.0346 137.103 4.76168 137.103 3.11159C137.057 1.4615 138.345 0.188581 139.954 0.188581ZM136.736 8.06185H135.402V6.97751H142.759V20.2253C142.759 20.9325 143.126 21.2625 143.678 21.2625H145.057V22.3469H135.402V21.2625H136.598C137.425 21.2625 137.655 21.074 137.655 20.2253V8.91046C137.655 8.34472 137.471 8.06185 136.736 8.06185ZM126.621 21.1211C128.322 21.1211 129.655 19.5182 129.655 14.615C129.655 10.4191 128.736 8.29757 126.621 8.29757C124.598 8.29757 123.586 10.4663 123.586 14.615C123.54 19.5653 124.782 21.1682 126.621 21.1211ZM118.115 14.6622C118.115 10.6548 120.966 6.50605 126.621 6.50605C132.46 6.50605 135.126 10.8906 135.126 14.6622C135.126 18.4338 132.46 23.0069 126.621 23.0069C120.874 22.9598 118.115 19.141 118.115 14.6622ZM115.678 21.2625V22.3469H106.437V21.2625H107.218C108 21.2625 108.138 20.9325 108.138 20.131V6.93036H113.195V10.4191C113.931 7.87327 115.632 6.60034 117.701 6.60034C117.885 6.60034 118.023 6.60034 118.207 6.64749V11.1263C117.701 10.8434 117.103 10.702 116.506 10.702C114.575 10.702 113.241 11.7392 113.241 14.0493V20.2253C113.241 20.9797 113.563 21.3097 114.253 21.3097L115.678 21.2625ZM97.6552 2.35727H102.759V7.02465H106.437V9.00475H102.759V19.141C102.759 20.0368 103.172 20.4611 103.862 20.4611C104.966 20.4611 105.287 19.1881 105.287 17.7738H106.437C106.437 20.8854 105.287 22.6769 102.069 22.6769C98.2069 22.6769 97.7012 20.7439 97.7012 19.141V9.00475H96V7.02465H97.7012L97.6552 2.35727ZM88.046 8.29757C85.7931 8.29757 85.3333 11.5506 85.3333 13.2478H90.5747C90.6667 11.1263 90.1149 8.29757 88.046 8.29757ZM94.5747 19.0467V21.4983C93.1954 22.4412 90.7127 22.9598 88.6437 22.9598C83.4943 22.9598 79.954 19.801 79.954 14.8036C79.954 9.52335 83.6782 6.50605 88.4598 6.50605C94.3908 6.50605 96.046 10.7491 96.046 15.4637H85.4253C85.5172 18.811 86.8966 20.6968 89.8851 20.6968C92.6897 20.6968 94.2989 19.3296 94.5747 19.0467ZM72.9655 11.2677C72.9655 4.62024 71.2184 1.83867 67.3563 1.83867H65.1035V20.5082H67.9081C71.5862 20.5554 72.9655 17.5852 72.9655 11.2677ZM59.4943 2.31012C59.5402 1.74438 59.1724 1.22578 58.6207 1.17863H57.0575V0H68.046C74.2989 0 78.7586 3.81877 78.7586 11.362C78.7586 19.0467 73.8851 22.394 69.0575 22.394H57.0115V21.3097H58.1149C59.0345 21.3097 59.4483 20.9797 59.4483 19.9425L59.4943 2.31012ZM227.172 16.548C229.012 16.9252 230.667 17.3023 230.667 18.8581C230.667 20.131 229.471 20.8382 228.23 20.8382C226.759 20.8382 225.149 20.4139 224.782 20.0368C224.506 19.7539 224.322 18.9053 224.23 18.1038H222.989V21.6397C224.138 22.3469 226.943 22.8183 229.287 22.8183C233.931 22.8183 236 20.2725 236 17.1609C236 14.4736 234.069 12.965 231.126 12.3992C229.058 11.9749 227.724 11.5506 227.724 10.1834C227.724 8.81617 228.828 8.39186 230.575 8.39186C231.954 8.39186 232.736 8.76903 233.195 9.19334C233.563 9.5705 233.701 10.3248 233.793 10.9849H234.897V7.54325C233.333 6.97751 231.678 6.69463 229.977 6.69463C225.701 6.69463 222.851 8.62759 222.851 11.8335C222.851 15.1336 224.92 16.1237 227.172 16.548ZM207.126 7.02465V8.10899H206.115C205.149 8.10899 205.287 8.86332 205.379 9.38192L207.172 17.4909L210.069 7.0718H213.977L216.92 17.1137L218.759 9.09904C218.851 8.67474 218.713 8.15614 217.977 8.15614H216.828V7.0718H223.264V8.15614H222.069C221.563 8.20328 221.241 8.10899 220.874 9.42906L217.701 22.4883H213.103L210.575 12.6821L207.954 22.4883H203.356L200 9.66479C199.724 8.58045 199.264 8.20328 198.437 8.20328H197.425V7.11894H207.126V7.02465ZM190.989 8.29757C188.736 8.29757 188.276 11.5506 188.276 13.2478H193.517C193.609 11.0791 193.057 8.29757 190.989 8.29757ZM197.471 19.0467V21.4983C196.092 22.4412 193.563 22.9598 191.54 22.9598C186.391 22.9598 182.851 19.801 182.851 14.8036C182.851 9.52335 186.575 6.50605 191.356 6.50605C197.287 6.50605 198.667 10.7491 198.667 15.4637H188.322C188.414 18.811 189.793 20.6968 192.782 20.6968C195.632 20.6968 197.241 19.3296 197.471 19.0467ZM168.506 21.3097V22.394H160.874V21.3097H162.529C163.034 21.3097 163.264 20.8854 163.264 20.2725V2.12154C163.264 1.5558 163.034 1.17863 162.483 1.17863H160.874V0H169.287L178.299 15.9823V2.31012C178.299 1.50865 178.115 1.22578 177.425 1.22578H175.862V0H183.08V1.17863H181.931C181.057 1.17863 180.92 1.60294 180.92 2.21583V22.394H176.092L165.885 4.43166V20.2725C165.885 20.9325 166.161 21.3097 166.621 21.3097H168.506ZM206.897 30.6445C207.632 30.5973 208.23 29.9373 208.184 29.1358C208.184 28.1929 207.448 27.3914 205.333 27.3914C203.218 27.3914 202.299 28.1929 202.299 29.6073H203.31C203.31 28.8058 203.77 28.2872 205.241 28.2872C206.713 28.2872 207.08 28.7586 207.08 29.3715C207.08 29.9844 206.667 30.3616 205.609 30.3616H203.724V31.2573H205.609C206.943 31.2573 207.402 31.6345 207.402 32.2945C207.402 33.0017 206.851 33.5203 205.241 33.5203C203.632 33.5203 203.035 32.8603 203.035 32.2002H201.977C202.023 33.1432 202.621 34.4161 205.241 34.4161C207.54 34.4161 208.506 33.6618 208.506 32.3417C208.506 31.2573 207.816 30.7387 206.897 30.6445ZM201.609 28.3815V27.4386H195.632V28.4286H200.46L196.598 34.2275H197.793L201.609 28.3815ZM194.345 32.1531C194.345 32.9074 193.839 33.426 192.046 33.426C190.437 33.426 189.747 32.9546 189.747 32.2002C189.747 31.4459 190.299 30.9273 192.046 30.9273C193.885 30.9745 194.345 31.4459 194.345 32.1531ZM193.885 29.1829C193.885 29.7015 193.517 30.0787 192.046 30.0787C190.575 30.0787 190.207 29.6544 190.207 29.1829C190.207 28.5701 190.713 28.24 192.046 28.24C193.379 28.24 193.885 28.5701 193.885 29.1829ZM192.046 34.3689C194.391 34.3689 195.31 33.4732 195.31 32.2474C195.31 31.1159 194.391 30.5973 193.425 30.503C194.345 30.4087 194.805 29.8901 194.805 29.0887C194.805 28.2872 194.069 27.3914 192 27.3914C189.931 27.3914 189.195 28.1929 189.195 29.0887C189.195 29.8901 189.793 30.503 190.575 30.503C189.609 30.5973 188.736 31.3045 188.736 32.2945C188.782 33.7089 189.793 34.3689 192.046 34.3689ZM187.126 34.2746V27.3914H186.299C186.207 27.6743 185.931 27.7686 183.908 28.0986V29.0415L186.069 28.6643V34.1803L187.126 34.2746ZM179.77 34.2746V33.2846H174.621V31.3516H179.586V30.3616H174.621V28.4758H179.724V27.4857H173.609V34.2746H179.77ZM172.184 31.7288H171.08C171.035 32.0588 170.943 32.3417 170.713 32.5774C170.253 33.1432 169.517 33.3789 168.414 33.3789C167.494 33.3789 166.483 33.096 165.977 32.3888C165.655 31.9174 165.517 31.3988 165.563 30.833C165.517 30.3144 165.655 29.7958 165.931 29.3715C166.345 28.7115 167.172 28.3343 168.368 28.3343C169.563 28.3343 170.253 28.6643 170.667 29.1358C170.897 29.3715 171.034 29.7015 171.034 29.9844H172.138C172.092 29.5601 171.954 29.1358 171.724 28.7586C171.172 27.9572 170.207 27.2971 168.368 27.2971C166.621 27.2971 165.609 27.8629 165.012 28.7115C164.598 29.3244 164.414 30.0316 164.46 30.7859C164.414 31.5874 164.644 32.3888 165.103 33.0489C165.655 33.8503 166.759 34.3218 168.46 34.3218C170.161 34.3218 171.172 33.8032 171.678 32.9546C172 32.6246 172.138 32.2002 172.184 31.7288ZM163.126 34.2746V27.4857H162.115V32.766L157.747 27.4857H156.552V34.2746H157.563V28.9472L161.977 34.2746H163.126ZM154.575 27.4857H153.517V34.2746H154.575V27.4857ZM151.862 32.2474C151.862 31.163 151.126 30.5502 149.379 30.3616C149.103 30.3144 148.46 30.2673 148.092 30.2201C146.437 30.0316 145.977 29.7958 145.977 29.2301C145.977 28.6643 146.529 28.3343 148.184 28.3343C149.471 28.3343 150.115 28.5701 150.437 29.0415C150.529 29.1829 150.575 29.3244 150.621 29.4658H151.77C151.724 29.2301 151.632 28.9944 151.54 28.7586C151.08 27.9572 150.161 27.3914 148.184 27.3914C145.839 27.3914 144.92 28.24 144.92 29.3244C144.92 30.4087 145.655 30.9273 147.632 31.163L148.874 31.3045C150.391 31.4931 150.851 31.7288 150.851 32.3888C150.851 33.0489 150.299 33.426 148.598 33.426C147.172 33.426 146.437 33.1432 146.115 32.6717C146.023 32.5303 145.977 32.3417 145.931 32.1531H144.828C144.828 32.4831 144.92 32.8131 145.103 33.096C145.563 33.8975 146.575 34.4161 148.552 34.4161C150.897 34.3689 151.908 33.5675 151.862 32.2474ZM140.23 34.2746V27.4857H139.218V32.766L134.851 27.4857H133.655V34.2746H134.667V28.9472L139.08 34.2746H140.23ZM130.207 31.6345H126.989L128.322 29.0415L128.598 28.4286L128.874 29.0415C128.92 28.9944 130.207 31.6345 130.207 31.6345ZM126.529 32.5774H130.667L131.448 34.2746H132.598L129.241 27.4857H128L124.552 34.2746H125.655L126.529 32.5774ZM123.77 34.2275V30.4559H119.816V31.3988H122.759C122.759 32.6717 121.747 33.3789 120.184 33.3789C118.391 33.3789 117.425 32.5774 117.425 30.833C117.425 29.0887 118.253 28.2872 120.23 28.2872C121.885 28.2872 122.621 28.9472 122.667 29.7958H123.678C123.678 28.5229 122.667 27.3443 120.184 27.3443C117.701 27.3443 116.368 28.6172 116.368 30.833C116.368 33.0489 117.793 34.3218 120.046 34.3218C121.655 34.3218 122.437 33.756 122.805 33.2846L122.851 34.2275H123.77ZM114.943 27.4857H113.885V34.2746H114.943V27.4857ZM111.862 34.2746V27.4857H110.805V30.3144H106.253V27.4857H105.195V34.2746H106.253V31.3516H110.805V34.2746H111.862ZM103.816 31.7288H102.713C102.667 32.0588 102.575 32.3417 102.345 32.5774C101.885 33.1432 101.149 33.3789 100.046 33.3789C99.1264 33.3789 98.115 33.096 97.6092 32.3888C97.2874 31.9174 97.1494 31.3988 97.1954 30.833C97.1494 30.3144 97.2874 29.7958 97.5632 29.3715C97.977 28.7115 98.8046 28.3343 100 28.3343C101.195 28.3343 101.885 28.6643 102.299 29.1358C102.529 29.3715 102.667 29.7015 102.667 29.9844H103.77C103.724 29.5601 103.586 29.1358 103.356 28.7586C102.805 27.9572 101.839 27.2971 100 27.2971C98.2529 27.2971 97.2414 27.8629 96.6437 28.7115C96.2299 29.3244 96.046 30.0316 96.092 30.7859C96.046 31.5874 96.2299 32.3888 96.6897 33.0489C97.2414 33.8503 98.3448 34.3218 100.046 34.3218C101.747 34.3218 102.759 33.8032 103.264 32.9546C103.586 32.6246 103.77 32.2002 103.816 31.7288ZM94.7126 27.4857H93.6552V34.2746H94.7126V27.4857ZM91.6322 34.2746V27.4857H90.2529L87.5862 33.096L84.9195 27.4857H83.5402V34.2746H84.5517V29.0415L87.0345 34.2746H88.1379L90.7127 29.0415V34.2746H91.6322ZM78.7586 34.2746V30.4559H74.8046V31.3988H77.7931C77.7931 32.6717 76.7816 33.3789 75.2184 33.3789C73.4253 33.3789 72.4598 32.5774 72.4598 30.833C72.4598 29.0887 73.2874 28.2872 75.2644 28.2872C76.9195 28.2872 77.6552 28.9472 77.7012 29.7958H78.7126C78.7126 28.5229 77.7012 27.3443 75.2184 27.3443C72.7356 27.3443 71.4023 28.6172 71.4023 30.833C71.4023 33.0489 72.8276 34.3218 75.0805 34.3218C76.6897 34.3218 77.4713 33.756 77.8391 33.2846L77.8851 34.2275L78.7586 34.2746ZM69.977 34.2746V27.4857H68.9655V32.766L64.5977 27.4857H63.4023V34.2746H64.4138V28.9472L68.8276 34.2746H69.977ZM61.4253 27.4857H60.3678V34.2746H61.4253V27.4857ZM59.3563 27.4857H58.2989L55.3563 33.2846L52.4138 27.4857H51.2644L54.6667 34.2746H55.954L59.3563 27.4857ZM49.5172 29.4658C49.5172 29.6544 49.4713 29.843 49.3793 30.0316C49.2414 30.2673 48.9195 30.4087 48.4138 30.4087H45.1035V28.3815H48.2299C48.8736 28.3815 49.1954 28.5229 49.3793 28.8529C49.4713 29.0887 49.5172 29.2772 49.5172 29.4658ZM50.5747 29.4187C50.5747 29.0415 50.4828 28.6172 50.2989 28.2872C49.977 27.8157 49.3793 27.4857 48.3678 27.4857H44.092V34.2746H45.1035V31.3988H48.1379L49.977 34.2746H51.2184L49.2414 31.2573C49.7012 31.2102 50.1149 30.9273 50.3448 30.503C50.4828 30.1259 50.5747 29.7487 50.5747 29.4187ZM42.5287 34.2746V33.2846H37.3793V31.3516H42.2989V30.3616H37.3793V28.4758H42.4828V27.4857H36.3218V34.2746H42.5287ZM34.7586 32.2474C34.7586 31.163 34.023 30.5502 32.2759 30.3616C32 30.3144 31.3563 30.2673 30.9885 30.2201C29.3333 30.0316 28.8736 29.7958 28.8736 29.2301C28.8736 28.6643 29.4253 28.3343 31.0805 28.3343C32.3678 28.3343 33.0115 28.5701 33.3333 29.0415C33.4253 29.1829 33.4713 29.3244 33.5172 29.4658H34.6207C34.5747 29.2301 34.4828 28.9944 34.3908 28.7586C33.931 27.9572 33.0115 27.3914 31.0345 27.3914C28.6897 27.3914 27.7241 28.24 27.7241 29.3244C27.7241 30.4087 28.4598 30.9273 30.4368 31.163L31.6782 31.3045C33.1954 31.4931 33.6552 31.7288 33.6552 32.3888C33.6552 33.0489 33.1035 33.426 31.4023 33.426C29.977 33.426 29.2414 33.1432 28.9195 32.6717C28.8276 32.5303 28.7816 32.3417 28.7816 32.1531H27.6782C27.6782 32.4831 27.7701 32.8131 27.954 33.096C28.4138 33.8975 29.4253 34.4161 31.4023 34.4161C33.7471 34.3689 34.7586 33.5675 34.7586 32.2474Z" fill="var(--fill-0, #C9BD9D)"/>
</g>
<defs>
<clipPath id="clip0_0_177">
<rect width="236" height="34.3689" fill="white"/>
</clipPath>
</defs>
</svg>
