<svg overflow="visible" style="display: block;" viewBox="0 0 205.975 44.9508" fill="none" xmlns="http://www.w3.org/2000/svg">
<g id="Group">
<path id="Vector" d="M7.97265 34.9838C3.63806 34.9838 1.87127 29.07 1.00371 22.5458H0V35.686H0.867559L2.14357 33.4645C2.14357 33.4645 4.32194 35.9683 7.83334 35.9683C12.6271 35.9683 15.3754 32.2632 15.3754 27.3176C15.3754 16.7207 2.84964 13.1567 2.84964 4.65358C2.84964 2.3071 4.36945 1.17488 5.87341 1.17488C9.24866 1.17488 11.0028 5.95314 12.0508 10.8233H13.0102V0H12.1901L10.6387 2.36289C10.6387 2.36289 8.72307 0.236289 5.98742 0.236289C2.52035 0.236289 0.0569928 3.49838 0.0569928 7.42011C0.0569928 17.3475 11.8387 20.1141 11.8387 29.7723C11.8387 33.0345 10.4709 34.9838 7.97265 34.9838ZM23.9655 10.9645C19.7702 10.9645 16.9965 15.3621 16.9965 23.3007C16.9965 31.6659 19.5897 35.9683 24.013 35.9683C28.4362 35.9683 30.7508 31.62 30.7508 23.3466C30.7508 15.0733 28.4362 10.9612 23.9686 10.9612L23.9655 10.9645ZM23.975 35.1249C22.3792 35.1249 21.6763 32.8506 21.6763 23.3959C21.6763 13.9411 22.3253 11.7948 23.9655 11.7948C25.6056 11.7948 26.109 14.2266 26.109 23.3959C26.109 32.5651 25.4789 35.1249 23.975 35.1249ZM33.3311 30.7241C33.3311 32.3322 33.6034 33.6089 34.2903 34.5046C35.0187 35.5451 36.2502 36.0635 37.5738 36.0635C39.673 36.0635 41.1327 34.8821 41.8608 32.9426C41.9654 32.6703 42.0539 32.3977 42.1331 32.1254V35.6863H48.016V34.741H46.2367V11.3451H40.1259V12.2903H41.9052V25.1483C41.9052 27.5605 41.8135 30.1596 41.4018 31.6233C41.0378 32.8999 40.3062 33.704 39.2581 33.704C38.3022 33.704 37.7067 33.0902 37.7067 31.4822V11.3451H31.5515V12.2903H33.3311V30.7241ZM50.9354 33.8912C51.7556 35.5451 53.2153 36.2078 54.8584 36.2078C56.1884 36.2078 57.2426 35.765 57.9266 34.9281C58.4869 34.2421 58.6991 33.2939 58.6991 32.0499C58.6991 31.9252 58.7055 28.5811 58.7055 28.4564H57.6829C57.6829 28.5581 57.6829 31.9252 57.6829 32.0499C57.6829 32.8571 57.5783 33.448 57.344 33.8976C57.0401 34.4752 56.5367 34.8002 55.9763 34.8002C55.4156 34.8002 55.0644 34.5571 54.8362 34.1272C54.6338 33.7432 54.5797 33.1822 54.5797 32.4667V12.2936H59.095V11.2073H54.5797V2.8355H53.5761C53.5761 2.8355 52.9842 7.0887 50.8405 9.40562C49.2002 11.2008 47.6932 11.3911 47.6932 11.3911V12.3362H50.2486V29.8249C50.2486 31.5248 50.432 32.8966 50.9322 33.8912H50.9354Z" fill="var(--fill-0, #C9BD9D)"/>
<path id="Vector_2" d="M69.132 35.6863H75.0149V34.741H73.2356V16.0217C73.2356 13.1862 72.0958 10.9645 69.4519 10.9645C67.4003 10.9645 65.5225 12.4117 64.6644 14.4136V0.236324H58.5536V1.18148H60.3329V35.6863H66.444V34.741H64.6644V18.1483C64.6644 17.0128 64.8449 16.1169 65.2122 15.3588C65.76 14.2233 66.6243 13.4685 67.3559 13.4685C68.3122 13.4685 68.8597 14.1314 68.8597 15.8314V35.6827H69.132V35.6863ZM83.1046 35.9715C85.5901 35.9715 87.3569 34.987 88.2279 32.6506C88.7883 31.1474 88.7628 29.5426 88.8072 27.6523H87.7592C87.756 27.7836 87.7463 28.3481 87.7463 28.4859C87.7463 30.3204 87.5374 31.6922 87.0974 32.693C86.5654 33.8976 85.4923 34.5539 84.197 34.5539C82.541 34.5539 81.566 33.5201 81.0214 31.7184C80.5273 30.0808 80.423 27.7803 80.423 24.8759C80.423 24.6987 80.423 23.8159 80.423 23.6453H88.8674C88.8674 23.6453 88.9592 22.5918 88.9592 20.6063C88.9592 14.3184 86.8631 10.8693 82.6646 10.8693C80.7047 10.8693 79.1088 11.9096 77.9214 13.6588C76.5982 15.6902 75.7684 19.1525 75.7684 23.2449V23.5599C75.7684 27.1994 76.1833 30.3303 77.3421 32.5619C78.6151 35.01 80.7806 35.9683 83.1017 35.9683L83.1046 35.9715ZM82.6234 11.9129C84.0261 11.9129 84.555 14.6335 84.6402 20.3274C84.6467 20.7606 84.6309 22.0995 84.6309 22.5623H80.4356C80.442 22.1881 80.4449 20.5669 80.4546 20.2158C80.6065 14.2036 81.2841 11.9162 82.6234 11.9162V11.9129ZM91.9008 35.686H97.7837V34.741H96.0044V18.0564C96.0044 16.025 96.2767 15.0798 96.8718 14.0395C97.1663 13.5308 97.4831 13.1501 97.8123 12.8613C97.7142 13.1468 97.6475 13.4717 97.6475 13.8491C97.6475 15.408 98.6038 16.4024 100.019 16.4024C101.434 16.4024 102.435 15.2209 102.435 13.754C102.435 12.0507 101.339 11.0137 99.6995 11.0137C98.0592 11.0137 96.5805 12.1754 95.7765 14.1347V11.3418H89.8936V12.287H91.6729V34.7377H89.8936V35.6827H91.9008V35.686ZM104.851 35.686H110.734V34.741H108.954V18.1483C108.954 17.0128 109.138 16.1168 109.502 15.3587C110.05 14.2232 110.917 13.4684 111.646 13.4684C112.602 13.4684 113.149 14.1314 113.149 15.8313V35.6827H119.305V34.7377H117.525V16.0217C117.525 13.1862 116.385 10.9644 113.742 10.9644C111.484 10.9644 109.436 12.7136 108.726 15.0306V11.3451H102.843V12.2903H104.623V34.741H102.843V35.686H104.851ZM130.802 35.686H140.104V23.7272H139.148C138.6 28.7845 137.141 34.6458 132.081 34.6458H131.125V1.22732H132.904V0.282167H124.925V1.22732H126.705V34.741H124.925V35.686H130.808H130.802ZM143.024 35.6863H146.9H147.127H148.907V34.741H147.127V11.3451H146.9H142.796H141.017V12.2903H142.796V34.741H141.017V35.6863H142.796H143.024ZM144.8 3.63946C143.341 3.63946 142.065 4.77499 142.065 6.47495C142.065 8.27006 143.341 9.26446 144.8 9.26446C146.26 9.26446 147.492 8.17818 147.492 6.47495C147.492 4.77168 146.308 3.63946 144.8 3.63946ZM160.444 11.3451H158.073V12.2903H160.239L157.091 26.9074L154.286 12.2903H155.702V11.3451H154.15H154.102H149.863H149.819H148.267V12.2903H149.819H149.863L155.255 35.9223H156.202L161.29 12.2903H162.86V11.3451H161.492H160.444ZM165.46 35.6863H169.335H169.563H171.342V34.741H169.563V11.3451H169.335H165.231H163.452V12.2903H165.231V34.741H163.452V35.6863H165.231H165.46ZM167.239 3.63946C165.78 3.63946 164.504 4.77499 164.504 6.47495C164.504 8.27006 165.78 9.26446 167.239 9.26446C168.699 9.26446 169.931 8.17818 169.931 6.47495C169.931 4.77168 168.747 3.63946 167.239 3.63946ZM174.052 35.686H179.935V34.741H178.156V18.1483C178.156 17.0128 178.34 16.1168 178.704 15.3587C179.252 14.2232 180.119 13.4684 180.847 13.4684C181.803 13.4684 182.351 14.1314 182.351 15.8313V35.6827H188.51V34.7377H186.73V16.0217C186.73 13.1862 185.59 10.9644 182.946 10.9644C180.689 10.9644 178.64 12.7136 177.931 15.0306V11.3451H172.048V12.2903H173.828V34.741H172.048V35.686H174.056H174.052ZM203.923 12.6677C205.063 12.6677 205.975 11.7226 205.975 10.4952C205.975 9.12341 205.107 8.17825 203.832 8.17825C202.049 8.17825 200.466 10.085 199.858 12.0901C198.927 11.4666 197.857 11.1089 196.669 11.1089C192.702 11.1089 189.463 15.0306 189.463 20.2323C189.463 24.5609 190.805 27.7869 193.411 29.1554C191.404 29.6608 189.798 31.0227 189.798 32.9983C189.798 35.4169 191.815 36.5426 194.466 36.5426C196.014 36.5426 198.332 36.5591 198.705 36.5591C200.32 36.5591 201.184 36.7857 201.922 37.4484C202.492 37.9606 202.777 38.8301 202.777 39.8244C202.777 42.2858 200.624 43.8022 197.584 43.8022C194.545 43.8022 192.889 42.6568 192.889 40.4252C192.889 38.364 194.339 37.7634 194.339 37.7634V37.4322C194.339 37.4322 192.553 37.1859 191.094 37.5633C189.634 37.9408 188.608 38.9383 188.608 40.5696C188.608 43.1751 191.48 44.9508 196.508 44.9508C202.065 44.9508 205.009 41.8888 205.009 37.9376C205.009 35.9751 204.272 34.3635 202.802 33.4447C201.615 32.6998 200.437 32.4864 198.797 32.4864H194.766C193.316 32.4864 192.515 32.1845 192.515 31.2426C192.515 30.2122 193.93 29.884 195.298 29.884H196.53C200.909 29.884 203.508 25.913 203.508 20.288C203.508 17.1638 202.445 14.4038 200.678 12.7465C200.785 12.1394 200.995 11.6241 201.321 11.0695C201.507 10.7282 201.723 10.4525 201.948 10.2294C201.929 10.3475 201.913 10.4657 201.913 10.5969C201.913 11.7784 202.78 12.6776 203.92 12.6776L203.923 12.6677ZM196.536 28.7879C195.26 28.7879 194.212 27.0387 194.212 20.3274C194.212 13.6162 195.46 12.1722 196.6 12.1722C197.739 12.1722 198.772 13.6621 198.772 20.2815C198.772 26.9008 197.86 28.7911 196.536 28.7911V28.7879Z" fill="var(--fill-0, #C9BD9D)"/>
<path id="Vector_3" d="M202.897 32.2734H203.195V31.5775H203.429C203.588 31.5775 203.699 31.5973 203.762 31.6333C203.866 31.699 203.92 31.8336 203.92 32.0371V32.1782L203.926 32.234C203.926 32.234 203.926 32.2471 203.93 32.2537C203.93 32.2602 203.933 32.2668 203.933 32.2734H204.212L204.202 32.2504C204.202 32.2504 204.189 32.2045 204.186 32.1585C204.186 32.1126 204.183 32.0666 204.183 32.0272V31.8992C204.183 31.8106 204.151 31.7187 204.091 31.6268C204.028 31.5349 203.933 31.4758 203.8 31.4528C203.904 31.4364 203.987 31.4069 204.047 31.3675C204.158 31.2953 204.212 31.1771 204.212 31.0196C204.212 30.7963 204.123 30.6487 203.949 30.5732C203.851 30.5305 203.699 30.5108 203.486 30.5108H202.894V32.2701L202.897 32.2734ZM203.746 31.3248C203.683 31.3511 203.588 31.3642 203.464 31.3642H203.195V30.7274H203.448C203.613 30.7274 203.733 30.7504 203.809 30.7931C203.885 30.8357 203.92 30.9211 203.92 31.0491C203.92 31.1837 203.863 31.2756 203.746 31.3248ZM204.61 30.2679C204.31 29.9561 203.945 29.7985 203.518 29.7985C203.091 29.7985 202.733 29.9561 202.435 30.2679C202.134 30.583 201.985 30.9572 201.985 31.4003C201.985 31.8434 202.134 32.2241 202.432 32.5392C202.729 32.8542 203.094 33.0119 203.521 33.0119C203.949 33.0119 204.31 32.8542 204.614 32.5392C204.915 32.2241 205.063 31.8467 205.063 31.4003C205.063 30.9539 204.911 30.5797 204.614 30.2679M204.455 30.4222C204.712 30.6913 204.842 31.0163 204.842 31.397C204.842 31.7778 204.712 32.1093 204.455 32.3815C204.199 32.6509 203.885 32.7888 203.518 32.7888C203.151 32.7888 202.837 32.6541 202.581 32.3815C202.324 32.1093 202.197 31.7843 202.197 31.397C202.197 31.0097 202.327 30.6913 202.584 30.4222C202.843 30.1498 203.154 30.0152 203.521 30.0152C203.889 30.0152 204.199 30.1498 204.459 30.4222" fill="var(--fill-0, #C9BD9D)"/>
</g>
</svg>
