<svg overflow="visible" style="display: block;" viewBox="0 0 721.642 701.27" fill="none" xmlns="http://www.w3.org/2000/svg">
<g id="Vector" style="mix-blend-mode:multiply">
<path d="M165.109 659.74C216.744 708.268 304.848 716.519 362.148 672.5C387.935 652.698 406.215 623.829 412.775 592.598C423.13 541.829 398.86 493.583 359.72 461.406C337.345 443.027 310.8 430.795 283.964 419.937C260.086 410.131 183.076 387.182 201.954 347.264C220.111 308.736 329.628 365.902 361.993 368.756C409.952 372.987 467.225 358.902 504.348 331.899C537.138 308.055 569.308 260.962 568.776 219.595C568.385 189.427 563.262 95.6781 616.079 111.959C636.87 130.518 624.339 138.733 623.559 154.127C620.893 163.073 617.814 171.323 616.079 176.927C596.424 239.922 567.32 293.162 591.033 361.083C603.314 396.493 651.903 431.184 694.87 442.293C703.741 443.587 712.672 444.703 721.642 444.624V69.3731C696.446 22.1651 648.92 2.0843 597.823 0C546.155 2.63178 502.199 29.5311 475.29 73.4688C456.977 106.262 451.397 136.638 455.317 173.489C457.951 198.237 459.916 220.897 441.995 240.935C408.232 279.815 342.341 264.266 299.689 246.661C275.468 236.691 255.782 233.278 233.688 231.596C213.002 230.02 191.915 231.953 172.756 239.909C151.312 248.815 132.619 261.34 117.395 281.497C98.3204 306.792 92.0455 335.264 91.4031 366.091C97.2615 413.575 119.667 447.143 159.077 475.726C161.364 477.384 163.857 478.742 166.466 479.826L182.048 486.305C231.126 506.02 309.647 547.837 299.212 579.686C274.95 619.967 221.607 566.291 202.748 546.292C148.479 497.698 69.66 485.422 1.76785 519.165C1.75247 566.666 -2.39833 616.069 2.07389 663.476C23.7166 630.8 55.7394 593.567 100.428 606.667C128.39 611.326 146.385 642.111 165.109 659.74Z" fill="var(--fill-0, #FBF5E7)" fill-opacity="0.5"/>
</g>
</svg>
