<svg overflow="visible" style="display: block;" viewBox="0 0 622.196 715.632" fill="none" xmlns="http://www.w3.org/2000/svg">
<g id="Vector" style="mix-blend-mode:multiply">
<path d="M142.356 673.251C186.876 722.773 262.839 731.193 312.242 686.273C334.476 666.066 350.237 636.605 355.893 604.735C364.821 552.926 343.895 503.692 310.149 470.856C290.857 452.101 267.97 439.618 244.833 428.537C224.245 418.531 157.847 395.112 174.124 354.376C189.779 315.059 284.204 373.395 312.109 376.308C353.459 380.626 402.84 366.252 434.846 338.697C463.118 314.364 490.855 266.306 490.396 224.092C490.059 193.306 485.642 97.6376 531.18 114.252C549.107 133.191 538.303 141.574 537.63 157.283C535.331 166.413 532.677 174.832 531.18 180.55C514.234 244.836 489.141 299.166 509.586 368.478C520.175 404.613 562.068 440.015 599.114 451.351C606.762 452.672 614.462 453.81 622.196 453.73V70.7938C600.473 22.619 559.496 2.12698 515.44 0C470.893 2.68568 432.994 30.1359 409.793 74.9735C394.004 108.438 389.192 139.437 392.572 177.042C394.843 202.296 396.537 225.421 381.086 245.869C351.976 285.546 295.165 269.679 258.391 251.713C241.147 243.311 226.568 239.472 211.286 237.423C187.127 234.183 161.806 236.986 140.721 249.216C125.651 257.957 112.357 269.805 101.217 287.262C84.7715 313.075 79.3612 342.13 78.8074 373.588C83.8322 421.793 102.976 455.944 136.626 485.013C138.941 487.012 141.528 488.67 144.273 490.021L156.961 496.264C199.276 516.383 266.976 559.057 257.979 591.558C237.06 632.664 191.069 577.889 174.808 557.48C128.018 507.891 60.0606 495.364 1.52423 529.797C1.51097 578.272 -2.06783 628.687 1.7881 677.064C20.4483 643.719 48.0583 605.724 86.589 619.091C110.698 623.846 126.212 655.261 142.356 673.251Z" fill="var(--fill-0, #FBF5E7)" fill-opacity="0.5"/>
</g>
</svg>
